<svg xmlns="http://www.w3.org/2000/svg" xmlns:xlink="http://www.w3.org/1999/xlink" width="336" zoomAndPan="magnify" viewBox="0 0 252 143.999998" height="192" preserveAspectRatio="xMidYMid meet" version="1.0"><defs><clipPath id="ee6fea358c"><path d="M 85.371094 29 L 166.371094 29 L 166.371094 115.027344 L 85.371094 115.027344 Z M 85.371094 29 " clip-rule="nonzero"/></clipPath></defs><g clip-path="url(#ee6fea358c)"><path fill="#2884ff" d="M 109.933594 81.121094 L 109.933594 81.105469 Z M 109.933594 81.105469 L 109.933594 81.121094 L 109.949219 81.109375 Z M 109.195312 82.347656 L 110.070312 82.800781 C 110.023438 82.246094 109.980469 81.679688 109.933594 81.121094 Z M 110.90625 80.433594 C 110.769531 80.363281 110.386719 80.800781 110.113281 81.007812 C 110.0625 81.046875 110.003906 81.078125 109.949219 81.109375 L 111.832031 81.46875 C 111.429688 80.984375 111.226562 80.585938 110.90625 80.433594 Z M 109 76.652344 L 109 76.601562 C 108.992188 76.609375 108.980469 76.613281 108.972656 76.621094 Z M 108.96875 76.644531 C 108.980469 76.644531 108.992188 76.648438 109 76.652344 L 108.972656 76.621094 Z M 108.289062 76.558594 C 107.707031 77.082031 107.144531 77.640625 106.671875 78.257812 C 106.558594 78.402344 106.757812 78.863281 106.921875 79.105469 C 106.988281 79.207031 107.339844 79.136719 107.554688 79.109375 C 107.621094 79.101562 107.671875 78.976562 107.757812 78.875 L 106.839844 78.828125 C 107.25 78.546875 107.414062 78.355469 107.609375 78.316406 C 108.542969 78.128906 108.894531 77.503906 108.96875 76.644531 C 108.726562 76.597656 108.402344 76.460938 108.289062 76.558594 Z M 110.421875 84.328125 C 110.945312 84.234375 111.277344 84.269531 111.480469 84.121094 C 111.917969 83.796875 112.316406 83.398438 112.660156 82.96875 C 112.699219 82.914062 112.242188 82.523438 112.101562 82.246094 C 111.996094 82.035156 112.03125 81.757812 112.011719 81.597656 L 110.765625 82.121094 L 110.84375 82.1875 L 110.105469 82.820312 C 110.082031 83.050781 110.078125 83.472656 110.03125 83.476562 C 108.828125 83.597656 108.808594 84.664062 108.40625 85.640625 L 108.328125 84.632812 L 107.203125 84.859375 C 107.355469 85.296875 107.515625 85.734375 107.675781 86.1875 L 108.460938 86.292969 L 108.480469 86.460938 C 108.839844 86.015625 109.191406 85.566406 109.542969 85.117188 L 109.21875 84.476562 L 110.539062 84.476562 L 109.726562 85.515625 L 110.625 85.167969 C 110.625 85.367188 110.625 85.566406 110.625 85.765625 L 112.460938 86.035156 Z M 110.070312 82.800781 C 110.074219 82.816406 110.074219 82.832031 110.074219 82.847656 L 110.105469 82.820312 C 110.09375 82.816406 110.082031 82.808594 110.070312 82.800781 Z M 110.59375 85.757812 C 110.59375 85.773438 110.597656 85.78125 110.597656 85.792969 C 110.605469 85.792969 110.617188 85.789062 110.625 85.789062 Z M 106.945312 83.863281 C 106.539062 83.804688 106.113281 83.910156 105.675781 83.949219 L 105.601562 82.515625 L 104.808594 83.53125 C 104.964844 83.824219 105.125 84.117188 105.21875 84.289062 L 105.019531 86.179688 L 105.277344 86.25 L 105.554688 85.84375 L 106.167969 86.574219 L 106.351562 86.480469 L 105.875 84.925781 C 106.257812 84.769531 106.527344 84.617188 106.820312 84.558594 C 106.921875 84.539062 107.070312 84.75 107.203125 84.859375 C 107.320312 84.695312 107.566406 84.453125 107.527344 84.390625 C 107.386719 84.171875 107.167969 83.890625 106.945312 83.863281 Z M 108.484375 86.496094 L 108.480469 86.460938 C 108.464844 86.476562 108.449219 86.496094 108.4375 86.515625 Z M 110.59375 85.757812 L 110.625 85.789062 L 110.625 85.765625 C 110.617188 85.761719 110.605469 85.761719 110.59375 85.757812 Z M 108.828125 112.140625 C 108.828125 112.140625 109.175781 111.960938 109.355469 111.871094 L 109.046875 111.886719 L 108.714844 110.386719 C 108.105469 111.003906 108.152344 111.597656 108.851562 112.164062 Z M 113.539062 106.675781 L 113.238281 107.847656 L 114.394531 107.5 L 114.394531 106.285156 Z M 109 74.949219 L 109 76.601562 C 109.578125 76.25 110.164062 75.910156 110.714844 75.523438 C 110.785156 75.472656 110.707031 75.203125 110.679688 75.011719 C 110.261719 75.152344 109.847656 75.292969 109.386719 75.453125 Z M 107.832031 87.246094 C 108.039062 87.007812 108.238281 86.761719 108.4375 86.515625 L 107 87.070312 C 107.421875 87.167969 107.761719 87.324219 107.832031 87.246094 Z M 102.984375 79.640625 L 102.8125 79.804688 L 103.027344 81.328125 L 103.324219 81.050781 L 104.554688 81.863281 C 103.933594 82.320312 103.078125 82.25 102.9375 83.085938 C 102.835938 83.691406 102.859375 84.316406 102.832031 84.878906 L 104.242188 84.878906 L 104.296875 83.820312 L 103.203125 83.679688 C 103.671875 83.210938 104.175781 83.195312 104.707031 83.515625 C 104.726562 83.527344 104.753906 83.527344 104.777344 83.527344 L 104.886719 81.414062 Z M 104.777344 83.527344 L 104.777344 83.566406 C 104.785156 83.554688 104.796875 83.542969 104.808594 83.53125 C 104.796875 83.53125 104.789062 83.527344 104.777344 83.527344 Z M 104.808594 83.53125 L 104.777344 83.566406 Z M 114.398438 79.148438 C 114.40625 79.15625 114.417969 79.167969 114.425781 79.179688 L 114.425781 79.117188 Z M 107.097656 58.25 L 107.507812 61.375 C 106.476562 61.292969 106.890625 60.308594 106.589844 59.777344 C 106.367188 59.382812 106.476562 59.351562 105.949219 59.171875 C 105.773438 59.109375 105.683594 58.800781 105.445312 58.4375 L 105.824219 60.648438 L 105.558594 60.652344 L 104.898438 59.492188 L 104.101562 59.917969 C 104.386719 59.097656 106.402344 58.464844 104.207031 57.730469 L 104.878906 56.90625 L 102.695312 55.1875 C 103.40625 55.085938 104.6875 56.316406 104.644531 54.386719 L 104.933594 54.550781 L 104.933594 55.957031 C 105.90625 55.972656 105.890625 56.019531 106.292969 57.179688 C 106.433594 57.582031 106.816406 57.894531 107.097656 58.25 C 107.109375 58.253906 107.128906 58.257812 107.140625 58.261719 L 107.125 58.277344 Z M 104.824219 55.949219 C 104.800781 55.933594 104.804688 55.941406 104.824219 55.949219 Z M 114.429688 106.253906 C 114.417969 106.25 114.40625 106.246094 114.394531 106.242188 L 114.394531 106.285156 L 114.425781 106.269531 Z M 116.902344 78.519531 L 116.929688 78.492188 C 116.921875 78.492188 116.90625 78.496094 116.898438 78.5 Z M 116.902344 78.519531 L 116.921875 78.519531 L 116.929688 78.492188 Z M 114.394531 107.5 C 114.394531 107.507812 114.398438 107.519531 114.398438 107.527344 L 114.40625 107.527344 L 114.425781 107.492188 Z M 119.714844 34.597656 C 119.695312 35.101562 119.777344 35.613281 119.824219 36.175781 L 121.019531 35.949219 L 120.046875 35.464844 L 120.824219 35.074219 C 120.605469 34.765625 120.429688 34.515625 120.253906 34.269531 C 120.0625 34.378906 119.71875 34.480469 119.714844 34.597656 Z M 115.078125 79.808594 C 114.917969 79.847656 114.652344 79.421875 114.425781 79.179688 L 114.425781 80.257812 L 114.167969 80.132812 L 113.613281 80.824219 C 113.285156 80.683594 112.964844 80.738281 112.667969 80.859375 C 112.554688 80.90625 112.496094 81.09375 112.332031 81.332031 L 113.21875 81.378906 L 113.160156 82.667969 C 114.550781 82.304688 114.871094 81.882812 114.964844 80.386719 L 116.675781 81.183594 C 116.402344 80.445312 116.324219 79.511719 115.078125 79.808594 Z M 116.675781 81.183594 C 116.679688 81.199219 116.6875 81.21875 116.691406 81.234375 C 116.703125 81.226562 116.722656 81.207031 116.722656 81.207031 C 116.707031 81.199219 116.691406 81.191406 116.675781 81.183594 Z M 114.425781 79.117188 L 114.382812 79.109375 L 114.398438 79.148438 Z M 125.808594 71.78125 C 125.828125 71.804688 125.851562 71.824219 125.871094 71.847656 L 125.921875 71.722656 Z M 116.246094 78.167969 L 114.867188 79.011719 C 115.53125 79.121094 116.019531 79.46875 116.316406 78.703125 C 116.367188 78.578125 116.683594 78.558594 116.898438 78.5 C 116.78125 77.84375 116.777344 77.847656 116.246094 78.167969 Z M 107.960938 39.078125 C 107.957031 39.066406 107.957031 39.058594 107.953125 39.046875 L 107.929688 39.046875 Z M 110.679688 75.011719 C 110.6875 75.007812 110.699219 75.007812 110.707031 75.003906 L 110.691406 74.992188 C 110.683594 74.984375 110.675781 74.972656 110.675781 74.972656 C 110.679688 74.984375 110.679688 75 110.679688 75.011719 Z M 107.960938 39.078125 L 107.929688 39.046875 L 107.925781 39.078125 Z M 124.792969 72.019531 L 124.953125 72.238281 L 125.808594 71.78125 C 125.722656 71.675781 125.636719 71.566406 125.53125 71.476562 C 125.480469 71.429688 125.046875 71.828125 124.792969 72.019531 Z M 110.691406 74.992188 L 110.707031 75.003906 C 110.695312 74.996094 110.6875 74.984375 110.675781 74.972656 C 110.675781 74.972656 110.683594 74.984375 110.691406 74.992188 Z M 104.914062 33.808594 C 104.925781 33.792969 104.871094 33.675781 104.839844 33.667969 C 103.828125 33.511719 104.257812 32.832031 104.382812 32.175781 L 101.960938 31.648438 L 101.90625 31.953125 L 101.082031 30.996094 L 101.519531 33.652344 C 102.765625 32.628906 102.851562 34.246094 103.480469 34.667969 L 103.601562 33.496094 C 104.480469 34.398438 104.433594 34.941406 103.789062 35.425781 C 103.789062 35.828125 103.726562 36.105469 103.808594 36.328125 C 103.867188 36.476562 104.109375 36.554688 104.28125 36.664062 C 104.261719 36.601562 104.21875 36.511719 104.234375 36.496094 C 105.164062 35.777344 104.203125 34.582031 104.914062 33.808594 Z M 104.28125 36.664062 L 104.292969 36.675781 Z M 101.503906 33.707031 L 101.527344 33.703125 C 101.527344 33.6875 101.523438 33.671875 101.519531 33.652344 C 101.511719 33.660156 101.503906 33.664062 101.496094 33.671875 Z M 105.988281 40.375 L 106.273438 41.410156 L 107.210938 40.953125 L 107.792969 42.457031 L 108.191406 42.347656 L 108.039062 41.25 L 108.210938 41.445312 L 109.152344 40.382812 L 107.660156 40.683594 L 107.925781 39.078125 L 107.183594 39.113281 C 107.332031 40.300781 106.996094 40.628906 105.988281 40.375 Z M 101.699219 34.628906 L 101.503906 33.707031 C 100.941406 33.789062 100.375 33.875 99.832031 33.957031 C 100.050781 35.457031 101.199219 33.984375 101.699219 34.628906 Z M 103.292969 38.257812 L 103.585938 38.503906 C 103.882812 38.359375 104.164062 38.167969 104.476562 38.09375 C 104.695312 38.042969 104.972656 38.113281 105.1875 38.210938 C 105.296875 38.261719 105.324219 38.488281 105.390625 38.636719 C 105.460938 38.449219 105.542969 38.265625 105.589844 38.074219 C 105.636719 37.867188 105.648438 37.648438 105.675781 37.433594 L 104.292969 36.675781 Z M 104.46875 109.3125 L 104.464844 109.296875 C 104.460938 109.304688 104.453125 109.3125 104.449219 109.320312 Z M 94.503906 37.789062 L 94.71875 37.851562 L 95.355469 36.367188 L 94.007812 35.695312 Z M 94.691406 46.628906 L 94.332031 45.992188 L 94.027344 46.050781 L 94.199219 47.265625 L 96.472656 46.699219 L 96.414062 46.519531 Z M 95.46875 37.421875 L 95.046875 38.164062 L 95.796875 38.296875 L 95.796875 39.160156 C 96.363281 38.425781 96.132812 37.40625 95.46875 37.421875 Z M 104.371094 69.660156 L 102.6875 71.339844 C 103.851562 71.453125 104.203125 71.152344 104.371094 69.660156 Z M 101.722656 63.953125 C 101.671875 64.152344 101.527344 64.328125 101.421875 64.511719 L 100.828125 63.988281 C 100.757812 64.273438 100.636719 64.546875 100.640625 64.816406 C 100.644531 64.972656 100.824219 65.195312 100.976562 65.257812 C 101.144531 65.324219 101.375 65.238281 101.574219 65.21875 C 101.46875 65.402344 101.398438 65.636719 101.242188 65.765625 C 100.980469 65.988281 100.667969 66.15625 100.367188 66.332031 C 100.191406 66.429688 99.980469 66.472656 99.832031 66.597656 C 99.792969 66.628906 99.914062 66.984375 99.984375 66.992188 C 100.1875 67.019531 100.421875 66.980469 100.613281 66.898438 C 101.777344 66.40625 101.9375 65.246094 102.257812 64.242188 C 102.429688 63.703125 102.355469 63.085938 102.394531 62.507812 L 102.042969 62.460938 C 101.9375 62.960938 101.851562 63.460938 101.722656 63.953125 Z M 97.320312 53.6875 C 96.878906 55.371094 97.125 55.84375 98.4375 56.355469 L 98.980469 55.054688 L 97.558594 55.34375 Z M 98.972656 61.191406 L 99.699219 61.78125 C 100.363281 60.964844 100.570312 60.402344 100.3125 60.085938 L 99.835938 61.023438 L 99.480469 60.445312 Z M 100.058594 52.234375 C 99.9375 52.203125 99.757812 52.390625 99.605469 52.480469 C 99.726562 52.578125 99.835938 52.726562 99.972656 52.765625 C 100.765625 52.984375 100.914062 53.328125 100.65625 53.714844 L 101.171875 55.203125 C 101.320312 55.027344 101.855469 54.628906 101.789062 54.425781 C 101.578125 53.789062 101.175781 53.203125 100.78125 52.644531 C 100.632812 52.4375 100.320312 52.308594 100.058594 52.234375 Z M 93.472656 86.949219 C 92.214844 87.039062 92.941406 86.371094 92.945312 85.832031 L 91.878906 87.125 L 93.8125 87.671875 C 93.664062 87.339844 93.554688 86.945312 93.472656 86.949219 Z M 92.914062 88.222656 L 91.992188 87.414062 L 91.636719 89.308594 C 92.789062 89.78125 92.210938 88.246094 92.914062 88.222656 Z M 94.03125 79.058594 C 94.269531 78.839844 94.640625 78.65625 94.710938 78.390625 C 94.769531 78.183594 94.457031 77.878906 94.308594 77.617188 L 93.609375 78.683594 Z M 93.5 54.582031 L 91.367188 55.621094 C 93.46875 56.144531 93.679688 56.011719 93.5 54.582031 Z M 92.4375 100.289062 C 91.648438 100.132812 91.265625 100.308594 91.292969 100.8125 C 91.328125 101.59375 91.75 102.25 92.550781 102.792969 C 92.546875 102.523438 92.488281 102.21875 92.3125 102.109375 C 91.78125 101.777344 91.703125 101.46875 92.152344 101 C 92.300781 100.84375 92.328125 100.574219 92.4375 100.289062 Z M 93.023438 96.136719 L 90.800781 97.445312 C 91.257812 97.496094 91.601562 97.207031 91.902344 97.246094 C 92.742188 97.351562 92.96875 96.933594 93.023438 96.136719 Z M 101.308594 76.058594 L 99.375 76.058594 L 98.859375 77.40625 C 99.515625 76.707031 100.777344 76.925781 101.308594 76.058594 Z M 95.609375 94.992188 L 94.207031 94.992188 L 94.207031 95.410156 C 94.855469 95.410156 95.597656 95.613281 96.128906 95.363281 C 96.976562 94.96875 97.679688 94.269531 98.46875 93.679688 L 98.003906 92.648438 L 95.703125 95.25 Z M 100.101562 78.824219 C 99.472656 79.089844 98.765625 77.96875 98.207031 79 C 98.84375 78.488281 99.539062 80.324219 100.101562 78.824219 Z M 97.214844 85.425781 C 97.101562 85.523438 96.972656 85.609375 96.878906 85.722656 C 96.0625 86.71875 95.851562 86.730469 94.910156 85.976562 C 94.691406 85.800781 94.355469 85.773438 94.070312 85.675781 L 93.921875 86.292969 C 94.695312 86.511719 95.480469 86.917969 96.242188 86.878906 C 96.683594 86.855469 97.085938 86.117188 97.507812 85.703125 Z M 91.046875 36.042969 L 90.144531 35.695312 L 89.976562 36.136719 L 91.425781 36.6875 L 91.769531 35.179688 L 91.503906 35.027344 Z M 102.6875 71.339844 C 102.671875 71.339844 102.65625 71.339844 102.640625 71.339844 C 102.644531 71.355469 102.644531 71.371094 102.644531 71.390625 C 102.652344 71.378906 102.660156 71.371094 102.667969 71.359375 C 102.671875 71.355469 102.679688 71.347656 102.6875 71.339844 Z M 102.175781 67.289062 L 102.03125 67.234375 L 101.175781 68.902344 L 100.074219 68.582031 L 99.976562 68.925781 L 101.777344 69.367188 Z M 100.59375 82.097656 L 101.699219 81.441406 L 101.558594 81.222656 L 100.945312 81.539062 L 100.136719 80.019531 L 99.855469 82.097656 C 99.84375 82.089844 100.054688 82.28125 100.289062 82.5 L 99.304688 82.988281 L 100.339844 83.492188 Z M 100.945312 71.652344 C 100.527344 71.816406 100.117188 72.152344 99.847656 72.058594 C 98.722656 71.675781 98.414062 71.78125 97.972656 72.957031 C 98.730469 73.046875 99.007812 72.839844 98.8125 72.332031 C 100.542969 72.195312 101.171875 72.597656 101.347656 73.933594 C 102.367188 73.230469 102.191406 74.378906 102.578125 74.742188 C 102.628906 74.367188 102.492188 74.03125 102.539062 73.726562 C 102.59375 73.375 102.816406 73.050781 102.851562 72.964844 L 102.644531 71.390625 C 102.160156 72.1875 101.574219 72.304688 100.945312 71.652344 Z M 95.664062 57.90625 L 95.796875 58.414062 C 96.753906 58.84375 97.246094 57.558594 98.15625 57.808594 L 98.066406 57.433594 Z M 95.269531 72.820312 L 95.019531 71.066406 C 94.265625 71.394531 94.351562 71.980469 95.269531 72.820312 Z M 98.007812 78.035156 L 97.148438 77.679688 L 96.765625 79.386719 L 97.074219 79.476562 L 97.6875 78.257812 Z M 95.160156 70.554688 C 95.144531 70.683594 95.265625 70.949219 95.308594 70.945312 C 95.664062 70.914062 96.121094 70.945312 96.328125 70.738281 C 96.515625 70.546875 96.535156 70.042969 96.425781 69.757812 C 96.355469 69.566406 95.921875 69.515625 95.648438 69.402344 L 95.554688 69.613281 L 96.433594 70.148438 C 95.933594 70.210938 95.675781 70.21875 95.4375 70.285156 C 95.324219 70.316406 95.171875 70.453125 95.160156 70.554688 Z M 97.789062 58.355469 C 97.707031 58.523438 97.628906 58.695312 97.539062 58.863281 C 97.394531 59.144531 97.242188 59.421875 97.089844 59.703125 L 98.5 60.34375 C 98.414062 59.695312 98.421875 59.347656 98.308594 59.046875 C 98.210938 58.789062 97.96875 58.582031 97.789062 58.355469 Z M 99.902344 64.589844 C 99.246094 64.167969 99.691406 66.429688 98.601562 65.101562 L 98.132812 66.632812 C 99.453125 66.066406 99.925781 65.492188 99.902344 64.589844 Z M 95.613281 48.894531 L 95.21875 48.859375 C 95.304688 49.691406 95.152344 50.449219 94.597656 51.089844 C 95.421875 50.734375 96.574219 50.96875 98.058594 51.792969 C 98.058594 51.578125 98.113281 51.253906 98.046875 51.230469 C 97.269531 50.914062 96.472656 50.644531 95.738281 50.386719 Z M 90 50.996094 L 88.964844 51.253906 L 88.863281 50.15625 L 88.632812 50.207031 L 87.75 52.660156 L 90.015625 51.144531 Z M 85.371094 108.058594 L 87.050781 108.800781 L 87.957031 108.375 L 87.941406 108.277344 L 86.859375 108.4375 L 87.15625 107.359375 Z M 91.027344 31.464844 L 91.152344 30.316406 L 89 30.582031 L 89.011719 30.757812 L 90.082031 30.757812 L 89.523438 31.527344 L 89.710938 31.671875 L 90.546875 31.042969 C 90.695312 31.171875 90.84375 31.300781 91.027344 31.464844 Z M 92.699219 67.453125 L 92.828125 67.113281 C 92.558594 66.953125 92.261719 66.617188 92.03125 66.660156 C 91.300781 66.789062 90.824219 67.519531 90.945312 68.398438 C 91.207031 67.433594 91.777344 67.09375 92.699219 67.453125 Z M 87.0625 93.699219 L 88.796875 94.457031 C 88.890625 93.585938 88.3125 93.335938 87.0625 93.699219 Z M 89.601562 62.101562 L 90.792969 62.101562 L 90.8125 61.914062 L 90.339844 61.726562 L 91.105469 60.78125 L 90.9375 60.679688 L 89.5625 61.707031 Z M 89.21875 75.816406 L 89.550781 76.765625 C 90 76.320312 90.558594 75.9375 90.859375 75.40625 C 91.042969 75.078125 90.835938 74.527344 90.796875 74 C 90.621094 74.304688 90.199219 74.746094 90.292969 74.925781 C 90.859375 76.066406 90.140625 75.9375 89.21875 75.816406 Z M 109.445312 78.484375 L 108.617188 78.171875 C 108.441406 79.113281 108.148438 80.046875 109.113281 80.832031 L 109.261719 80.023438 L 109.984375 80.457031 L 109.984375 79.707031 C 110.460938 79.785156 110.863281 79.839844 111.261719 79.914062 C 111.550781 79.964844 111.835938 80.042969 112.121094 80.105469 C 111.941406 79.859375 111.769531 79.601562 111.578125 79.363281 C 111.527344 79.292969 111.417969 79.269531 111.335938 79.226562 L 111.921875 78.152344 C 111.15625 78.160156 110.53125 78.304688 109.808594 78.539062 L 110.800781 76.09375 C 109.671875 76.355469 109.589844 77.433594 109.445312 78.484375 Z M 107.6875 54.335938 L 107.144531 54.371094 L 106.949219 55.683594 C 107.234375 55.632812 107.746094 55.613281 107.757812 55.523438 C 107.816406 55.136719 107.722656 54.730469 107.6875 54.335938 Z M 100.109375 32.160156 L 98.644531 33.34375 L 98.988281 33.761719 L 100.453125 32.574219 Z M 88.703125 42.464844 L 87.390625 43.519531 L 89.601562 43.875 Z M 108.6875 57.359375 L 109.304688 56.839844 C 109.324219 56.414062 109.359375 56.148438 109.34375 55.886719 C 109.332031 55.738281 109.269531 55.5625 109.167969 55.457031 C 109.109375 55.394531 108.855469 55.386719 108.824219 55.4375 C 108.730469 55.582031 108.652344 55.78125 108.667969 55.945312 C 108.6875 56.128906 108.816406 56.304688 108.929688 56.546875 L 108.210938 56.496094 Z M 109.75 95.585938 L 110.15625 97.320312 L 111.035156 95.945312 L 109.910156 95.3125 Z M 100.46875 115.175781 C 100.773438 113.847656 101.613281 113.074219 102.957031 112.789062 L 102.636719 112.152344 L 101.21875 113.117188 L 100.589844 112.71875 L 100.8125 113.046875 L 98.980469 114.003906 L 99.34375 114.359375 L 100.429688 114.472656 L 100.167969 115.175781 Z M 100.535156 30.039062 C 100.28125 30.160156 100.035156 30.3125 99.769531 30.394531 C 99.453125 30.492188 99.117188 30.527344 98.625 30.625 L 99.300781 31.480469 L 100.675781 30.292969 Z M 99.972656 108.855469 L 99.691406 109.753906 L 99.882812 109.855469 L 100.828125 108.589844 L 98.550781 108.589844 L 98.609375 109.375 Z M 96.980469 34.890625 L 97.234375 35.371094 L 98.734375 34.574219 L 97.652344 36.246094 L 97.761719 36.703125 C 99.386719 36.429688 99.066406 35.207031 98.984375 33.871094 Z M 100.46875 102.332031 L 100.722656 102.421875 L 102.3125 101.070312 L 101.308594 100.542969 Z M 94.273438 89.292969 L 94.273438 87.839844 L 94.050781 87.632812 L 92.691406 89.394531 L 92.953125 89.65625 L 93.71875 88.660156 Z M 91.5 113.488281 L 88.652344 113.855469 C 89.378906 114.488281 90.992188 114.304688 91.5 113.488281 Z M 93.464844 103.78125 C 93.972656 102.894531 93.589844 102.320312 92.847656 101.644531 L 93.214844 103.675781 L 92.871094 103.511719 L 91.316406 104.835938 L 93.695312 104.625 C 93.613281 104.351562 93.359375 103.964844 93.464844 103.78125 Z M 101.53125 109.375 L 101.164062 109.140625 L 99.550781 111.730469 L 99.890625 111.960938 Z M 105.019531 71.863281 L 105.019531 73.582031 L 105.320312 73.882812 L 106.398438 72.660156 C 106.34375 72.636719 106.527344 72.710938 106.78125 72.8125 C 106.507812 71.816406 105.941406 71.578125 105.019531 71.863281 Z M 166.628906 99.726562 L 166.628906 115.175781 L 147.050781 115.175781 L 135.90625 77.71875 L 136.457031 77.460938 L 135.808594 77.386719 L 135.429688 76.117188 L 135.429688 77.34375 L 134.15625 77.191406 L 134.972656 75.664062 L 133.804688 76.253906 L 133.886719 75.410156 L 133.722656 75.378906 L 133.363281 76.511719 L 134.433594 76.425781 L 132.746094 77.449219 C 133.707031 77.1875 134.351562 77.617188 135.066406 78.109375 L 135.429688 77.9375 L 135.429688 115.175781 L 122 115.175781 L 121.992188 114.902344 L 122.757812 114.707031 L 122.671875 114.457031 L 121.109375 114.929688 L 120.835938 114.4375 L 120.375 114.992188 L 120.113281 114.890625 L 120.414062 114 C 119.648438 113.597656 119.382812 114.238281 119.003906 114.894531 L 119.003906 113.066406 C 118.511719 113.71875 118.511719 114.773438 117.4375 114.320312 L 117.703125 113.484375 L 116.84375 114.011719 L 116.496094 113.375 L 115.957031 113.484375 C 115.925781 112.785156 115.480469 112.714844 115.179688 113.179688 C 114.957031 113.527344 114.433594 114.136719 115.179688 114.589844 C 115.324219 114.675781 115.488281 114.726562 115.714844 114.824219 L 116.085938 114.03125 L 117.171875 114.734375 L 116.640625 115.023438 L 117.917969 115.089844 L 117.898438 115.175781 L 116.640625 115.175781 C 116.566406 115.164062 116.492188 115.140625 116.417969 115.128906 C 116.292969 115.113281 116.164062 115.136719 116.03125 115.175781 L 114.425781 115.175781 C 114.371094 115.105469 114.320312 115.019531 114.273438 114.910156 L 114.113281 115.175781 L 113.757812 115.175781 L 113.445312 114.179688 L 112.265625 114.839844 L 112.011719 114.597656 L 113.285156 113.171875 L 113.199219 113.023438 L 112.472656 113.34375 L 111.847656 112.441406 C 112.566406 112.515625 113.289062 112.378906 113.695312 112.675781 C 114.203125 113.042969 114.484375 113.019531 114.753906 112.59375 C 114.804688 112.511719 114.421875 112.160156 114.214844 111.917969 L 113.015625 111.5 L 112.5 110.402344 L 110.859375 113.992188 L 111.578125 113.582031 C 111.566406 114.402344 111.296875 114.53125 110.351562 114.179688 C 110.441406 114.03125 110.53125 113.886719 110.613281 113.742188 L 109.328125 113.742188 L 108.382812 112.734375 C 108.449219 114.246094 108.460938 114.898438 108.222656 115.175781 L 107.386719 115.175781 C 108.027344 114.425781 107.898438 113.683594 107.289062 112.90625 L 106.035156 113.710938 L 107.199219 111.992188 L 106.359375 112.113281 C 106.675781 111.84375 106.875 111.597656 106.941406 111.628906 C 107.355469 111.828125 107.742188 112.089844 108.273438 112.417969 L 108.859375 112.171875 C 109.453125 112.847656 109.683594 111.859375 110.128906 111.855469 C 110.027344 111.582031 109.839844 111.3125 109.839844 111.042969 C 109.84375 110.769531 109.964844 110.316406 110.140625 110.253906 C 111.039062 109.9375 110.59375 109.496094 110.269531 109.007812 L 111.785156 108.476562 C 111.855469 108.386719 111.425781 107.589844 112.300781 107.730469 L 111.976562 109.125 L 112.179688 109.191406 L 112.753906 108.0625 C 113.207031 109.140625 113.789062 109.554688 114.5 109.3125 L 113.667969 108.847656 L 114.40625 107.527344 C 114.925781 107.492188 115.851562 107.851562 115.667969 106.953125 C 115.523438 106.238281 115.824219 106.011719 116.179688 105.695312 C 116.457031 105.449219 116.8125 105.292969 117.101562 105.121094 L 116.722656 104.378906 C 117.597656 104.175781 117 103.433594 117.214844 103.019531 L 116.128906 102.652344 L 116.652344 101.90625 L 116.398438 101.71875 C 116.246094 101.917969 116.113281 102.132812 115.945312 102.316406 C 115.648438 102.632812 115.351562 103.160156 115.011719 103.195312 C 114.011719 103.300781 114.355469 103.792969 114.527344 104.453125 L 115.421875 103.394531 L 114.996094 106.460938 L 114.429688 106.253906 L 114.671875 105.191406 L 112.023438 106.5 L 111.796875 105.84375 L 109.796875 107.125 C 109.636719 105.589844 110.863281 106.039062 111.464844 105.707031 L 111.089844 105.582031 C 111.089844 105.210938 111.054688 104.835938 111.101562 104.472656 C 111.144531 104.085938 111.265625 103.710938 111.386719 103.191406 L 111.949219 103.257812 L 111.558594 101.546875 L 111.351562 101.550781 L 111.085938 102.992188 L 110.210938 101.050781 C 109.734375 101.074219 109.605469 101.382812 109.832031 101.925781 C 110.015625 102.367188 110.21875 102.800781 110.363281 103.128906 C 109.976562 103.160156 109.699219 103.210938 109.425781 103.1875 C 109.230469 103.171875 108.957031 103.109375 108.871094 102.96875 C 108.589844 102.523438 108.613281 102.503906 108.195312 102.738281 L 108.5 101.292969 L 111.074219 99.128906 C 111.097656 99.523438 111.207031 100.242188 111.132812 100.257812 C 110.265625 100.480469 110.746094 101 110.730469 101.566406 L 112.644531 100.476562 L 112.730469 100.601562 L 111.957031 101.507812 L 113.042969 101.226562 C 112.777344 101.746094 113.015625 101.996094 113.757812 101.976562 L 114.777344 100.25 C 114.589844 99.386719 114.054688 99.710938 113.496094 99.945312 C 112.726562 100.277344 112.453125 100.074219 112.433594 99.164062 L 113.375 99.34375 L 113.042969 98.339844 L 112.292969 98.945312 L 111.496094 98.515625 C 112.210938 97.84375 112.121094 96.507812 113.339844 96.246094 L 113.339844 95.054688 L 111.738281 96.035156 L 111.507812 95.648438 L 112.730469 94.992188 C 112.746094 94.535156 111.417969 94.191406 112.402344 93.636719 C 112.8125 93.40625 113.542969 93.746094 114.101562 93.824219 C 114.113281 93.09375 114.839844 92.613281 116.511719 92.253906 L 113.53125 91.695312 L 113.675781 92.519531 L 111.855469 93.183594 C 111.246094 92.328125 112.730469 92.03125 112.539062 91.257812 C 113.621094 91.523438 114.28125 91.144531 114.292969 90.289062 L 113.320312 90.617188 C 113.183594 90.21875 113.167969 89.847656 113.003906 89.761719 C 112.773438 89.640625 112.433594 89.730469 112.191406 89.730469 L 112.300781 91.015625 C 112.074219 90.960938 111.675781 90.8125 111.652344 90.859375 C 111.382812 91.375 111.074219 91.90625 110.984375 92.464844 C 110.9375 92.757812 111.308594 93.117188 111.382812 93.257812 L 111.382812 95.332031 L 110.167969 94.914062 L 110.167969 94.0625 L 109.148438 95.394531 L 108.207031 95.394531 L 108.582031 96.089844 L 107.863281 96.527344 C 108.804688 97.339844 107.136719 97.121094 107.570312 97.945312 C 108.019531 97.699219 108.582031 97.527344 108.90625 97.152344 C 109.042969 96.996094 108.980469 96.597656 109.371094 96.605469 C 109.476562 96.605469 109.671875 96.765625 109.664062 96.839844 C 109.628906 97.191406 109.652344 97.644531 109.445312 97.859375 C 109.117188 98.207031 108.613281 98.386719 108.207031 98.667969 C 108.132812 98.71875 108.171875 98.925781 108.121094 99.421875 L 110.726562 97.535156 L 110.121094 99.320312 C 109.328125 99.183594 108.75 99.625 108.589844 100.648438 L 108.351562 100.511719 L 108.5 99.617188 C 107.242188 99.863281 108.714844 101.273438 107.953125 101.46875 L 106.558594 100.980469 C 106.710938 100.816406 106.292969 100 107.226562 100.375 C 107.289062 100.402344 107.488281 100.214844 107.542969 100.09375 C 107.578125 100.019531 107.496094 99.832031 107.410156 99.769531 C 107.101562 99.546875 106.769531 99.355469 106.453125 99.160156 L 107.074219 98.484375 C 105.738281 98.824219 104.457031 99.316406 103.195312 98.277344 L 103.585938 97.671875 C 103.027344 97.671875 102.511719 97.578125 102.042969 97.695312 C 101.519531 97.824219 101.582031 97.894531 101.425781 97.328125 C 101.378906 97.160156 101.027344 97.078125 100.699219 96.894531 L 101.929688 96.894531 C 101.570312 96.15625 101.296875 96.105469 99.625 96.582031 L 99.175781 95.96875 C 100.519531 95.113281 101.898438 95.792969 103.128906 96.222656 C 103.765625 96.441406 104.058594 97.652344 104.585938 98.542969 L 106.0625 98.011719 C 105.113281 95.847656 105.609375 94.84375 108.316406 93.46875 L 107.589844 92.550781 C 108.09375 92.382812 108.476562 92.210938 108.875 92.148438 C 108.984375 92.128906 109.230469 92.433594 109.261719 92.613281 C 109.324219 92.972656 109.277344 93.351562 109.277344 93.855469 L 110.65625 93.304688 L 110.070312 92.582031 L 110.683594 91.898438 L 110.117188 90.804688 L 109.820312 90.921875 L 110.023438 89.796875 L 109.078125 90.847656 L 108.699219 90.511719 L 110.027344 89.351562 C 109.570312 89.277344 109.085938 89.320312 108.777344 89.113281 C 108.457031 88.898438 108.308594 88.433594 108.101562 88.101562 L 110.625 87.636719 C 110.753906 87.957031 110.875 88.269531 111.003906 88.574219 C 111.230469 89.097656 111.421875 89.085938 111.769531 88.617188 C 112.019531 88.277344 112.457031 88.074219 112.808594 87.808594 L 112.222656 87.09375 L 111.722656 87.878906 L 110.378906 86.886719 C 110.289062 86.820312 110.125 86.683594 110.113281 86.695312 C 109.933594 86.875 109.773438 87.074219 109.527344 87.367188 C 109.195312 86.222656 109.832031 85.960938 110.597656 85.792969 C 110.597656 86.582031 111.269531 86.925781 112.066406 86.496094 C 112.4375 86.292969 112.753906 85.988281 113.085938 85.734375 L 111.847656 84.898438 C 113.542969 84.890625 113.835938 85.09375 114.136719 86.523438 C 114.167969 86.671875 113.871094 86.886719 113.667969 87.144531 C 113.925781 87.972656 114.609375 88.207031 114.929688 87.441406 C 115.105469 87.023438 115.179688 86.5625 115.296875 86.121094 C 113.996094 85.796875 113.753906 85.339844 114.359375 84.25 L 113.121094 84.546875 L 112.789062 83.191406 C 113.246094 83.425781 113.597656 83.679688 113.984375 83.777344 C 114.339844 83.871094 114.738281 83.796875 115.28125 83.796875 C 114.710938 83.429688 114.703125 81.542969 115.160156 81.363281 C 115.390625 81.273438 115.765625 81.503906 116.050781 81.632812 C 116.109375 81.660156 116.074219 81.894531 116.074219 82.03125 C 116.078125 82.308594 116.070312 82.585938 116.066406 82.863281 L 115.828125 84.0625 L 116.042969 84.136719 L 117.867188 82.589844 L 116.296875 82.863281 L 116.722656 81.207031 L 117.777344 80.273438 L 116.480469 79.695312 L 116.921875 78.519531 C 117.265625 78.480469 117.613281 78.472656 117.949219 78.398438 C 118.976562 78.179688 120 77.933594 121.085938 77.683594 L 120.875 78.386719 C 121.015625 78.332031 121.167969 78.296875 121.285156 78.210938 C 121.515625 78.046875 121.722656 77.851562 121.9375 77.664062 C 122.269531 77.375 122.59375 77.085938 122.921875 76.796875 L 122.699219 76.539062 L 121.507812 77.46875 L 120.667969 76.949219 L 120.667969 75.238281 L 119.425781 75.183594 C 119.34375 75.796875 118.441406 76.664062 120.09375 76.734375 L 117.097656 77.707031 L 116.910156 77.578125 L 117.550781 76.878906 L 116.273438 76.390625 C 116.085938 76.808594 115.917969 77.328125 115.628906 77.761719 C 115.515625 77.929688 114.996094 78.050781 114.882812 77.949219 C 114.402344 77.519531 114.433594 77.484375 113.914062 77.730469 L 114.382812 79.109375 L 113.183594 78.886719 L 113.773438 77.082031 L 112.605469 77.53125 C 112.535156 77.070312 112.539062 76.582031 112.367188 76.164062 C 112.234375 75.84375 111.886719 75.609375 111.585938 75.292969 L 112.152344 75.074219 L 112.140625 74.855469 L 110.675781 74.972656 C 110.453125 74.75 110.515625 74.058594 109.867188 74.503906 C 109.792969 74.554688 109.507812 74.4375 109.421875 74.324219 C 108.714844 73.394531 108.476562 74.15625 108.105469 74.636719 C 107.90625 74.894531 107.585938 75.054688 107.320312 75.257812 C 107.304688 74.929688 107.203125 74.582031 107.28125 74.28125 C 107.488281 73.476562 107.738281 72.679688 108.054688 71.914062 C 108.136719 71.71875 108.535156 71.652344 108.792969 71.539062 C 109.074219 71.414062 109.363281 71.304688 109.75 71.148438 L 108.683594 69.902344 C 108.875 71.183594 108.296875 71.144531 107.515625 70.886719 L 107.515625 68.855469 L 107.046875 67.671875 L 107.9375 67.335938 L 107.910156 67.191406 L 106.773438 67.191406 L 106.703125 66.949219 C 107.171875 66.773438 107.632812 66.503906 108.113281 66.46875 C 108.320312 66.457031 108.558594 66.929688 109.019531 67.183594 C 108.941406 66.65625 108.84375 66.132812 108.789062 65.601562 C 108.730469 65.042969 108.695312 64.480469 108.683594 63.921875 C 108.664062 63.109375 108.679688 62.296875 108.679688 61.484375 L 108.285156 61.4375 L 107.957031 62.898438 L 107.070312 63.179688 L 107.542969 61.378906 L 107.511719 61.410156 L 107.507812 61.375 C 107.519531 61.375 107.53125 61.378906 107.542969 61.378906 L 108.378906 60.511719 C 109.519531 61.265625 109.542969 61.277344 110.261719 60.921875 C 110.023438 60.609375 109.8125 60.277344 109.542969 60 C 109.203125 59.644531 108.820312 59.335938 108.441406 59.023438 C 108.386719 58.976562 108.253906 59.023438 108.15625 59.027344 C 108.265625 58.164062 107.554688 58.414062 107.140625 58.261719 L 108.171875 57.132812 C 108.210938 58.585938 108.886719 59.007812 109.976562 58.730469 C 110.601562 58.570312 111.289062 58.648438 112.027344 58.617188 L 111.414062 60.703125 L 113.695312 60.078125 L 113.515625 59.839844 L 114.667969 58.957031 L 112.820312 58.601562 L 112.710938 58.84375 L 113.285156 59.527344 C 113.027344 59.527344 112.664062 59.609375 112.605469 59.511719 C 112.445312 59.246094 112.417969 58.898438 112.335938 58.578125 L 113.511719 58.261719 C 113.136719 58.019531 112.945312 57.867188 112.734375 57.765625 C 112.574219 57.6875 112.386719 57.671875 112.210938 57.636719 C 112.070312 57.613281 111.914062 57.5625 111.777344 57.59375 C 110.894531 57.792969 110.011719 58.007812 108.949219 58.261719 L 109.339844 57.339844 C 109.757812 57.402344 110.070312 57.492188 110.378906 57.476562 C 110.632812 57.464844 110.882812 57.328125 111.132812 57.246094 C 110.972656 56.929688 110.832031 56.601562 110.644531 56.300781 C 110.554688 56.160156 110.246094 56.058594 110.257812 55.972656 C 110.386719 55.1875 110.050781 54.660156 109.371094 54.339844 L 109.726562 53.195312 L 109.542969 53.105469 L 108.382812 54.515625 L 108.171875 54.375 L 108.367188 53.738281 L 105.703125 54.304688 L 105.65625 53.515625 C 106.285156 53.335938 106.839844 53.265625 107.300781 53.019531 C 107.796875 52.753906 108.207031 52.324219 108.652344 51.964844 L 108.875 52.183594 L 108.660156 52.800781 L 109.777344 52.140625 L 110.207031 53.515625 C 111.191406 53.125 111.363281 52.34375 111.265625 51.378906 C 112.207031 51.988281 113.445312 52.238281 113.023438 53.691406 C 113.328125 53.449219 113.628906 53.199219 113.941406 52.96875 C 114.210938 52.765625 114.492188 52.582031 114.949219 52.269531 C 114.96875 51.71875 115.148438 51.558594 116.496094 51.417969 L 115.453125 51.9375 L 115.804688 52.683594 L 117.402344 51.710938 L 115.257812 50.644531 L 114.164062 52.300781 L 112.496094 51.121094 L 112.683594 50.28125 L 112.515625 50.230469 L 111.953125 51.203125 L 111.632812 51.039062 C 111.773438 50.71875 111.957031 50.40625 112.042969 50.066406 C 112.074219 49.941406 111.886719 49.761719 111.792969 49.601562 L 111.6875 50.019531 C 110.675781 49.664062 110.652344 50.570312 110.332031 51.070312 L 111.097656 51.796875 L 110.519531 52.421875 C 110.398438 52.363281 110.308594 52.347656 110.292969 52.304688 C 110.03125 51.65625 109.703125 51.019531 109.550781 50.339844 C 109.425781 49.777344 109.546875 49.1875 110.667969 49.441406 L 110.390625 49.117188 L 108.910156 48.863281 L 108.445312 50.019531 L 108.992188 50.257812 L 107.625 51.121094 C 108.441406 49.273438 108.554688 47.5625 107.160156 45.996094 L 108.03125 46.171875 L 108.488281 44.535156 C 107.21875 44.167969 107.542969 43.757812 106.042969 46.015625 C 105.953125 45.796875 105.914062 45.609375 105.808594 45.480469 C 105.742188 45.398438 105.5625 45.40625 105.5625 45.40625 L 106.214844 43.214844 L 106.671875 44.175781 C 106.769531 44.140625 106.835938 44.136719 106.863281 44.105469 C 107.253906 43.609375 107.613281 42.714844 108.03125 42.6875 C 109.484375 42.601562 109.574219 41.660156 109.652344 40.480469 L 112.523438 40.929688 L 112.953125 39.355469 C 112.898438 39.394531 112.847656 39.429688 112.796875 39.464844 L 113.511719 38.632812 L 113.980469 39.304688 C 114.167969 39.03125 114.210938 38.78125 114.125 38.722656 C 113.386719 38.207031 114.015625 37.394531 113.699219 36.789062 C 113.691406 36.777344 114.101562 36.546875 114.316406 36.414062 C 114.507812 37.089844 114.761719 36.523438 114.847656 36.398438 C 115.007812 36.167969 115.066406 35.863281 115.226562 35.421875 L 114.671875 35.769531 C 114.417969 35.144531 114.078125 34.5 115.214844 34.125 L 114.4375 33.445312 C 114.445312 33.671875 114.53125 33.933594 114.445312 34.113281 C 114.324219 34.363281 114.074219 34.546875 113.726562 34.929688 C 113.324219 33.550781 114.390625 33.300781 114.71875 32.898438 L 114.128906 31.433594 C 113.335938 32.472656 112.574219 31.4375 111.757812 31.488281 L 111.210938 32.253906 L 112.855469 33.417969 C 112.984375 33.195312 113.117188 32.972656 113.097656 33 C 113.191406 33.984375 113.414062 35.144531 113.359375 36.289062 C 113.324219 36.957031 113.757812 37.765625 112.996094 38.363281 C 112.832031 38.488281 112.890625 38.894531 112.796875 39.464844 C 112.449219 39.707031 112.191406 39.910156 111.910156 40.050781 C 111.675781 40.167969 111.390625 40.183594 111.128906 40.246094 C 111.128906 40.003906 111.117188 39.765625 111.132812 39.523438 C 111.152344 39.132812 111.1875 38.742188 111.21875 38.351562 L 110.921875 38.25 L 109.96875 39.027344 L 110.070312 39.214844 L 111.070312 39.054688 L 110.175781 40.09375 L 108.882812 39.578125 L 109.125 39.046875 L 107.953125 39.046875 C 107.789062 37.835938 107.777344 37.832031 106.1875 37.957031 L 105.699219 37.445312 C 105.691406 37.441406 105.683594 37.4375 105.675781 37.433594 L 105.675781 37.421875 L 105.710938 37.449219 L 105.304688 36.535156 L 106.640625 36.535156 L 106.355469 37.089844 C 107.476562 37.628906 107.730469 36.90625 107.898438 36.125 L 106.777344 36.414062 L 106.648438 35.945312 C 107.289062 35.804688 107.929688 35.667969 108.570312 35.527344 C 108.886719 35.453125 109.25 35.4375 109.488281 35.261719 C 109.585938 35.1875 109.40625 34.75 109.34375 34.414062 L 108.253906 34.898438 C 107.988281 34.464844 108.214844 33.9375 108.859375 33.929688 C 109.59375 33.914062 110.289062 34.011719 110.769531 33.273438 C 110.832031 33.179688 111.167969 33.261719 111.378906 33.261719 L 110.675781 31.75 L 109.617188 32.542969 C 109.871094 32.738281 110.125 32.929688 110.378906 33.128906 C 109.367188 33.429688 108.988281 33.113281 109.09375 32.089844 C 109.109375 31.945312 109.027344 31.726562 108.914062 31.648438 C 108.804688 31.570312 108.484375 31.566406 108.457031 31.625 C 108.105469 32.359375 107.597656 32.515625 106.855469 32.21875 C 106.730469 32.167969 106.472656 32.457031 106.183594 32.652344 L 105.851562 31.25 L 107.554688 31.605469 L 107.683594 31.296875 L 107.375 30.800781 L 108.148438 30.414062 L 109.523438 31.335938 L 111.757812 29.253906 L 112.089844 29.253906 L 112.507812 30.667969 C 112.9375 29.21875 113.558594 28.933594 114.519531 29.65625 C 114.574219 29.699219 114.796875 29.53125 114.9375 29.449219 C 115.023438 29.394531 115.117188 29.253906 115.171875 29.269531 C 115.816406 29.457031 116.453125 29.324219 117.09375 29.253906 L 118.125 29.253906 C 118.898438 29.371094 119.097656 29.566406 119.019531 30.417969 L 119.621094 30.230469 L 119.269531 29.269531 L 122.988281 29.667969 C 122.988281 29.578125 123 29.539062 122.984375 29.511719 C 122.96875 29.488281 122.921875 29.492188 122.894531 29.472656 C 122.835938 29.429688 122.78125 29.382812 122.648438 29.273438 L 124.753906 29.273438 L 123.800781 29.65625 C 123.839844 30.460938 124.523438 30.410156 124.695312 30.011719 C 125.101562 29.0625 125.863281 29.3125 126.5 29.277344 C 126.726562 29.265625 126.949219 29.261719 127.175781 29.253906 L 130.328125 29.253906 C 130.652344 30.363281 131.617188 29.558594 132.136719 29.925781 L 131.886719 29.511719 C 132.066406 29.484375 132.328125 29.363281 132.414062 29.441406 C 132.90625 29.875 133.316406 30.167969 133.722656 29.332031 C 133.777344 29.21875 134.277344 29.320312 134.570312 29.347656 C 134.601562 29.351562 134.613281 29.535156 134.636719 29.632812 C 134.457031 29.65625 134.230469 29.621094 134.105469 29.71875 C 133.714844 30.019531 133.339844 30.351562 133.011719 30.714844 C 132.953125 30.78125 133.085938 31.132812 133.21875 31.226562 C 133.339844 31.3125 133.652344 31.304688 133.757812 31.207031 C 134.25 30.753906 134.699219 30.257812 135.210938 29.726562 L 135.597656 30.523438 L 135.664062 29.96875 L 147.953125 67.945312 L 147.953125 29.308594 C 148.515625 29.347656 149.070312 29.355469 149.644531 29.28125 C 149.75 29.265625 149.863281 29.261719 149.96875 29.253906 L 152.253906 29.253906 L 151.785156 29.816406 C 151.929688 29.839844 152.082031 29.90625 152.121094 29.867188 C 152.464844 29.5 152.847656 29.328125 153.246094 29.253906 L 154.671875 29.253906 C 154.925781 29.277344 155.175781 29.296875 155.421875 29.292969 C 157.019531 29.261719 158.621094 29.519531 160.222656 29.5625 C 160.910156 29.578125 161.601562 29.316406 162.296875 29.277344 C 162.617188 29.257812 162.941406 29.496094 163.277344 29.558594 C 163.421875 29.585938 163.59375 29.421875 163.757812 29.417969 C 164.4375 29.410156 165.128906 29.375 165.789062 29.492188 C 165.917969 29.511719 165.976562 30.164062 165.996094 30.527344 C 166.007812 30.753906 165.882812 30.984375 165.816406 31.214844 L 166.066406 31.320312 L 166.628906 30.640625 L 166.628906 32.066406 L 166.378906 32.914062 L 166.628906 32.824219 L 166.628906 47.394531 C 166.570312 47.601562 166.550781 47.769531 166.625 47.832031 L 166.625 99.105469 L 165.875 99.726562 Z M 110.910156 35.421875 C 110.601562 35.460938 110.28125 35.453125 110 35.558594 C 109.890625 35.601562 109.792969 35.9375 109.847656 36.074219 C 109.941406 36.3125 110.226562 36.710938 110.3125 36.683594 C 111.554688 36.277344 111.390625 36.996094 111.21875 37.757812 C 111.191406 37.878906 111.253906 38.019531 111.300781 38.320312 C 111.769531 37.78125 111.90625 37.191406 112.574219 36.996094 C 112.847656 36.917969 112.910156 36.128906 113.0625 35.679688 C 111.988281 35.261719 111.832031 34.648438 112.417969 33.636719 C 110.636719 33.367188 111.933594 35.347656 110.910156 35.421875 Z M 108.464844 94.1875 C 106.75 94.566406 106.652344 94.640625 106.554688 95.574219 L 107.40625 95.402344 L 107.40625 96.148438 Z M 114.046875 104.902344 C 113.878906 104.484375 113.789062 103.777344 113.53125 103.710938 C 112.988281 103.570312 112.355469 103.765625 111.761719 103.820312 L 111.796875 104.105469 C 112.828125 104.1875 113.578125 104.457031 114.046875 104.902344 Z M 148.210938 62.9375 C 148.226562 63.101562 148.445312 63.242188 148.695312 63.546875 L 148.648438 62.515625 L 149.515625 62.320312 C 149.121094 61.609375 148.710938 61.742188 148.363281 62.175781 C 148.21875 62.359375 148.183594 62.6875 148.210938 62.9375 Z M 149.277344 70.5625 C 150.832031 71.214844 150.617188 69.964844 151.105469 69.566406 C 150.980469 69.449219 150.761719 69.222656 150.746094 69.234375 C 150.273438 69.636719 149.820312 70.0625 149.277344 70.5625 Z M 134.742188 57.746094 L 135.878906 59.375 L 136.65625 58.757812 L 136.21875 58.203125 L 135.921875 58.695312 L 135.652344 58.566406 L 135.960938 57.746094 Z M 129.34375 52.113281 L 130.511719 53.078125 L 130.996094 52.972656 C 129.417969 52.203125 130.761719 51.441406 130.71875 50.675781 L 130.355469 50.503906 Z M 119.363281 94.332031 C 119.722656 93.828125 120.171875 93.394531 120.832031 94.132812 C 120.953125 93.949219 121.039062 93.871094 121.054688 93.78125 C 121.222656 92.800781 121.21875 92.820312 122.210938 93.019531 C 122.328125 93.042969 122.550781 92.675781 122.671875 92.460938 C 122.75 92.324219 122.664062 92.070312 122.761719 91.976562 C 123.457031 91.292969 123.347656 90.660156 122.742188 89.902344 L 124.136719 90.351562 L 124.136719 88.925781 L 123.480469 89.613281 L 122.730469 89.269531 L 123.390625 88.734375 L 123.179688 88.480469 C 122.96875 88.660156 122.660156 88.796875 122.5625 89.023438 C 122.230469 89.804688 121.71875 90.636719 122.925781 91.359375 L 121.933594 92.054688 L 121.640625 91.265625 C 121.367188 91.609375 120.988281 91.859375 120.976562 92.128906 C 120.9375 92.910156 120.507812 93.148438 119.851562 93.367188 C 119.507812 93.480469 119.066406 93.929688 119.046875 94.253906 C 118.988281 95.132812 119.269531 96.027344 118.722656 96.933594 L 120.421875 96.933594 L 120.425781 96.769531 C 120.160156 96.6875 119.890625 96.609375 119.917969 96.617188 Z M 120.210938 90.792969 L 120.070312 91.367188 L 120.347656 91.417969 C 120.492188 90.777344 121.386719 90.1875 120.460938 89.578125 L 119.261719 90.101562 Z M 117.808594 64.40625 L 116.898438 65.15625 L 118.113281 66.023438 C 118.335938 65.425781 119.070312 64.742188 117.808594 64.40625 Z M 116.820312 66.707031 C 117.332031 64.820312 115.515625 66.460938 115.261719 65.699219 L 115.261719 66.390625 Z M 114.578125 66.414062 C 114.34375 67.25 114.550781 67.84375 115.335938 68.058594 L 115.230469 66.414062 Z M 119.144531 62.734375 C 119.265625 61.558594 118.625 61.324219 117.742188 61.347656 L 117.863281 60.464844 L 116.160156 60.976562 L 116.40625 58.910156 C 115.582031 58.839844 115.304688 59.289062 115.671875 60.167969 L 114.703125 60.746094 C 115.175781 60.996094 115.488281 61.164062 115.800781 61.328125 L 115.800781 61.3125 L 117.785156 61.800781 L 117.726562 62.140625 L 116.75 62.582031 L 116.75 62.050781 L 116.105469 62.332031 L 116.785156 64 L 117.808594 63.359375 L 117.710938 63.132812 L 117.148438 63.132812 L 117.101562 62.980469 L 118.503906 62.238281 Z M 119.035156 64.882812 L 120.332031 64.628906 L 120.453125 64.910156 C 120.238281 65.085938 120.023438 65.265625 119.8125 65.445312 L 120.859375 65.15625 C 120.675781 64.671875 120.546875 63.820312 120.300781 63.785156 C 119.675781 63.695312 119.054688 64.03125 119.035156 64.882812 Z M 119.113281 67.027344 C 119.890625 66.925781 120.699219 67.359375 120.929688 66.136719 C 120.082031 66.515625 119.800781 66.167969 119.746094 65.519531 Z M 119.179688 68.320312 L 121.40625 68.988281 L 121.433594 68.652344 C 121.117188 68.445312 120.660156 68.3125 120.507812 68.019531 C 120.195312 67.425781 120.269531 67.394531 119.851562 67.789062 C 119.65625 67.972656 119.429688 68.125 119.179688 68.320312 Z M 121.441406 61.21875 L 120.082031 60.234375 L 119.226562 61.21875 Z M 120.640625 51.21875 C 120.574219 50.585938 120.667969 50.019531 120.445312 49.636719 C 119.921875 48.746094 119.589844 50.261719 118.941406 49.953125 Z M 119.632812 51.410156 C 118.957031 51.433594 118.289062 51.492188 117.617188 51.539062 L 117.636719 52.097656 L 119.15625 51.960938 L 119.3125 52.613281 C 119.574219 52.210938 119.765625 51.925781 119.933594 51.625 C 119.941406 51.609375 119.734375 51.40625 119.632812 51.410156 Z M 122.367188 56.015625 L 121.542969 54.859375 L 120.730469 55.472656 C 121.191406 55.902344 121.34375 57.113281 122.367188 56.015625 Z M 121.542969 52.730469 L 122.425781 51.277344 L 121.085938 51.386719 Z M 123.109375 51.300781 C 123.207031 50.691406 123.003906 50.035156 122.929688 49.398438 C 122.535156 49.441406 122.253906 50.222656 122.425781 51.277344 C 122.402344 51.476562 122.398438 51.683594 122.347656 51.878906 C 122.269531 52.195312 122.15625 52.507812 122.054688 52.824219 L 122.34375 52.917969 C 122.609375 52.378906 123.019531 51.867188 123.109375 51.300781 Z M 123.53125 46.507812 L 123.113281 45.632812 L 122.449219 45.886719 C 122.441406 45.320312 123.035156 44.589844 121.945312 44.574219 L 122.5625 46.882812 Z M 126.910156 57.164062 C 127.210938 57.472656 127.777344 57.097656 128.601562 56.03125 L 127.84375 56.03125 L 127.554688 55.132812 C 126.867188 55.765625 128.449219 56.863281 126.910156 57.164062 Z M 129.234375 47.566406 C 129.257812 47.578125 129.675781 47.125 129.625 47.003906 C 129.320312 46.222656 128.695312 46.234375 127.917969 46.714844 C 128.351562 47.007812 128.777344 47.3125 129.234375 47.566406 Z M 127.207031 83.058594 C 126.511719 82.46875 126.164062 82.601562 126.042969 83.398438 C 126.019531 83.550781 125.953125 83.796875 125.859375 83.820312 C 124.882812 84.082031 125.515625 84.605469 125.589844 84.816406 L 124.621094 86.277344 L 124.914062 86.523438 C 125.175781 85.765625 126.601562 86.109375 126.324219 85.015625 C 126.074219 84.035156 126.5 83.546875 127.207031 83.058594 Z M 126.835938 70.421875 C 126.058594 71.316406 124.253906 70.570312 124.09375 72.074219 L 125.1875 73.484375 L 125.871094 71.847656 C 126.035156 72.050781 126.191406 72.261719 126.347656 72.464844 L 127.601562 69.738281 C 126.617188 69.390625 126.140625 69.609375 126.238281 70.542969 Z M 126.835938 74.070312 L 125.148438 74.652344 L 126.285156 75.382812 L 127.007812 74.339844 Z M 124.785156 79.648438 C 124.875 80.386719 125.410156 80.667969 126.386719 80.492188 Z M 127.386719 81.320312 L 128.1875 77.96875 C 127.660156 78.574219 127.140625 79.125 126.675781 79.71875 C 126.515625 79.925781 126.484375 80.230469 126.398438 80.488281 C 127.046875 80.003906 127.203125 80.507812 127.386719 81.320312 Z M 125.9375 63.269531 L 126.167969 65.121094 L 127.222656 63.722656 Z M 125.898438 56.816406 C 125.566406 57.035156 125.246094 57.269531 124.902344 57.46875 C 124.710938 57.578125 124.480469 57.628906 124.269531 57.707031 L 124.761719 58.609375 L 126.144531 56.960938 Z M 125.929688 42.855469 L 126.320312 42.546875 C 126.171875 42.328125 126.0625 41.980469 125.863281 41.914062 C 125.304688 41.71875 124.710938 41.644531 124.183594 41.53125 L 124.511719 43.890625 C 125.382812 43.902344 124.644531 42.285156 125.472656 42.304688 Z M 124.183594 61.714844 C 123.953125 61.71875 123.59375 61.863281 123.402344 62.09375 L 125.417969 62.28125 L 125.488281 61.988281 L 124.925781 61.472656 L 125.246094 60.707031 L 125.054688 60.53125 C 124.792969 60.789062 124.480469 61.011719 124.300781 61.316406 C 124.226562 61.449219 124.316406 61.710938 124.183594 61.714844 Z M 123.339844 69.730469 L 124.480469 70.324219 C 124.789062 69.269531 124.632812 68.511719 124.007812 68.042969 L 123.871094 69.421875 L 123.644531 69.378906 C 123.625 69.316406 123.621094 69.230469 123.574219 69.199219 C 123.535156 69.167969 123.394531 69.191406 123.394531 69.203125 C 123.359375 69.476562 123.339844 69.753906 123.339844 69.730469 Z M 123.246094 82.59375 C 123.394531 82.882812 124.738281 83.84375 124.773438 83.910156 L 125.078125 83.875 C 125.003906 83.449219 125.042969 82.742188 124.828125 82.652344 C 124.371094 82.464844 123.78125 82.59375 123.246094 82.59375 Z M 122.269531 83.828125 C 123.371094 84.601562 124.140625 84.339844 124.148438 83.46875 Z M 124.53125 93.707031 L 124.378906 92.917969 C 123.96875 93.09375 123.507812 93.179688 123.21875 93.449219 C 122.921875 93.726562 122.796875 94.1875 122.59375 94.566406 L 122.945312 94.890625 C 122.8125 93.324219 124.136719 94.34375 124.53125 93.707031 Z M 123.355469 100.824219 L 122.433594 102.242188 C 122.828125 102.308594 123.316406 102.4375 123.335938 102.390625 C 123.503906 101.933594 123.589844 101.449219 123.703125 100.972656 Z M 124.15625 95.25 L 125.703125 95.707031 L 125.605469 94.59375 L 124.238281 94.953125 Z M 125.789062 91.351562 C 126.542969 90.992188 127.140625 89.707031 126.980469 88.851562 L 128.511719 89.367188 L 128.640625 89.070312 L 126.738281 88.023438 C 126.742188 88.046875 126.703125 87.820312 126.660156 87.574219 L 126.007812 87.769531 C 126.503906 88.167969 126.828125 88.464844 126.105469 88.984375 C 125.6875 89.289062 125.488281 89.851562 126.265625 90.316406 C 125.960938 90.4375 125.695312 90.476562 125.546875 90.628906 C 125.417969 90.761719 125.402344 91.023438 125.394531 91.230469 C 125.390625 91.269531 125.691406 91.398438 125.789062 91.351562 Z M 127.582031 91.855469 C 127.535156 92.367188 127.0625 92.839844 126.773438 93.324219 L 126.96875 93.574219 C 127.484375 92.796875 128.078125 92.832031 128.789062 93.175781 L 128.523438 92.410156 L 127.917969 92.59375 L 127.789062 92.386719 L 128.777344 91.535156 L 128.359375 90.738281 L 126.886719 90.738281 C 127.09375 91.046875 127.613281 91.476562 127.582031 91.855469 Z M 129.191406 80.734375 C 129.703125 80.585938 130.148438 80.183594 130.769531 79.78125 L 128.207031 79.78125 C 128.644531 80.226562 129.007812 80.789062 129.191406 80.734375 Z M 130.832031 67.113281 L 130.773438 66.949219 L 129.523438 67.082031 L 129 68.460938 Z M 129.53125 34.125 C 129.300781 34.304688 129.082031 34.5 128.835938 34.65625 C 128.789062 34.683594 128.628906 34.566406 128.542969 34.492188 C 128.421875 34.390625 128.324219 34.261719 128.214844 34.148438 C 128.164062 34.316406 128.019531 34.53125 128.078125 34.648438 C 128.25 35.003906 128.5 35.320312 128.84375 35.835938 L 129.742188 34.265625 Z M 127.179688 33.285156 C 127.632812 33.492188 128.074219 33.730469 128.542969 33.898438 C 128.707031 33.957031 128.933594 33.84375 129.128906 33.808594 C 129.046875 33.621094 129.003906 33.308594 128.878906 33.273438 C 128.335938 33.117188 127.769531 33.042969 127.214844 32.941406 Z M 126.039062 38.945312 L 125.484375 39.613281 L 125.800781 39.90625 L 127.75 37.996094 C 127.367188 37.550781 126.773438 37.089844 126.070312 37.601562 C 125.867188 37.75 126.039062 38.410156 126.039062 38.945312 Z M 124.554688 35.667969 L 125.292969 33.574219 C 124.777344 34.125 123.464844 34.355469 124.554688 35.667969 Z M 123.613281 49.050781 C 124.238281 48.785156 125.601562 49.039062 124.613281 47.5 L 125.585938 47.289062 C 124.9375 46.660156 124.402344 46.753906 124.113281 47.292969 C 123.832031 47.816406 123.773438 48.460938 123.613281 49.050781 Z M 122.621094 30.984375 L 121.03125 31.890625 L 121.1875 32.179688 L 123.640625 31.210938 L 122.503906 30.757812 Z M 118.226562 34.652344 C 117.355469 34.855469 117.992188 35.957031 117.933594 36.65625 C 117.28125 36.769531 116.980469 37.285156 117.035156 38.207031 L 115.910156 38.082031 C 117.101562 38.675781 117.582031 38.550781 117.910156 37.375 C 118.203125 36.339844 119.078125 36.769531 119.617188 36.582031 C 120.191406 36.378906 120.976562 36.777344 121.757812 36.929688 C 121.699219 36.496094 121.710938 36.207031 121.605469 35.96875 C 121.554688 35.855469 121.136719 35.824219 121.140625 35.78125 C 121.183594 35.398438 121.339844 35.015625 121.328125 34.640625 C 121.324219 34.5 120.964844 34.371094 120.769531 34.234375 C 121 34 121.234375 33.765625 121.457031 33.523438 C 121.492188 33.484375 121.460938 33.394531 121.460938 33.269531 C 121.296875 33.253906 121.128906 33.226562 120.96875 33.238281 C 120.902344 33.238281 120.824219 33.3125 120.78125 33.375 C 120.589844 33.65625 120.410156 33.949219 120.226562 34.238281 L 120.253906 34.269531 L 120.238281 34.257812 C 119.453125 33.570312 118.851562 34.503906 118.226562 34.652344 Z M 117.191406 39.429688 L 118.097656 39.160156 L 118.679688 38.085938 C 117.898438 37.75 117.425781 38.183594 117.191406 39.429688 Z M 116.230469 34.445312 C 116.398438 34.371094 116.578125 34.242188 116.675781 34.085938 C 116.84375 33.824219 116.9375 33.519531 117.082031 33.238281 C 117.246094 32.925781 117.433594 32.621094 117.605469 32.3125 L 117.292969 32.144531 C 116.90625 32.707031 116.511719 33.265625 116.132812 33.835938 C 116.035156 33.980469 115.972656 34.148438 115.894531 34.308594 C 116.007812 34.359375 116.152344 34.480469 116.230469 34.445312 Z M 115.253906 31.660156 L 116.292969 31.15625 L 118.152344 31.15625 L 118.1875 30.785156 L 116.921875 30.277344 L 116.308594 29.515625 L 114.949219 31.351562 Z M 113.3125 39.972656 L 113.511719 40.203125 L 116.035156 40.644531 L 116.171875 40.40625 L 114.597656 39.375 Z M 112.039062 41.339844 L 111.023438 42.910156 L 110.613281 42.855469 L 111.128906 44.644531 L 112.957031 43.105469 C 113.121094 43.566406 113.210938 44.023438 113.4375 44.402344 C 113.640625 44.742188 113.992188 44.996094 114.28125 45.289062 L 114.746094 44.597656 L 113.542969 44.359375 L 114.230469 43.210938 C 115.101562 43.449219 115.941406 43.71875 115.796875 45 L 117.648438 43.582031 C 116.332031 42.011719 118.773438 42.65625 118.488281 41.589844 C 118.027344 41.832031 117.589844 42.109375 117.113281 42.292969 C 116.632812 42.480469 116.117188 42.578125 115.585938 42.722656 L 115.164062 41.050781 C 114.910156 41.339844 114.910156 41.671875 114.800781 41.96875 C 114.640625 42.40625 114.402344 42.816406 114.199219 43.242188 C 114.222656 41.953125 113.097656 42.847656 112.824219 42.507812 L 111.734375 43.710938 L 111.613281 43.527344 L 112.25 41.429688 Z M 109.699219 42.585938 L 111.191406 42.148438 L 110.027344 41.265625 Z M 108.851562 44.082031 L 108.792969 44.785156 L 110.007812 44.613281 L 110.007812 43.621094 C 109.660156 43.355469 108.847656 44.226562 108.976562 42.832031 L 107.769531 43.878906 L 107.917969 44.082031 Z M 109.816406 46.894531 L 109.472656 47.582031 L 110.238281 47.824219 L 110.980469 46.945312 L 110.074219 46.691406 L 110.3125 46.507812 C 110 46.082031 109.71875 45.625 109.347656 45.253906 C 109.234375 45.140625 108.878906 45.269531 108.433594 45.296875 C 110.042969 46.191406 108.175781 46.125 108.28125 46.34375 L 108.957031 47.164062 L 109.671875 46.734375 Z M 116.417969 49.613281 C 116.40625 49.320312 116.335938 49.011719 116.199219 48.753906 C 116.140625 48.644531 115.746094 48.566406 115.722656 48.605469 C 115.339844 49.222656 115.175781 48.683594 114.886719 48.503906 C 114.53125 48.28125 114.105469 48.167969 113.648438 47.984375 L 113.511719 49.035156 C 113.011719 48.871094 112.585938 48.71875 112.152344 48.589844 C 112.023438 48.550781 111.875 48.570312 111.738281 48.5625 C 111.757812 48.402344 111.714844 48.160156 111.804688 48.085938 C 112.394531 47.621094 113.011719 47.195312 113.769531 46.648438 C 113.167969 46.445312 112.589844 46.171875 111.984375 46.09375 C 111.757812 46.0625 111.472656 46.496094 111.210938 46.71875 L 111.320312 46.855469 L 112.242188 46.550781 L 112.371094 46.820312 C 111.894531 47.117188 111.804688 47.96875 110.871094 47.640625 C 110.707031 47.585938 110.46875 47.75 110.257812 47.835938 C 110.417969 47.972656 110.574219 48.121094 110.75 48.242188 C 110.914062 48.355469 111.09375 48.445312 111.269531 48.542969 L 110.6875 48.9375 L 111.792969 49.59375 C 112.382812 49.035156 112.789062 49.132812 113.171875 49.886719 C 113.265625 50.070312 113.464844 50.203125 113.617188 50.355469 L 113.777344 50.15625 L 113.363281 49.644531 L 114.597656 49.242188 L 114.355469 50.441406 C 114.925781 50.234375 115.4375 50.054688 115.945312 49.859375 C 116.117188 49.792969 116.421875 49.6875 116.417969 49.613281 Z M 118.152344 48.523438 C 118.171875 48.484375 118.261719 48.238281 118.40625 48.039062 C 118.570312 47.816406 118.789062 47.636719 118.984375 47.441406 L 118.269531 47.082031 C 118.269531 46.980469 118.273438 46.886719 118.269531 46.792969 C 118.25 46.34375 117.785156 45.585938 118.890625 45.898438 C 118.90625 45.902344 119.140625 45.457031 119.074219 45.367188 C 118.4375 44.492188 119.039062 43.929688 119.753906 43.066406 L 118.488281 43.179688 L 118.546875 42.367188 C 117.796875 43.398438 117.820312 44.378906 118.539062 45.066406 L 116.703125 46.613281 C 115.992188 46.667969 115.632812 46.367188 115.625 45.609375 C 115.550781 46.019531 115.679688 46.359375 115.691406 46.699219 C 115.703125 47.097656 115.617188 47.496094 115.554688 48.058594 L 116.710938 48.058594 Z M 114.777344 57.15625 L 114.695312 57.335938 L 115.675781 58.589844 C 115.972656 58.566406 116.429688 58.390625 116.757812 58.53125 C 117.507812 58.847656 117.722656 58.535156 117.828125 57.925781 L 117.03125 58.058594 C 117.035156 57.910156 117 57.738281 117.054688 57.613281 C 117.28125 57.121094 117.535156 56.640625 117.707031 56.300781 C 117.972656 56.359375 118.371094 56.417969 118.746094 56.542969 C 118.933594 56.605469 119.164062 56.761719 119.226562 56.933594 C 119.605469 57.945312 119.890625 58.117188 120.378906 57.78125 L 119.675781 56.269531 L 118.730469 56.117188 C 119.246094 55.839844 119.289062 55.308594 118.859375 54.523438 C 118.390625 54.820312 117.964844 55.316406 117.582031 55.285156 C 116.613281 55.210938 116.300781 55.699219 116.007812 56.519531 L 115.648438 55.671875 L 115.042969 56.351562 L 116.257812 57.503906 L 116.160156 57.675781 Z M 111.75 54.054688 C 111.449219 54.652344 111.066406 55.0625 111.144531 55.347656 C 111.230469 55.667969 111.738281 55.875 112.191406 56.234375 C 112.894531 55.316406 111.855469 54.933594 111.75 54.054688 Z M 114.703125 54.539062 L 114.648438 54.175781 L 112.84375 54.390625 L 112.984375 53.726562 L 112.613281 53.371094 L 112.335938 53.425781 C 112.460938 53.917969 112.554688 54.816406 112.714844 54.832031 C 113.367188 54.882812 114.039062 54.660156 114.703125 54.539062 Z M 113.652344 61.21875 C 113.921875 61.523438 113.675781 62.675781 114.265625 62.078125 C 114.980469 61.355469 115.183594 61.773438 115.800781 62.449219 L 115.800781 61.34375 Z M 109.320312 63.128906 L 110.421875 63.90625 L 109.421875 64.511719 L 110.820312 64.710938 C 110.816406 64.699219 110.8125 64.691406 110.808594 64.683594 L 112.339844 64.453125 L 111.273438 62.890625 C 111.207031 62.746094 111.050781 62.558594 111.09375 62.464844 C 111.492188 61.578125 110.894531 61.257812 110.28125 60.9375 Z M 111.597656 68.6875 L 111.414062 67.503906 L 110.371094 67.363281 C 110.460938 66.839844 110.390625 66.234375 110.65625 65.957031 C 111.082031 65.511719 110.996094 65.15625 110.824219 64.722656 L 109.425781 65.777344 C 110.445312 66.214844 109.34375 66.699219 109.433594 67.195312 L 110.171875 67.585938 L 108.058594 68.210938 L 108.527344 69.21875 Z M 112.070312 73.0625 L 110.808594 71.648438 L 111.894531 71.464844 C 111.519531 71.269531 111.332031 71.167969 111.140625 71.066406 C 111.148438 71.074219 111.152344 71.082031 111.15625 71.089844 C 110.46875 71.339844 110.167969 71.722656 110.546875 72.480469 C 110.652344 72.695312 110.523438 73.050781 110.445312 73.320312 C 110.414062 73.425781 110.222656 73.484375 109.949219 73.664062 C 110.886719 73.710938 111.789062 74.390625 112.070312 73.0625 Z M 112.433594 70.011719 L 111.1875 70.273438 L 111.109375 70.042969 L 112.0625 69.152344 L 110.097656 69.652344 L 111.136719 71.058594 L 112.292969 70.402344 L 112.292969 71.648438 C 113.347656 71.042969 112.269531 70.515625 112.433594 70.011719 Z M 112.820312 67.730469 C 113.015625 67.609375 113.238281 67.542969 113.304688 67.511719 C 113.585938 68.003906 113.820312 68.4375 114.09375 68.847656 C 114.105469 68.867188 114.457031 68.65625 114.457031 68.65625 L 113.574219 66.816406 C 113.28125 66.90625 112.964844 67.101562 112.703125 67.046875 C 112.476562 66.996094 112.316406 66.65625 112.113281 66.453125 C 111.960938 66.304688 111.792969 66.171875 111.636719 66.035156 L 111.507812 66.195312 C 111.691406 66.628906 111.890625 67.0625 112.050781 67.503906 C 112.128906 67.726562 112.140625 67.976562 112.179688 68.210938 C 112.390625 68.050781 112.59375 67.867188 112.820312 67.730469 Z M 114.53125 71.667969 L 113.183594 71.171875 L 113.320312 72.640625 Z M 116.3125 71.550781 C 115.800781 71.996094 114.765625 71.046875 114.601562 72.386719 L 115.386719 72.128906 L 115.492188 72.375 L 114.332031 72.851562 L 115.019531 74.222656 L 115.953125 73.375 C 115.074219 72.601562 116.246094 72.25 116.3125 71.550781 Z M 118.195312 66.042969 C 118.164062 66.046875 118.128906 66.054688 118.097656 66.054688 L 118.105469 66.039062 L 116.820312 66.707031 L 117.007812 69.378906 C 115.542969 68.921875 115.359375 69.027344 115.332031 70.171875 C 115.59375 70.058594 115.851562 69.847656 116.082031 69.871094 C 117.203125 69.988281 117.621094 69 118.007812 68.378906 C 118.375 67.789062 118.15625 66.835938 118.195312 66.042969 Z M 119.582031 74.476562 L 118.5 74.238281 L 118.3125 75.625 L 119.40625 75.164062 Z M 119.734375 68.765625 L 118.777344 69.058594 L 118.804688 69.242188 L 119.429688 69.378906 L 118.722656 70.578125 C 119.847656 70.113281 120.144531 69.417969 119.734375 68.765625 Z M 122.117188 72.21875 L 120.253906 72.4375 L 120.738281 73.722656 C 121.363281 73.769531 121.480469 72.910156 122.117188 72.21875 Z M 122.90625 69.894531 C 122.921875 69.050781 122.777344 68.390625 121.785156 68.285156 L 121.617188 69.308594 C 122.808594 68.863281 121.847656 69.839844 122.105469 70.066406 Z M 123.179688 55.785156 C 122.871094 56.472656 121.867188 56.761719 122.007812 57.691406 C 122.148438 56.890625 123.703125 56.96875 123.179688 55.785156 Z M 122.324219 80.863281 L 123.402344 79.507812 L 122.054688 79.746094 L 121.984375 79.589844 L 123.636719 78.621094 L 123.421875 78.164062 C 122.859375 78.332031 121.984375 78.347656 121.808594 78.707031 C 121.496094 79.339844 121.3125 80.25 122.324219 80.863281 Z M 121.027344 82.28125 C 121.226562 82.480469 121.414062 82.683594 121.613281 82.871094 C 121.726562 82.980469 121.851562 83.128906 121.984375 83.148438 C 122.105469 83.164062 122.347656 83.035156 122.355469 82.949219 C 122.382812 82.75 122.367188 82.472656 122.242188 82.339844 C 122.050781 82.132812 121.761719 82.011719 121.503906 81.867188 C 121.386719 81.800781 121.253906 81.761719 121.125 81.707031 Z M 121.394531 87.667969 L 121.714844 84.316406 L 121.4375 84.367188 C 121.191406 84.988281 120.625 85.707031 120.78125 86.195312 C 120.925781 86.632812 120.074219 87.707031 121.394531 87.667969 Z M 120.480469 87.4375 C 119.898438 87.335938 119.410156 87.117188 118.984375 87.203125 C 118.042969 87.394531 117.953125 87.601562 118.101562 88.460938 C 118.667969 87.863281 119.234375 87.453125 119.765625 88.78125 Z M 119.09375 83.339844 L 118.132812 83.398438 L 118.667969 84.492188 L 119.984375 82.433594 C 119.316406 82.570312 119.371094 81.25 118.660156 82.09375 C 118.535156 82.242188 118.894531 82.792969 119.09375 83.339844 Z M 117.277344 86.53125 L 117.390625 86.765625 L 119.351562 86.53125 L 119.617188 85.382812 Z M 117.332031 90.574219 L 116.996094 90.640625 L 116.480469 89.371094 L 116.265625 89.359375 L 115.953125 91.558594 L 116.304688 91.667969 Z M 115.648438 94.261719 L 116.828125 95.382812 L 116.648438 92.726562 Z M 114.78125 95.863281 L 114.503906 95.484375 L 115.308594 94.644531 L 115.109375 94.488281 L 113.96875 94.652344 C 114.191406 95.378906 114.199219 95.996094 113.371094 96.253906 L 113.371094 97.265625 Z M 115.128906 99.140625 L 114.101562 98.65625 C 114.714844 98.410156 115.054688 98.214844 115.414062 98.171875 C 115.507812 98.160156 115.660156 98.601562 115.820312 98.890625 L 116.621094 98.3125 L 115.945312 97.945312 L 115.835938 96.269531 L 113.863281 98.363281 L 113.660156 97.984375 L 113.417969 98.058594 L 113.878906 99.523438 Z M 115.769531 102.441406 L 115.054688 101.269531 L 114.351562 102.742188 Z M 116.753906 100.117188 L 119.035156 99.488281 L 119.042969 99.296875 L 116.585938 99.058594 C 115.996094 99.503906 116.949219 100.757812 115.414062 100.730469 L 116.613281 101.171875 Z M 117.785156 101.222656 L 118.792969 100.144531 C 118.144531 100.015625 117.441406 99.910156 117.144531 100.8125 Z M 115.050781 110.035156 L 113.738281 110.957031 L 114.199219 111.878906 C 114.285156 111.78125 114.371094 111.6875 114.445312 111.585938 C 114.636719 111.324219 114.816406 111.054688 115 110.792969 L 115.203125 110.910156 L 115.164062 111.261719 L 116.339844 111.765625 C 116.992188 110.375 114.996094 110.953125 115.050781 110.035156 Z M 117.667969 111.894531 C 116.472656 112.390625 116.457031 112.398438 116.507812 113.34375 C 117.640625 113.476562 117.535156 112.640625 117.667969 111.894531 Z M 118.417969 109.875 L 117.566406 109.75 L 118.085938 108.917969 L 116.746094 108.605469 L 116.746094 108.4375 L 115.296875 108.671875 L 115.273438 108.878906 L 116.734375 109.121094 C 116.46875 109.238281 116.230469 109.273438 116.132812 109.410156 C 115.960938 109.644531 115.875 109.941406 115.753906 110.214844 L 116.023438 110.332031 L 116.148438 109.636719 L 116.40625 109.503906 L 117.167969 110.742188 L 117.320312 110.269531 C 117.683594 110.363281 117.941406 110.464844 118.199219 110.464844 C 118.261719 110.464844 118.328125 110.132812 118.417969 109.875 Z M 121.425781 107.449219 L 120.71875 106.511719 L 119.511719 107.203125 L 120.390625 107.519531 L 119.058594 108.015625 C 118.878906 107.207031 117.695312 106.265625 116.945312 106.378906 L 116.945312 107.691406 L 118.003906 107 L 117.785156 108.277344 L 118.960938 108.457031 L 118.277344 109.523438 C 119.238281 109.96875 119.296875 109.921875 119.308594 108.886719 C 119.308594 108.707031 119.5 108.464844 119.667969 108.367188 C 120.210938 108.042969 120.789062 107.777344 121.425781 107.449219 Z M 124.308594 113.035156 L 123.070312 111.644531 L 122.265625 112.472656 Z M 124.867188 103.550781 L 123.882812 104.035156 C 123.984375 104.5 124.234375 104.886719 123.40625 104.871094 C 123.101562 104.863281 122.726562 105.488281 122.496094 105.890625 C 122.34375 106.15625 122.507812 106.628906 122.332031 106.855469 C 121.578125 107.835938 120.746094 108.761719 119.945312 109.707031 L 120.019531 109.90625 L 122.507812 109.058594 L 122.945312 107.800781 L 122.796875 107.675781 L 121.695312 108.585938 C 121.746094 108.144531 121.832031 107.621094 122.105469 107.484375 C 123.050781 107.015625 123.464844 106.355469 123.128906 105.269531 L 124.011719 105.191406 Z M 124.957031 98.21875 L 125.617188 97.207031 L 126.484375 96.902344 C 125.125 96.996094 124.617188 97.433594 124.957031 98.21875 Z M 126.859375 114.683594 L 125.230469 113.582031 C 125.164062 113.867188 125.011719 114.238281 125.078125 114.285156 C 125.492188 114.5625 125.945312 114.789062 126.410156 114.96875 C 126.507812 115.007812 126.707031 114.785156 126.859375 114.683594 Z M 127.476562 103.878906 L 126.742188 103.878906 L 126.59375 103.65625 L 127.03125 103.503906 L 126.15625 102.398438 C 126.074219 102.421875 125.839844 102.476562 125.617188 102.5625 C 125.53125 102.59375 125.4375 102.683594 125.40625 102.769531 C 125.371094 102.867188 125.40625 102.984375 125.410156 103.097656 C 126.285156 102.828125 126.125 103.785156 126.539062 104.039062 C 126.769531 104.183594 127.097656 104.164062 127.386719 104.207031 C 127.398438 104.207031 127.429688 104.050781 127.476562 103.878906 Z M 128.242188 100.421875 L 126.738281 99.195312 L 126.125 100.140625 Z M 130.148438 106.582031 C 130.042969 106.351562 129.484375 106.171875 129.171875 106.226562 C 128.699219 106.308594 128.128906 106.523438 128.527344 107.359375 L 129.359375 106.453125 L 129.675781 107.628906 L 129.941406 107.667969 C 130.027344 107.296875 130.273438 106.855469 130.148438 106.582031 Z M 130.433594 94.875 L 131.875 95.941406 L 132.613281 94.96875 L 132.109375 94.300781 L 131.726562 94.757812 C 131.105469 94.695312 130.601562 94.519531 130.183594 94.640625 C 129.730469 94.765625 129.355469 95.167969 128.886719 95.492188 C 129.535156 96.105469 130.050781 95.921875 130.433594 94.875 Z M 132.929688 102.542969 L 132.847656 102.351562 L 131.796875 102.160156 L 132.3125 101.4375 L 132.207031 101.160156 L 130.683594 101.816406 L 130.578125 102.152344 C 131.722656 101.613281 131.644531 102.285156 131.53125 103.089844 Z M 132.507812 91.660156 C 132.316406 91.792969 132.121094 91.925781 131.933594 92.066406 C 131.6875 92.257812 131.449219 92.457031 131.199219 92.660156 C 132.039062 93.628906 132.53125 92.886719 133.082031 92.515625 L 132.058594 92.457031 L 132.753906 92.019531 Z M 134.132812 45.273438 L 133.59375 44.921875 L 132.429688 46.019531 L 133.675781 46.464844 L 133.382812 47.296875 L 133.695312 47.371094 Z M 134.648438 51.964844 L 134.03125 53.007812 C 134.425781 53.007812 134.695312 53.007812 134.671875 53.007812 L 135.566406 51.125 L 134.386719 51.507812 L 135.445312 50.273438 L 134.558594 50.375 L 134.125 51.699219 Z M 136.507812 60.636719 L 136.109375 60.65625 L 136.214844 62.335938 L 135.144531 62.636719 L 135 61.941406 L 134.296875 62.488281 L 134.335938 62.84375 C 135.0625 62.808594 135.917969 63.007812 136.484375 62.691406 C 137.507812 62.121094 136.007812 61.363281 136.507812 60.636719 Z M 140.320312 59.527344 C 139.941406 59.316406 139.570312 58.964844 139.175781 58.941406 C 138.875 58.925781 138.542969 59.3125 138.089844 59.609375 L 139.878906 59.902344 Z M 142.445312 77.933594 L 141.710938 78.8125 L 141.4375 77.859375 L 141.21875 77.945312 L 141.21875 79.210938 C 142.425781 78.757812 142.835938 78.332031 142.445312 77.933594 Z M 144.878906 66.691406 C 143.894531 66.152344 144.273438 65.519531 144.640625 64.824219 C 144.273438 65.1875 144.050781 65.597656 143.886719 66.027344 C 143.800781 66.261719 143.714844 66.714844 143.800781 66.765625 C 144.066406 66.914062 144.414062 66.917969 144.730469 66.976562 Z M 144.898438 72.257812 L 147.304688 72.140625 L 147.296875 71.902344 L 146.625 71.902344 L 147.425781 70.621094 L 146.554688 70.621094 C 146.609375 71.394531 146.507812 72.011719 145.476562 71.78125 C 145.300781 71.746094 145.035156 72.140625 144.898438 72.257812 Z M 147.503906 86.984375 L 147.875 86.789062 L 147.449219 85.203125 L 147.242188 85.164062 L 146.867188 86.304688 Z M 149.152344 114.023438 C 149.109375 113.882812 149.0625 113.742188 149.027344 113.597656 C 148.96875 113.386719 148.925781 113.171875 148.851562 112.96875 C 148.84375 112.953125 148.554688 112.976562 148.523438 113.042969 C 148.402344 113.308594 148.226562 113.613281 148.265625 113.871094 C 148.332031 114.261719 148.558594 114.625 148.773438 115.125 C 149.417969 115.023438 149.304688 114.535156 149.152344 114.023438 Z M 149.5625 110.898438 C 149.53125 110.796875 149.242188 110.730469 149.070312 110.726562 C 147.867188 110.699219 148.144531 111.9375 147.640625 112.546875 C 147.886719 112.421875 148.339844 112.304688 148.34375 112.167969 C 148.367188 111.570312 148.433594 111.285156 149.054688 111.761719 C 149.140625 111.828125 149.503906 111.71875 149.546875 111.613281 C 149.628906 111.402344 149.636719 111.117188 149.5625 110.898438 Z M 151.574219 101.816406 C 150.425781 101.296875 149.707031 101.285156 149.417969 101.785156 C 149.90625 101.8125 150.558594 101.707031 150.636719 101.875 C 151.085938 102.824219 151.265625 102.203125 151.574219 101.816406 Z M 151.636719 96.289062 L 150.925781 94.917969 L 150.042969 95.058594 C 150.304688 95.90625 150.558594 96.761719 151.636719 96.289062 Z M 153.046875 84.453125 L 151.839844 83.859375 C 151.636719 84.265625 151.539062 84.609375 151.324219 84.839844 C 151.101562 85.078125 150.765625 85.207031 150.476562 85.382812 L 150.691406 85.699219 L 152.367188 84.484375 L 152.902344 84.757812 Z M 153.683594 33.644531 C 153.222656 33.601562 152.789062 33.679688 152.351562 33.757812 C 151.964844 33.832031 151.578125 33.921875 151.1875 33.960938 C 151 33.980469 150.800781 33.894531 150.609375 33.855469 C 150.691406 34.101562 150.746094 34.359375 150.867188 34.585938 C 150.953125 34.742188 151.132812 34.847656 151.289062 34.992188 C 151.570312 34.742188 151.949219 34.25 152.078125 34.308594 C 152.871094 34.667969 153.179688 33.949219 153.683594 33.644531 Z M 158.351562 84.953125 L 156.601562 83.75 L 156.601562 84.953125 Z M 158.496094 65.046875 L 157.585938 64.570312 L 157.585938 63.640625 L 157.4375 63.585938 L 156.867188 65.402344 Z M 161.703125 64.582031 L 160.304688 64.320312 L 160.066406 64.898438 C 161.25 64.644531 160.925781 65.339844 160.878906 65.945312 Z M 162.636719 62.964844 L 161.046875 62.964844 L 160.894531 63.277344 C 161.222656 63.480469 161.539062 63.816406 161.882812 63.84375 C 162.074219 63.859375 162.304688 63.371094 162.636719 62.964844 Z M 163.59375 97.347656 L 162.613281 96.042969 L 162.945312 98.265625 L 163.257812 98.246094 Z M 100.75 46.035156 L 100.257812 44.4375 L 98.738281 45.292969 Z M 99.851562 36.542969 L 99.929688 37.804688 C 100.703125 37.671875 101.777344 38.082031 101.929688 36.453125 C 101.132812 37.214844 100.503906 37.429688 99.851562 36.542969 Z M 101.15625 85.148438 C 100.949219 84.988281 100.648438 84.941406 100.390625 84.847656 L 100.285156 85.125 L 101.011719 85.722656 L 99.863281 85.796875 L 100.269531 86.777344 L 101.339844 85.625 C 101.308594 85.542969 101.296875 85.261719 101.15625 85.148438 Z M 103.183594 85.9375 L 102.617188 85.1875 L 102.617188 86.652344 L 104.640625 85.738281 L 104.523438 85.46875 Z M 100.511719 98.042969 C 99.867188 98.019531 99.222656 98.03125 98.578125 98.03125 L 98.578125 98.351562 L 99.808594 98.773438 L 98.902344 100.101562 L 99.371094 101.21875 L 99.53125 101.132812 L 99.585938 100.367188 C 99.992188 100.386719 100.410156 100.4375 100.414062 100.40625 C 100.550781 99.703125 100.648438 98.996094 100.726562 98.289062 C 100.734375 98.210938 100.589844 98.042969 100.511719 98.042969 Z M 105.691406 90.675781 L 105.71875 90.703125 C 105.71875 90.695312 105.722656 90.683594 105.726562 90.671875 L 105.714844 90.675781 C 105.714844 90.683594 105.714844 90.695312 105.71875 90.703125 Z M 106.03125 88.691406 C 107.183594 89.496094 106.480469 87.835938 107.101562 87.722656 L 105.332031 87.1875 C 105.132812 87.839844 105.585938 88.382812 106.03125 88.691406 Z M 106.210938 91.410156 L 106.476562 91.523438 L 106.9375 90.417969 L 107.804688 90.558594 L 107.144531 91.128906 L 107.230469 91.320312 L 108.042969 91.195312 L 108.042969 89.394531 C 107.6875 89.484375 107.300781 89.722656 107.046875 89.625 C 105.914062 89.183594 105.910156 90.019531 105.726562 90.671875 C 106.125 90.644531 106.144531 90.6875 106.210938 91.410156 Z M 105.363281 91.207031 L 105.691406 90.675781 L 105.714844 90.675781 L 105.558594 88.816406 L 104.277344 90.730469 C 105.136719 89.917969 104.859375 91.285156 105.363281 91.207031 Z M 105.996094 80.320312 C 105.75 80.746094 105.886719 81.382812 105.859375 81.933594 L 106.066406 82.007812 L 106.839844 80.585938 C 107.140625 80.757812 107.386719 80.945312 107.664062 81.042969 C 107.777344 81.085938 107.960938 80.941406 108.109375 80.882812 C 107.847656 80.582031 107.621094 80.085938 107.308594 80.023438 C 106.886719 79.9375 106.152344 80.046875 105.996094 80.320312 Z M 102.445312 77.8125 C 102.453125 77.824219 102.457031 77.839844 102.464844 77.851562 L 102.472656 77.847656 C 102.464844 77.835938 102.453125 77.824219 102.445312 77.8125 Z M 104.835938 77.980469 C 104.6875 77.542969 104.480469 77.140625 104.152344 76.972656 C 103.808594 76.800781 103.351562 76.855469 102.945312 76.8125 L 104.351562 75.9375 C 104.023438 75.8125 103.734375 75.625 103.433594 75.609375 C 103.089844 75.589844 102.734375 75.71875 102.464844 75.769531 L 102.210938 74.933594 L 101.832031 75.03125 L 102.089844 76.1875 L 101.539062 76.609375 L 102.445312 77.8125 C 103.253906 77.359375 104 77.625 104.835938 77.980469 Z M 101.445312 76.933594 L 100.332031 78.894531 L 102.820312 78.4375 L 102.464844 77.851562 C 102.253906 77.925781 102.042969 78 101.855469 78.066406 Z M 104.199219 88.050781 C 104.03125 88.449219 103.84375 88.839844 103.703125 89.246094 C 103.578125 89.605469 103.488281 89.625 103.027344 89.410156 C 102.910156 89.355469 102.71875 89.453125 102.5625 89.476562 C 102.59375 89.628906 102.574219 89.816406 102.660156 89.929688 C 102.820312 90.144531 103.039062 90.3125 103.230469 90.503906 L 104.734375 88.8125 L 104.457031 88.09375 Z M 99.996094 92.363281 L 99.617188 91.699219 L 98.84375 91.878906 L 98.6875 90.972656 C 98.253906 91.242188 97.8125 91.507812 97.25 91.847656 Z M 97.191406 48.84375 L 97.363281 48.875 L 97.671875 47.675781 L 98.691406 48.160156 L 98.84375 47.871094 L 97.191406 46.953125 Z M 106.675781 92.789062 L 106.058594 92.632812 L 106.546875 92.09375 L 106.300781 91.773438 L 104.242188 92.835938 C 103.835938 92.542969 104.660156 91.359375 103.523438 91.535156 C 103.34375 91.5625 103.300781 92.472656 103.175781 93.058594 C 104.25 93.082031 104.898438 93.316406 104.773438 94.3125 Z M 103.222656 90.511719 L 103.238281 90.511719 L 103.230469 90.503906 Z M 98.683594 90.933594 L 98.6875 90.972656 L 98.707031 90.960938 C 98.710938 90.941406 98.710938 90.921875 98.714844 90.902344 Z M 101.0625 90.734375 L 102.542969 91.0625 L 103.222656 90.511719 L 101.101562 90.34375 Z M 103.480469 48.070312 L 103.046875 49.042969 L 105.152344 48.277344 C 105.257812 48.304688 105.59375 48.335938 105.886719 48.46875 C 106.195312 48.609375 106.464844 48.839844 106.734375 49.019531 L 107.429688 47.613281 L 105.890625 46.289062 L 105.890625 47.375 L 106.699219 47.257812 C 106.578125 48.589844 105.796875 47.925781 105.253906 47.886719 C 105.046875 47.871094 104.746094 47.699219 104.648438 47.785156 C 104.085938 48.285156 103.808594 48.242188 103.566406 47.535156 C 103.3125 46.792969 103.066406 46.046875 102.777344 45.179688 C 102.0625 46.421875 102.378906 47.53125 103.480469 48.070312 Z M 101.09375 30.132812 C 102.292969 29.296875 101.746094 30.660156 102.042969 30.9375 L 103.382812 29.917969 C 102.625 29.046875 101.433594 29.175781 101.09375 30.132812 Z M 105.90625 50.820312 C 105.789062 50.96875 106.09375 51.445312 106.242188 51.875 L 107.417969 50.148438 L 107.113281 49.867188 C 106.699219 50.175781 106.210938 50.425781 105.90625 50.820312 Z M 105.304688 41.066406 C 105.039062 41.285156 104.777344 41.578125 104.453125 41.742188 C 104.171875 41.886719 103.820312 41.886719 103.5 41.949219 C 104.863281 42.019531 105.464844 41.722656 105.304688 41.066406 Z M 108.535156 29.269531 C 108.296875 29.289062 108.0625 29.433594 107.839844 29.550781 C 107.820312 29.558594 107.898438 29.882812 107.960938 29.890625 C 108.210938 29.933594 108.472656 29.910156 108.757812 29.910156 L 108.679688 30.433594 C 109.882812 30.921875 109.945312 30.113281 109.984375 29.253906 L 108.988281 29.253906 C 108.835938 29.257812 108.683594 29.253906 108.535156 29.269531 Z M 105.601562 29.816406 L 106.117188 30.726562 C 106.554688 30.539062 106.921875 30.390625 107.277344 30.222656 C 107.410156 30.160156 107.511719 30.039062 107.628906 29.941406 C 107.484375 29.828125 107.324219 29.726562 107.207031 29.589844 C 106.539062 28.816406 106.175781 29.722656 105.601562 29.816406 Z M 105.382812 35.945312 L 105.613281 34.992188 C 105.734375 34.929688 106.085938 34.839844 106.089844 34.738281 C 106.097656 34.320312 106 33.898438 105.910156 33.257812 C 105.714844 33.800781 105.699219 34.160156 105.519531 34.285156 C 104.863281 34.75 104.992188 35.304688 105.382812 35.945312 Z M 104.882812 69.089844 C 104.894531 69.242188 104.878906 69.410156 104.949219 69.523438 C 105.074219 69.710938 105.265625 69.855469 105.429688 70.019531 L 106.480469 69.125 L 105.714844 68.207031 C 106.070312 69.25 105.523438 69.21875 104.882812 69.089844 Z M 103.386719 67.328125 L 103.386719 68.046875 C 103.6875 68.304688 103.941406 68.414062 103.960938 68.5625 C 103.988281 68.734375 103.8125 68.933594 103.621094 69.332031 L 104.835938 69.0625 L 103.640625 67.1875 Z M 104.882812 69.054688 C 104.867188 69.058594 104.851562 69.058594 104.835938 69.0625 L 104.851562 69.085938 C 104.863281 69.085938 104.871094 69.089844 104.882812 69.089844 C 104.882812 69.078125 104.882812 69.066406 104.882812 69.054688 Z M 102.167969 37.269531 C 102.039062 38.363281 102.144531 39.085938 102.496094 39.441406 C 103.121094 37.667969 103.117188 37.636719 102.167969 37.269531 Z M 104.664062 76.710938 L 105.710938 75.363281 L 106.480469 75.707031 L 106.480469 73.992188 L 104.277344 76.371094 Z M 103.1875 51.28125 L 103.9375 51.601562 L 103.3125 52.832031 L 103.574219 52.960938 C 103.691406 52.339844 105.253906 52.394531 104.28125 51.261719 C 104.472656 51.140625 104.671875 50.914062 104.859375 50.925781 C 105.101562 50.941406 105.332031 51.140625 105.390625 51.175781 L 106.375 49.5625 C 105.574219 49.289062 105.253906 49.839844 105.0625 50.65625 L 104.820312 50.070312 C 103.878906 50.96875 102.078125 50.726562 101.65625 52.507812 Z M 104.292969 61.769531 C 104.191406 61.769531 103.875 61.675781 103.664062 61.785156 C 102.675781 62.292969 102.257812 63.8125 102.800781 64.90625 L 103.386719 64.292969 L 103.550781 64.375 L 103.050781 66.304688 C 103.878906 66.261719 104.035156 66.113281 104.09375 65.292969 C 104.097656 65.230469 104.230469 65.132812 104.304688 65.132812 C 104.40625 65.132812 104.511719 65.203125 104.601562 65.261719 C 104.839844 65.414062 105.070312 65.574219 105.316406 65.742188 L 104.367188 63.515625 C 103.175781 63.578125 103.011719 63.507812 103.179688 63.132812 C 103.410156 62.625 103.898438 62.230469 104.292969 61.769531 Z M 103.238281 90.511719 L 103.230469 90.503906 Z M 96.292969 108.0625 L 94.34375 107.734375 L 94.328125 108.074219 C 94.921875 108.335938 95.464844 109.140625 96.292969 108.0625 Z M 97.03125 113.289062 C 96.769531 113.277344 96.503906 113.289062 96.246094 113.242188 C 96.070312 113.207031 95.796875 113.128906 95.753906 113.007812 C 95.550781 112.414062 95.574219 112.40625 95.316406 112.390625 L 94.953125 113.851562 L 97.042969 113.644531 Z M 97.875 111.382812 L 97.558594 109.871094 L 96.394531 110.867188 C 96.601562 111.042969 96.851562 111.332031 97.164062 111.476562 C 97.347656 111.5625 97.636719 111.421875 97.875 111.382812 Z M 97.5 106.898438 L 96.707031 107.859375 C 96.894531 108.015625 97.050781 108.140625 97 108.101562 L 96.457031 109.492188 L 96.710938 109.625 L 97.976562 108.0625 Z M 97.691406 103.0625 C 98.339844 103.050781 98.839844 102.964844 98.433594 102.125 C 98.402344 102.058594 98.457031 101.953125 98.46875 101.867188 C 98.328125 101.871094 98.117188 101.816406 98.050781 101.890625 C 97.515625 102.5 97.007812 103.128906 96.492188 103.753906 C 97.195312 103.9375 97.945312 104.460938 98.492188 103.519531 L 97.328125 103.519531 C 97.425781 103.207031 97.558594 103.0625 97.691406 103.0625 Z M 96.472656 103.773438 L 96.445312 103.742188 C 96.453125 103.753906 96.464844 103.761719 96.472656 103.773438 Z M 100.289062 90.550781 C 100.175781 89.691406 99.328125 89.113281 97.75 88.820312 L 98.007812 89.898438 L 98.980469 89.589844 L 98.714844 90.902344 L 99.585938 90.089844 Z M 96.472656 103.773438 L 96.492188 103.753906 C 96.476562 103.75 96.460938 103.746094 96.445312 103.742188 Z M 93.390625 38.179688 L 92.777344 40.8125 C 93.90625 40.203125 93.792969 39.335938 93.390625 38.179688 Z M 92.144531 48.535156 C 92.953125 47.773438 93.039062 48.246094 93.175781 48.867188 C 93.507812 48.4375 93.800781 48.171875 93.917969 47.84375 C 93.964844 47.71875 93.546875 47.25 93.457031 47.28125 C 93.023438 47.425781 92.628906 47.6875 92.21875 47.910156 Z M 97.238281 38.195312 L 97.320312 39.707031 L 99 39.214844 L 98.921875 38.902344 C 98.691406 38.902344 98.457031 38.886719 98.230469 38.90625 C 98.011719 38.921875 97.800781 38.976562 97.585938 39.015625 L 98.214844 38.195312 Z M 89.648438 111.835938 C 89.945312 111.285156 90.003906 111.15625 90.625 111.207031 L 90.625 109.59375 L 88.59375 112.207031 L 88.753906 112.40625 C 89.0625 112.222656 89.5 112.105469 89.648438 111.835938 Z M 89.519531 101.925781 L 89.285156 101.699219 L 88.246094 102.019531 L 88.246094 103.246094 L 88.53125 103.335938 Z M 88.207031 85.085938 L 88.335938 87.65625 C 88.972656 85.386719 88.933594 85.140625 88.207031 85.085938 Z M 94.878906 104.671875 C 94.539062 104.757812 94.234375 104.957031 93.910156 105.105469 L 93.886719 105.589844 C 95.324219 104.144531 95.589844 105.910156 96.398438 106.15625 L 96.34375 107.035156 C 96.558594 106.03125 96.585938 105.015625 96.597656 104.003906 C 96.597656 103.925781 96.527344 103.847656 96.472656 103.773438 L 95.9375 104.65625 C 95.488281 104.65625 95.164062 104.601562 94.878906 104.671875 Z M 106.785156 109.820312 C 107.167969 109.820312 107.632812 109.949219 107.976562 109.507812 C 108.320312 109.066406 108.769531 108.707031 109.101562 108.378906 L 105.957031 108.699219 L 106.023438 108.765625 L 104.46875 109.3125 L 104.808594 110.792969 C 105.132812 109.804688 105.925781 109.8125 106.785156 109.820312 Z M 104.582031 102.410156 C 104.441406 102.5 104.328125 102.628906 104.203125 102.742188 C 104.375 102.78125 104.566406 102.890625 104.71875 102.851562 C 105.257812 102.710938 105.785156 102.523438 106.308594 102.355469 L 106.132812 101.445312 C 105.601562 101.773438 105.085938 102.085938 104.582031 102.410156 Z M 104.4375 109.324219 L 104.464844 109.296875 Z M 109.101562 104.65625 C 108.9375 104.726562 108.695312 104.753906 108.644531 104.867188 C 108.449219 105.28125 108.320312 105.722656 108.15625 106.183594 L 108.816406 106.320312 L 107.621094 107.152344 L 107.726562 106.398438 L 107.46875 106.3125 C 107.375 106.5625 107.128906 106.9375 107.210938 107.035156 C 107.398438 107.257812 107.972656 107.496094 107.996094 107.457031 C 108.496094 106.734375 109.859375 106.785156 109.75 105.523438 C 108.707031 105.859375 109.171875 105.046875 109.101562 104.65625 Z M 106.726562 102.167969 L 106.476562 103.78125 L 105.582031 103.054688 C 105.503906 103.503906 105.285156 103.945312 105.421875 104.128906 C 105.652344 104.4375 106.101562 104.589844 106.457031 104.808594 C 106.417969 104.984375 106.441406 105.246094 106.332031 105.320312 C 105.753906 105.707031 105.742188 105.691406 105.980469 106.253906 L 106.871094 106.101562 L 106.664062 105.851562 C 106.816406 105.636719 106.929688 105.382812 107.121094 105.222656 C 107.503906 104.914062 107.929688 104.65625 108.46875 104.289062 L 106.699219 103.941406 C 106.875 103.878906 107.050781 103.804688 107.234375 103.761719 C 107.664062 103.664062 108.101562 103.582031 108.535156 103.492188 L 108.4375 103.140625 L 106.992188 103.542969 L 106.992188 102.167969 Z M 103.046875 104.574219 L 103.976562 103.714844 L 103.363281 102.898438 L 104.050781 101.339844 L 102.6875 101.652344 L 103.121094 103.140625 L 102.539062 103.59375 Z M 98.726562 107.378906 C 99.414062 106.5625 99.316406 107.660156 99.675781 107.738281 L 100.214844 106.886719 L 99.109375 106.175781 Z M 104.824219 110.855469 C 104.820312 110.835938 104.8125 110.8125 104.808594 110.792969 C 104.804688 110.804688 104.796875 110.8125 104.792969 110.828125 Z M 102.53125 110.417969 C 103.808594 111.039062 104.046875 110.914062 104.199219 109.8125 C 104.222656 109.640625 104.355469 109.484375 104.449219 109.320312 L 104.4375 109.324219 C 104.304688 109.230469 104.082031 109.027344 104.054688 109.050781 C 103.554688 109.46875 103.082031 109.914062 102.53125 110.417969 Z M 102.058594 104.238281 L 101.703125 105.832031 L 100.554688 105.417969 L 100.25 106.910156 L 100.222656 106.878906 L 100.25 106.910156 L 100.222656 106.894531 C 100.375 107.511719 100.351562 108.261719 101.328125 108.339844 L 100.570312 107 C 102.972656 106.632812 103.519531 106.441406 103.828125 105.949219 C 103.390625 105.050781 103 105.417969 102.722656 105.898438 L 102.246094 104.238281 Z M 103.492188 111.898438 C 103.691406 112.25 103.832031 112.65625 104.105469 112.933594 C 104.355469 113.183594 104.75 113.285156 105.023438 113.425781 C 105.199219 112.855469 105.359375 112.472656 105.429688 112.078125 C 105.484375 111.785156 105.421875 111.472656 105.417969 111.253906 L 104.320312 112.46875 L 103.988281 112.175781 C 104.199219 111.9375 104.441406 111.71875 104.613281 111.453125 C 104.714844 111.292969 104.734375 111.082031 104.78125 110.882812 L 103.085938 111.980469 Z M 104.824219 110.855469 L 104.792969 110.828125 C 104.789062 110.84375 104.785156 110.863281 104.78125 110.882812 C 104.796875 110.875 104.808594 110.867188 104.824219 110.855469 Z M 104.824219 110.855469 " fill-opacity="1" fill-rule="nonzero"/></g></svg>
