<svg xmlns="http://www.w3.org/2000/svg" xmlns:xlink="http://www.w3.org/1999/xlink" width="336" zoomAndPan="magnify" viewBox="0 0 252 143.999998" height="192" preserveAspectRatio="xMidYMid meet" version="1.0"><defs><filter x="0%" y="0%" width="100%" height="100%" id="dc68e66732"><feColorMatrix values="0 0 0 0 1 0 0 0 0 1 0 0 0 0 1 0 0 0 1 0" color-interpolation-filters="sRGB"/></filter><g/><clipPath id="dbe48eb18e"><path d="M 20.402344 38 L 83.402344 38 L 83.402344 105.324219 L 20.402344 105.324219 Z M 20.402344 38 " clip-rule="nonzero"/></clipPath><clipPath id="0c992b400e"><path d="M 134.71875 0 L 252 0 L 252 144 L 134.71875 144 Z M 134.71875 0 " clip-rule="nonzero"/></clipPath><linearGradient x1="14.517002" gradientTransform="matrix(3.394085, 0, 0, 3.42096, 85.446662, 63.865215)" y1="8.5" x2="49.071647" gradientUnits="userSpaceOnUse" y2="8.5" id="67d20af3b2"><stop stop-opacity="1" stop-color="rgb(100%, 100%, 100%)" offset="0"/><stop stop-opacity="1" stop-color="rgb(100%, 100%, 100%)" offset="0.5"/><stop stop-opacity="1" stop-color="rgb(100%, 100%, 100%)" offset="0.625"/><stop stop-opacity="1" stop-color="rgb(100%, 100%, 100%)" offset="0.6875"/><stop stop-opacity="1" stop-color="rgb(100%, 100%, 100%)" offset="0.71875"/><stop stop-opacity="1" stop-color="rgb(100%, 100%, 100%)" offset="0.734375"/><stop stop-opacity="1" stop-color="rgb(100%, 100%, 100%)" offset="0.742188"/><stop stop-opacity="1" stop-color="rgb(99.165344%, 99.452209%, 100%)" offset="0.746094"/><stop stop-opacity="1" stop-color="rgb(98.332214%, 98.905945%, 100%)" offset="0.75"/><stop stop-opacity="1" stop-color="rgb(95.289612%, 96.913147%, 100%)" offset="0.753906"/><stop stop-opacity="1" stop-color="rgb(92.247009%, 94.920349%, 100%)" offset="0.757812"/><stop stop-opacity="1" stop-color="rgb(89.204407%, 92.926025%, 100%)" offset="0.761719"/><stop stop-opacity="1" stop-color="rgb(86.161804%, 90.933228%, 100%)" offset="0.765625"/><stop stop-opacity="1" stop-color="rgb(83.119202%, 88.938904%, 100%)" offset="0.769531"/><stop stop-opacity="1" stop-color="rgb(80.076599%, 86.946106%, 100%)" offset="0.773438"/><stop stop-opacity="1" stop-color="rgb(77.033997%, 84.953308%, 100%)" offset="0.777344"/><stop stop-opacity="1" stop-color="rgb(73.99292%, 82.96051%, 100%)" offset="0.78125"/><stop stop-opacity="1" stop-color="rgb(70.950317%, 80.966187%, 100%)" offset="0.785156"/><stop stop-opacity="1" stop-color="rgb(67.907715%, 78.973389%, 100%)" offset="0.789063"/><stop stop-opacity="1" stop-color="rgb(64.865112%, 76.979065%, 100%)" offset="0.792969"/><stop stop-opacity="1" stop-color="rgb(61.82251%, 74.986267%, 100%)" offset="0.796875"/><stop stop-opacity="1" stop-color="rgb(58.779907%, 72.991943%, 100%)" offset="0.800781"/><stop stop-opacity="1" stop-color="rgb(55.738831%, 70.999146%, 100%)" offset="0.804688"/><stop stop-opacity="1" stop-color="rgb(52.696228%, 69.006348%, 100%)" offset="0.808594"/><stop stop-opacity="1" stop-color="rgb(49.653625%, 67.01355%, 100%)" offset="0.8125"/><stop stop-opacity="1" stop-color="rgb(46.611023%, 65.019226%, 100%)" offset="0.816406"/><stop stop-opacity="1" stop-color="rgb(43.56842%, 63.026428%, 100%)" offset="0.820313"/><stop stop-opacity="1" stop-color="rgb(40.525818%, 61.032104%, 100%)" offset="0.824219"/><stop stop-opacity="1" stop-color="rgb(37.484741%, 59.039307%, 100%)" offset="0.828125"/><stop stop-opacity="1" stop-color="rgb(34.442139%, 57.044983%, 100%)" offset="0.832031"/><stop stop-opacity="1" stop-color="rgb(31.399536%, 55.052185%, 100%)" offset="0.835938"/><stop stop-opacity="1" stop-color="rgb(28.356934%, 53.059387%, 100%)" offset="0.839844"/><stop stop-opacity="1" stop-color="rgb(25.314331%, 51.066589%, 100%)" offset="0.84375"/><stop stop-opacity="1" stop-color="rgb(22.851562%, 49.452209%, 100%)" offset="0.847656"/><stop stop-opacity="1" stop-color="rgb(20.388794%, 47.839355%, 100%)" offset="0.851562"/><stop stop-opacity="1" stop-color="rgb(20.388794%, 47.839355%, 100%)" offset="0.859375"/><stop stop-opacity="1" stop-color="rgb(20.388794%, 47.839355%, 100%)" offset="0.875"/><stop stop-opacity="1" stop-color="rgb(20.388794%, 47.839355%, 100%)" offset="1"/></linearGradient><clipPath id="69275df36d"><rect x="0" width="252" y="0" height="144"/></clipPath><clipPath id="d6a35c060d"><rect x="0" width="252" y="0" height="144"/></clipPath><clipPath id="1721fdfbad"><rect x="0" width="252" y="0" height="144"/></clipPath><mask id="fe279447e3"><g filter="url(#dc68e66732)"><g transform="matrix(1, 0, 0, 1, 0, -0.000000000000008916)"><g clip-path="url(#1721fdfbad)"><g transform="matrix(1, 0, 0, 1, 0, -0.000000000000008916)"><g clip-path="url(#d6a35c060d)"><g fill="#000000" fill-opacity="1"><g transform="translate(221.079579, 104.86085)"><g/></g></g></g></g></g></g></g></mask><clipPath id="9b68ca7327"><path d="M 134.71875 0 L 252 0 L 252 144 L 134.71875 144 Z M 134.71875 0 " clip-rule="nonzero"/></clipPath><clipPath id="b9a55f9de8"><rect x="0" width="252" y="0" height="144"/></clipPath><clipPath id="0176ca166f"><rect x="0" width="252" y="0" height="144"/></clipPath><clipPath id="f4d7e96a90"><rect x="0" width="252" y="0" height="144"/></clipPath></defs><rect x="-25.2" width="302.4" fill="#ffffff" y="-14.4" height="172.799997" fill-opacity="1"/><rect x="-25.2" width="302.4" fill="#ffffff" y="-14.4" height="172.799997" fill-opacity="1"/><g clip-path="url(#dbe48eb18e)"><path fill="#2884ff" d="M 39.519531 78.558594 L 39.515625 78.546875 Z M 39.515625 78.546875 L 39.519531 78.558594 L 39.53125 78.550781 Z M 38.945312 79.511719 L 39.625 79.867188 C 39.585938 79.433594 39.554688 78.996094 39.519531 78.558594 Z M 40.277344 78.023438 C 40.167969 77.96875 39.871094 78.308594 39.65625 78.472656 C 39.617188 78.5 39.574219 78.523438 39.53125 78.550781 L 40.996094 78.828125 C 40.679688 78.453125 40.523438 78.140625 40.277344 78.023438 Z M 38.792969 75.078125 L 38.792969 75.042969 C 38.785156 75.046875 38.777344 75.050781 38.769531 75.054688 Z M 38.765625 75.074219 C 38.773438 75.074219 38.785156 75.078125 38.792969 75.078125 L 38.769531 75.054688 Z M 38.238281 75.007812 C 37.785156 75.414062 37.347656 75.851562 36.980469 76.332031 C 36.894531 76.445312 37.046875 76.800781 37.171875 76.988281 C 37.226562 77.066406 37.496094 77.015625 37.667969 76.992188 C 37.71875 76.988281 37.757812 76.890625 37.824219 76.808594 L 37.109375 76.773438 C 37.429688 76.554688 37.558594 76.40625 37.710938 76.375 C 38.433594 76.230469 38.710938 75.746094 38.765625 75.074219 C 38.578125 75.039062 38.324219 74.929688 38.238281 75.007812 Z M 39.894531 81.054688 C 40.304688 80.984375 40.566406 81.007812 40.71875 80.894531 C 41.0625 80.640625 41.375 80.328125 41.636719 79.996094 C 41.671875 79.953125 41.3125 79.648438 41.203125 79.433594 C 41.121094 79.269531 41.148438 79.054688 41.136719 78.929688 L 40.167969 79.335938 L 40.226562 79.386719 L 39.652344 79.882812 C 39.632812 80.058594 39.628906 80.390625 39.59375 80.394531 C 38.65625 80.484375 38.644531 81.316406 38.328125 82.074219 L 38.265625 81.292969 L 37.390625 81.46875 C 37.511719 81.808594 37.636719 82.148438 37.761719 82.5 L 38.371094 82.582031 L 38.386719 82.710938 C 38.664062 82.367188 38.9375 82.015625 39.214844 81.667969 L 38.960938 81.171875 L 39.988281 81.171875 L 39.355469 81.980469 L 40.054688 81.707031 C 40.054688 81.863281 40.054688 82.015625 40.058594 82.171875 L 41.484375 82.382812 Z M 39.625 79.867188 C 39.625 79.878906 39.625 79.890625 39.628906 79.902344 L 39.652344 79.882812 C 39.644531 79.878906 39.632812 79.871094 39.625 79.867188 Z M 40.03125 82.167969 C 40.03125 82.175781 40.035156 82.183594 40.035156 82.195312 C 40.042969 82.195312 40.050781 82.191406 40.058594 82.191406 Z M 37.191406 80.691406 C 36.875 80.648438 36.542969 80.730469 36.203125 80.757812 L 36.144531 79.644531 L 35.527344 80.433594 C 35.652344 80.660156 35.777344 80.890625 35.847656 81.023438 L 35.695312 82.496094 L 35.894531 82.546875 L 36.109375 82.234375 L 36.589844 82.804688 L 36.730469 82.730469 L 36.359375 81.519531 C 36.65625 81.398438 36.867188 81.277344 37.09375 81.234375 C 37.175781 81.21875 37.289062 81.382812 37.390625 81.46875 C 37.484375 81.339844 37.675781 81.152344 37.644531 81.101562 C 37.535156 80.933594 37.363281 80.714844 37.191406 80.691406 Z M 38.390625 82.742188 L 38.386719 82.710938 C 38.375 82.726562 38.363281 82.742188 38.351562 82.753906 Z M 40.03125 82.167969 L 40.058594 82.191406 L 40.058594 82.171875 C 40.050781 82.171875 40.039062 82.167969 40.03125 82.167969 Z M 38.65625 102.699219 C 38.65625 102.699219 38.929688 102.554688 39.066406 102.488281 L 38.828125 102.5 L 38.566406 101.332031 C 38.09375 101.8125 38.128906 102.273438 38.675781 102.714844 Z M 42.324219 98.445312 L 42.089844 99.355469 L 42.988281 99.085938 L 42.988281 98.140625 Z M 38.792969 73.753906 L 38.792969 75.042969 C 39.238281 74.765625 39.695312 74.503906 40.125 74.199219 C 40.179688 74.160156 40.117188 73.953125 40.097656 73.804688 C 39.773438 73.914062 39.449219 74.023438 39.09375 74.148438 Z M 37.882812 83.324219 C 38.042969 83.140625 38.199219 82.949219 38.351562 82.753906 L 37.234375 83.1875 C 37.5625 83.261719 37.828125 83.386719 37.882812 83.324219 Z M 34.109375 77.40625 L 33.976562 77.535156 L 34.140625 78.71875 L 34.375 78.503906 L 35.332031 79.136719 C 34.851562 79.492188 34.183594 79.4375 34.074219 80.085938 C 33.996094 80.558594 34.011719 81.042969 33.992188 81.480469 L 35.089844 81.480469 L 35.128906 80.660156 L 34.28125 80.550781 C 34.644531 80.183594 35.039062 80.171875 35.449219 80.421875 C 35.464844 80.433594 35.484375 80.429688 35.507812 80.429688 L 35.589844 78.789062 Z M 35.507812 80.429688 L 35.503906 80.460938 C 35.511719 80.453125 35.519531 80.441406 35.527344 80.433594 C 35.519531 80.433594 35.515625 80.429688 35.507812 80.429688 Z M 35.527344 80.433594 L 35.503906 80.460938 Z M 42.992188 77.023438 C 42.996094 77.027344 43.007812 77.039062 43.011719 77.046875 L 43.011719 76.996094 Z M 37.3125 60.757812 L 37.628906 63.191406 C 36.828125 63.128906 37.148438 62.363281 36.917969 61.949219 C 36.742188 61.640625 36.828125 61.617188 36.417969 61.476562 C 36.28125 61.429688 36.210938 61.1875 36.023438 60.90625 L 36.320312 62.628906 L 36.113281 62.628906 L 35.601562 61.726562 L 34.980469 62.058594 C 35.199219 61.417969 36.769531 60.925781 35.058594 60.355469 L 35.585938 59.714844 L 33.882812 58.375 C 34.4375 58.300781 35.4375 59.253906 35.402344 57.753906 L 35.628906 57.882812 L 35.628906 58.976562 C 36.382812 58.988281 36.371094 59.023438 36.683594 59.925781 C 36.792969 60.238281 37.089844 60.484375 37.3125 60.757812 C 37.320312 60.761719 37.335938 60.765625 37.34375 60.769531 L 37.332031 60.78125 Z M 35.539062 58.96875 C 35.523438 58.957031 35.527344 58.964844 35.539062 58.96875 Z M 43.015625 98.117188 C 43.007812 98.113281 43 98.109375 42.988281 98.105469 L 42.988281 98.140625 L 43.011719 98.128906 Z M 44.941406 76.535156 L 44.960938 76.511719 C 44.953125 76.515625 44.945312 76.515625 44.9375 76.519531 Z M 44.941406 76.535156 L 44.953125 76.535156 L 44.960938 76.511719 Z M 42.988281 99.085938 C 42.988281 99.09375 42.992188 99.101562 42.992188 99.109375 L 43 99.109375 L 43.015625 99.078125 Z M 47.128906 42.351562 C 47.113281 42.746094 47.175781 43.144531 47.214844 43.582031 L 48.144531 43.40625 L 47.386719 43.027344 L 47.992188 42.722656 C 47.820312 42.484375 47.683594 42.289062 47.546875 42.097656 C 47.398438 42.183594 47.132812 42.261719 47.128906 42.351562 Z M 43.519531 77.539062 C 43.398438 77.566406 43.1875 77.234375 43.011719 77.046875 L 43.011719 77.886719 L 42.8125 77.789062 L 42.382812 78.328125 C 42.125 78.21875 41.875 78.261719 41.648438 78.355469 C 41.558594 78.390625 41.511719 78.535156 41.382812 78.722656 L 42.074219 78.761719 L 42.027344 79.761719 C 43.109375 79.480469 43.359375 79.148438 43.433594 77.988281 L 44.761719 78.605469 C 44.550781 78.03125 44.488281 77.304688 43.519531 77.539062 Z M 44.761719 78.605469 C 44.769531 78.621094 44.773438 78.632812 44.777344 78.648438 C 44.785156 78.640625 44.800781 78.625 44.800781 78.625 C 44.789062 78.621094 44.777344 78.613281 44.761719 78.605469 Z M 43.011719 76.996094 L 42.980469 76.992188 L 42.992188 77.023438 Z M 51.871094 71.289062 C 51.886719 71.308594 51.90625 71.324219 51.917969 71.339844 L 51.960938 71.242188 Z M 44.429688 76.261719 L 43.359375 76.917969 C 43.875 77 44.253906 77.273438 44.484375 76.675781 C 44.523438 76.578125 44.769531 76.566406 44.9375 76.519531 C 44.847656 76.007812 44.84375 76.011719 44.429688 76.261719 Z M 37.980469 45.839844 C 37.980469 45.832031 37.980469 45.824219 37.976562 45.816406 L 37.957031 45.816406 Z M 40.097656 73.804688 C 40.105469 73.800781 40.113281 73.800781 40.117188 73.796875 L 40.109375 73.789062 C 40.101562 73.78125 40.097656 73.773438 40.097656 73.773438 C 40.097656 73.785156 40.097656 73.792969 40.097656 73.804688 Z M 37.980469 45.839844 L 37.957031 45.816406 L 37.953125 45.839844 Z M 51.078125 71.476562 L 51.207031 71.644531 L 51.871094 71.289062 C 51.804688 71.207031 51.738281 71.121094 51.65625 71.054688 C 51.617188 71.019531 51.28125 71.328125 51.078125 71.476562 Z M 40.109375 73.789062 L 40.117188 73.796875 C 40.109375 73.792969 40.101562 73.78125 40.097656 73.773438 C 40.097656 73.773438 40.101562 73.78125 40.109375 73.789062 Z M 35.609375 41.738281 C 35.621094 41.726562 35.578125 41.636719 35.554688 41.632812 C 34.765625 41.511719 35.101562 40.980469 35.199219 40.46875 L 33.3125 40.058594 L 33.273438 40.296875 L 32.628906 39.550781 L 32.972656 41.621094 C 33.941406 40.820312 34.007812 42.082031 34.496094 42.410156 L 34.589844 41.496094 C 35.273438 42.199219 35.234375 42.621094 34.734375 42.996094 C 34.734375 43.3125 34.6875 43.527344 34.753906 43.699219 C 34.796875 43.816406 34.988281 43.878906 35.117188 43.960938 C 35.101562 43.914062 35.070312 43.84375 35.082031 43.832031 C 35.804688 43.273438 35.058594 42.339844 35.609375 41.738281 Z M 35.117188 43.960938 L 35.125 43.972656 Z M 32.957031 41.660156 L 32.976562 41.660156 C 32.972656 41.644531 32.972656 41.632812 32.972656 41.621094 C 32.964844 41.625 32.960938 41.628906 32.953125 41.632812 Z M 36.449219 46.847656 L 36.671875 47.65625 L 37.398438 47.300781 L 37.851562 48.46875 L 38.164062 48.386719 L 38.042969 47.53125 L 38.179688 47.683594 L 38.910156 46.855469 L 37.75 47.089844 L 37.953125 45.839844 L 37.378906 45.867188 C 37.492188 46.789062 37.230469 47.046875 36.449219 46.847656 Z M 33.109375 42.378906 L 32.957031 41.660156 C 32.519531 41.726562 32.082031 41.792969 31.65625 41.855469 C 31.824219 43.023438 32.722656 41.875 33.109375 42.378906 Z M 34.347656 45.203125 L 34.578125 45.394531 C 34.808594 45.28125 35.027344 45.132812 35.269531 45.074219 C 35.441406 45.035156 35.65625 45.089844 35.824219 45.164062 C 35.910156 45.203125 35.933594 45.382812 35.984375 45.496094 C 36.035156 45.351562 36.101562 45.210938 36.136719 45.058594 C 36.175781 44.898438 36.183594 44.726562 36.203125 44.558594 L 35.125 43.972656 Z M 35.265625 100.496094 L 35.261719 100.484375 C 35.257812 100.488281 35.253906 100.496094 35.25 100.503906 Z M 27.511719 44.839844 L 27.675781 44.886719 L 28.171875 43.730469 L 27.125 43.207031 Z M 27.65625 51.71875 L 27.378906 51.21875 L 27.136719 51.265625 L 27.273438 52.214844 L 29.042969 51.773438 L 28.996094 51.628906 Z M 28.261719 44.550781 L 27.933594 45.128906 L 28.515625 45.230469 L 28.515625 45.90625 C 28.957031 45.332031 28.777344 44.542969 28.261719 44.550781 Z M 35.191406 69.640625 L 33.878906 70.949219 C 34.785156 71.035156 35.058594 70.800781 35.191406 69.640625 Z M 33.128906 65.199219 C 33.089844 65.351562 32.972656 65.488281 32.894531 65.632812 L 32.433594 65.226562 C 32.375 65.449219 32.28125 65.660156 32.285156 65.871094 C 32.289062 65.992188 32.429688 66.167969 32.546875 66.214844 C 32.679688 66.265625 32.855469 66.199219 33.011719 66.183594 C 32.929688 66.328125 32.875 66.507812 32.753906 66.609375 C 32.550781 66.78125 32.308594 66.914062 32.074219 67.050781 C 31.9375 67.125 31.773438 67.160156 31.65625 67.257812 C 31.625 67.28125 31.71875 67.554688 31.777344 67.5625 C 31.933594 67.585938 32.113281 67.554688 32.265625 67.492188 C 33.171875 67.105469 33.292969 66.207031 33.546875 65.421875 C 33.679688 65.003906 33.621094 64.523438 33.648438 64.074219 L 33.375 64.039062 C 33.296875 64.425781 33.230469 64.816406 33.128906 65.199219 Z M 29.703125 57.210938 C 29.359375 58.519531 29.546875 58.890625 30.574219 59.285156 L 30.996094 58.273438 L 29.886719 58.5 Z M 30.988281 63.050781 L 31.554688 63.507812 C 32.070312 62.875 32.230469 62.433594 32.03125 62.1875 L 31.660156 62.917969 L 31.382812 62.46875 Z M 31.832031 56.078125 C 31.738281 56.054688 31.597656 56.203125 31.480469 56.269531 C 31.574219 56.347656 31.65625 56.464844 31.765625 56.492188 C 32.382812 56.664062 32.5 56.929688 32.296875 57.230469 L 32.699219 58.390625 C 32.8125 58.253906 33.230469 57.941406 33.179688 57.785156 C 33.015625 57.289062 32.699219 56.832031 32.394531 56.398438 C 32.28125 56.238281 32.035156 56.136719 31.832031 56.078125 Z M 26.707031 83.09375 C 25.730469 83.164062 26.296875 82.644531 26.296875 82.226562 L 25.464844 83.230469 L 26.972656 83.65625 C 26.855469 83.398438 26.769531 83.089844 26.707031 83.09375 Z M 26.273438 84.085938 L 25.558594 83.457031 L 25.277344 84.929688 C 26.175781 85.296875 25.726562 84.105469 26.273438 84.085938 Z M 27.140625 76.953125 C 27.328125 76.78125 27.617188 76.640625 27.671875 76.433594 C 27.714844 76.273438 27.472656 76.035156 27.359375 75.832031 L 26.8125 76.660156 Z M 26.730469 57.90625 L 25.070312 58.714844 C 26.707031 59.121094 26.871094 59.019531 26.730469 57.90625 Z M 25.902344 93.472656 C 25.289062 93.355469 24.992188 93.492188 25.011719 93.882812 C 25.039062 94.488281 25.367188 95.003906 25.988281 95.425781 C 25.984375 95.214844 25.941406 94.976562 25.804688 94.890625 C 25.390625 94.632812 25.332031 94.390625 25.679688 94.027344 C 25.796875 93.90625 25.816406 93.695312 25.902344 93.472656 Z M 26.359375 90.242188 L 24.628906 91.261719 C 24.984375 91.300781 25.25 91.078125 25.484375 91.105469 C 26.140625 91.1875 26.3125 90.863281 26.359375 90.242188 Z M 32.804688 74.617188 L 31.300781 74.617188 L 30.902344 75.667969 C 31.410156 75.121094 32.390625 75.292969 32.804688 74.617188 Z M 28.371094 89.351562 L 27.277344 89.351562 L 27.277344 89.679688 C 27.785156 89.679688 28.359375 89.835938 28.773438 89.640625 C 29.433594 89.332031 29.980469 88.789062 30.597656 88.332031 L 30.234375 87.527344 L 28.441406 89.554688 Z M 31.867188 76.773438 C 31.378906 76.980469 30.824219 76.105469 30.390625 76.90625 C 30.886719 76.507812 31.429688 77.941406 31.867188 76.773438 Z M 29.617188 81.910156 C 29.53125 81.984375 29.429688 82.050781 29.359375 82.136719 C 28.722656 82.914062 28.558594 82.925781 27.828125 82.335938 C 27.65625 82.199219 27.394531 82.179688 27.171875 82.101562 L 27.058594 82.585938 C 27.660156 82.753906 28.269531 83.066406 28.863281 83.039062 C 29.207031 83.019531 29.519531 82.449219 29.847656 82.125 Z M 24.820312 43.480469 L 24.117188 43.207031 L 23.988281 43.550781 L 25.117188 43.980469 L 25.382812 42.808594 L 25.175781 42.6875 Z M 33.878906 70.949219 C 33.867188 70.945312 33.855469 70.945312 33.84375 70.945312 C 33.84375 70.960938 33.84375 70.972656 33.847656 70.988281 C 33.851562 70.976562 33.859375 70.972656 33.863281 70.964844 C 33.867188 70.957031 33.871094 70.953125 33.878906 70.949219 Z M 33.480469 67.792969 L 33.367188 67.753906 L 32.703125 69.050781 L 31.84375 68.800781 L 31.769531 69.066406 L 33.167969 69.410156 Z M 32.25 79.320312 L 33.109375 78.804688 L 33 78.636719 L 32.523438 78.882812 L 31.894531 77.703125 L 31.675781 79.320312 C 31.667969 79.3125 31.828125 79.460938 32.011719 79.628906 L 31.246094 80.011719 L 32.054688 80.402344 Z M 32.523438 71.191406 C 32.199219 71.320312 31.878906 71.578125 31.667969 71.507812 C 30.792969 71.207031 30.554688 71.289062 30.207031 72.207031 C 30.796875 72.277344 31.015625 72.113281 30.863281 71.71875 C 32.210938 71.609375 32.699219 71.925781 32.835938 72.964844 C 33.628906 72.417969 33.492188 73.308594 33.792969 73.59375 C 33.832031 73.300781 33.726562 73.042969 33.765625 72.804688 C 33.808594 72.53125 33.976562 72.277344 34.007812 72.210938 L 33.847656 70.988281 C 33.46875 71.605469 33.011719 71.699219 32.523438 71.191406 Z M 28.414062 60.492188 L 28.515625 60.890625 C 29.261719 61.222656 29.644531 60.222656 30.351562 60.414062 L 30.28125 60.125 Z M 28.105469 72.097656 L 27.910156 70.734375 C 27.324219 70.988281 27.390625 71.445312 28.105469 72.097656 Z M 30.238281 76.15625 L 29.570312 75.878906 L 29.269531 77.207031 L 29.511719 77.277344 L 29.988281 76.332031 Z M 28.019531 70.335938 C 28.007812 70.4375 28.101562 70.640625 28.136719 70.636719 C 28.414062 70.613281 28.769531 70.636719 28.929688 70.476562 C 29.078125 70.332031 29.09375 69.9375 29.007812 69.714844 C 28.949219 69.566406 28.613281 69.527344 28.402344 69.4375 L 28.328125 69.601562 L 29.011719 70.019531 C 28.621094 70.070312 28.421875 70.074219 28.238281 70.125 C 28.148438 70.148438 28.03125 70.253906 28.019531 70.335938 Z M 30.066406 60.84375 C 30.003906 60.972656 29.941406 61.109375 29.871094 61.238281 C 29.757812 61.457031 29.640625 61.671875 29.523438 61.890625 L 30.621094 62.390625 C 30.550781 61.886719 30.558594 61.613281 30.472656 61.378906 C 30.394531 61.179688 30.207031 61.019531 30.066406 60.84375 Z M 31.710938 65.691406 C 31.199219 65.367188 31.546875 67.128906 30.699219 66.089844 L 30.335938 67.28125 C 31.363281 66.84375 31.730469 66.394531 31.710938 65.691406 Z M 28.375 53.480469 L 28.066406 53.453125 C 28.132812 54.097656 28.015625 54.691406 27.582031 55.1875 C 28.222656 54.910156 29.121094 55.09375 30.273438 55.734375 C 30.273438 55.570312 30.320312 55.316406 30.269531 55.296875 C 29.660156 55.050781 29.042969 54.84375 28.472656 54.640625 Z M 24.003906 55.117188 L 23.199219 55.316406 L 23.121094 54.460938 L 22.941406 54.503906 L 22.253906 56.410156 L 24.019531 55.230469 Z M 20.402344 99.519531 L 21.710938 100.097656 L 22.414062 99.765625 L 22.402344 99.691406 L 21.5625 99.816406 L 21.792969 98.976562 Z M 24.804688 39.914062 L 24.902344 39.023438 L 23.226562 39.230469 L 23.234375 39.367188 L 24.070312 39.367188 L 23.636719 39.964844 L 23.78125 40.078125 L 24.429688 39.585938 C 24.546875 39.6875 24.660156 39.789062 24.804688 39.914062 Z M 26.105469 67.921875 L 26.207031 67.660156 C 25.996094 67.53125 25.765625 67.273438 25.585938 67.304688 C 25.019531 67.40625 24.648438 67.972656 24.742188 68.660156 C 24.945312 67.90625 25.390625 67.640625 26.105469 67.921875 Z M 21.71875 88.34375 L 23.070312 88.9375 C 23.140625 88.257812 22.691406 88.0625 21.71875 88.34375 Z M 23.695312 63.757812 L 24.621094 63.757812 L 24.636719 63.613281 L 24.269531 63.464844 L 24.863281 62.730469 L 24.734375 62.652344 L 23.664062 63.449219 Z M 23.398438 74.429688 L 23.65625 75.171875 C 24.003906 74.824219 24.441406 74.523438 24.671875 74.113281 C 24.816406 73.855469 24.65625 73.429688 24.625 73.015625 C 24.488281 73.253906 24.160156 73.597656 24.234375 73.738281 C 24.675781 74.625 24.113281 74.527344 23.398438 74.429688 Z M 39.136719 76.507812 L 38.492188 76.265625 C 38.355469 76.996094 38.128906 77.722656 38.878906 78.332031 L 38.996094 77.703125 L 39.554688 78.042969 L 39.554688 77.457031 C 39.929688 77.519531 40.242188 77.5625 40.550781 77.617188 C 40.773438 77.660156 40.996094 77.71875 41.21875 77.769531 C 41.082031 77.574219 40.945312 77.375 40.796875 77.1875 C 40.757812 77.136719 40.671875 77.117188 40.609375 77.082031 L 41.066406 76.25 C 40.46875 76.253906 39.984375 76.367188 39.421875 76.546875 L 40.191406 74.648438 C 39.3125 74.851562 39.25 75.691406 39.136719 76.507812 Z M 37.769531 57.714844 L 37.347656 57.742188 L 37.195312 58.761719 C 37.414062 58.722656 37.8125 58.710938 37.824219 58.636719 C 37.871094 58.339844 37.796875 58.023438 37.769531 57.714844 Z M 31.875 40.457031 L 30.734375 41.378906 L 31 41.703125 L 32.140625 40.78125 Z M 22.996094 48.476562 L 21.972656 49.296875 L 23.695312 49.574219 Z M 38.550781 60.066406 L 39.027344 59.664062 C 39.042969 59.332031 39.070312 59.125 39.058594 58.921875 C 39.050781 58.804688 39 58.671875 38.921875 58.585938 C 38.875 58.535156 38.679688 58.53125 38.65625 58.570312 C 38.582031 58.6875 38.519531 58.839844 38.53125 58.96875 C 38.546875 59.109375 38.648438 59.246094 38.738281 59.433594 L 38.175781 59.394531 Z M 39.375 89.816406 L 39.691406 91.164062 L 40.375 90.09375 L 39.5 89.601562 Z M 32.152344 105.058594 C 32.390625 104.027344 33.042969 103.425781 34.089844 103.203125 L 33.839844 102.707031 L 32.738281 103.457031 L 32.246094 103.148438 L 32.417969 103.402344 L 30.992188 104.148438 L 31.273438 104.421875 L 32.121094 104.511719 L 31.917969 105.058594 Z M 32.203125 38.808594 C 32.003906 38.902344 31.816406 39.019531 31.605469 39.082031 C 31.363281 39.15625 31.101562 39.1875 30.71875 39.261719 L 31.242188 39.929688 L 32.3125 39.003906 Z M 31.765625 100.140625 L 31.546875 100.839844 L 31.695312 100.917969 L 32.433594 99.933594 L 30.660156 99.933594 L 30.703125 100.542969 Z M 29.4375 42.582031 L 29.636719 42.957031 L 30.800781 42.335938 L 29.960938 43.636719 L 30.046875 43.992188 C 31.308594 43.777344 31.058594 42.828125 30.996094 41.789062 Z M 32.152344 95.066406 L 32.351562 95.132812 L 33.585938 94.082031 L 32.804688 93.671875 Z M 27.328125 84.917969 L 27.328125 83.785156 L 27.15625 83.625 L 26.097656 84.996094 L 26.304688 85.203125 L 26.898438 84.425781 Z M 25.171875 103.746094 L 22.957031 104.03125 C 23.523438 104.523438 24.777344 104.382812 25.171875 103.746094 Z M 26.703125 96.191406 C 27.097656 95.503906 26.796875 95.054688 26.222656 94.53125 L 26.507812 96.109375 L 26.242188 95.984375 L 25.03125 97.015625 L 26.882812 96.847656 C 26.820312 96.636719 26.621094 96.335938 26.703125 96.191406 Z M 32.976562 100.542969 L 32.695312 100.363281 L 31.4375 102.378906 L 31.703125 102.558594 Z M 35.691406 71.355469 L 35.691406 72.691406 L 35.929688 72.925781 L 36.769531 71.972656 C 36.726562 71.957031 36.867188 72.015625 37.0625 72.09375 C 36.851562 71.316406 36.410156 71.132812 35.691406 71.355469 Z M 83.636719 93.039062 L 83.636719 105.058594 L 68.402344 105.058594 L 59.730469 75.910156 L 60.15625 75.710938 L 59.652344 75.652344 L 59.359375 74.664062 L 59.359375 75.617188 L 58.367188 75.5 L 59 74.3125 L 58.09375 74.769531 L 58.160156 74.113281 L 58.03125 74.089844 L 57.75 74.972656 L 58.582031 74.902344 L 57.269531 75.699219 C 58.019531 75.496094 58.519531 75.832031 59.074219 76.214844 L 59.359375 76.082031 L 59.359375 105.058594 L 48.90625 105.058594 L 48.902344 104.84375 L 49.496094 104.695312 L 49.433594 104.5 L 48.214844 104.867188 L 48 104.484375 L 47.644531 104.914062 L 47.4375 104.839844 L 47.675781 104.144531 C 47.078125 103.832031 46.871094 104.328125 46.574219 104.839844 L 46.574219 103.417969 C 46.191406 103.925781 46.195312 104.746094 45.355469 104.394531 L 45.5625 103.746094 L 44.894531 104.152344 L 44.625 103.660156 L 44.207031 103.742188 C 44.179688 103.199219 43.832031 103.144531 43.601562 103.503906 C 43.425781 103.777344 43.019531 104.25 43.601562 104.605469 C 43.710938 104.671875 43.839844 104.710938 44.015625 104.785156 L 44.304688 104.171875 L 45.152344 104.71875 L 44.738281 104.941406 L 45.730469 104.992188 L 45.714844 105.058594 L 44.738281 105.058594 C 44.679688 105.050781 44.621094 105.03125 44.5625 105.023438 C 44.46875 105.007812 44.367188 105.03125 44.265625 105.058594 L 43.015625 105.058594 C 42.972656 105.003906 42.933594 104.9375 42.894531 104.855469 L 42.769531 105.058594 L 42.492188 105.058594 L 42.25 104.285156 L 41.332031 104.800781 L 41.132812 104.609375 L 42.125 103.5 L 42.058594 103.386719 L 41.492188 103.632812 L 41.007812 102.933594 C 41.566406 102.988281 42.128906 102.882812 42.445312 103.113281 C 42.839844 103.398438 43.058594 103.382812 43.269531 103.050781 C 43.308594 102.988281 43.011719 102.714844 42.851562 102.523438 L 41.914062 102.199219 L 41.515625 101.34375 L 40.238281 104.136719 L 40.796875 103.820312 C 40.789062 104.457031 40.578125 104.558594 39.839844 104.285156 C 39.910156 104.167969 39.980469 104.058594 40.046875 103.941406 L 39.046875 103.941406 L 38.3125 103.160156 C 38.359375 104.335938 38.371094 104.84375 38.1875 105.058594 L 37.535156 105.058594 C 38.035156 104.476562 37.933594 103.898438 37.460938 103.292969 L 36.484375 103.917969 L 37.390625 102.582031 L 36.738281 102.675781 C 36.980469 102.46875 37.136719 102.273438 37.191406 102.300781 C 37.511719 102.453125 37.8125 102.660156 38.226562 102.914062 L 38.683594 102.71875 C 39.144531 103.246094 39.324219 102.480469 39.667969 102.476562 C 39.589844 102.265625 39.445312 102.054688 39.445312 101.84375 C 39.445312 101.628906 39.539062 101.28125 39.679688 101.230469 C 40.378906 100.984375 40.03125 100.640625 39.777344 100.257812 L 40.957031 99.847656 C 41.015625 99.773438 40.679688 99.15625 41.359375 99.265625 L 41.109375 100.351562 L 41.265625 100.402344 L 41.710938 99.523438 C 42.066406 100.363281 42.519531 100.6875 43.070312 100.496094 L 42.421875 100.132812 L 43 99.109375 C 43.402344 99.078125 44.125 99.359375 43.980469 98.660156 C 43.867188 98.105469 44.101562 97.925781 44.378906 97.683594 C 44.59375 97.492188 44.871094 97.371094 45.097656 97.234375 L 44.800781 96.65625 C 45.480469 96.5 45.015625 95.921875 45.183594 95.597656 L 44.339844 95.3125 L 44.746094 94.730469 L 44.546875 94.589844 C 44.429688 94.742188 44.328125 94.910156 44.195312 95.050781 C 43.964844 95.300781 43.734375 95.710938 43.46875 95.738281 C 42.691406 95.820312 42.957031 96.203125 43.09375 96.714844 L 43.789062 95.890625 L 43.457031 98.277344 L 43.015625 98.117188 L 43.203125 97.289062 L 41.144531 98.308594 L 40.964844 97.796875 L 39.414062 98.796875 C 39.289062 97.597656 40.238281 97.949219 40.710938 97.691406 L 40.417969 97.59375 C 40.417969 97.304688 40.390625 97.015625 40.425781 96.730469 C 40.460938 96.429688 40.554688 96.136719 40.648438 95.734375 L 41.085938 95.785156 L 40.78125 94.453125 L 40.621094 94.457031 L 40.414062 95.578125 L 39.734375 94.066406 C 39.363281 94.085938 39.261719 94.324219 39.4375 94.746094 C 39.582031 95.089844 39.738281 95.429688 39.851562 95.6875 C 39.550781 95.707031 39.335938 95.75 39.121094 95.730469 C 38.96875 95.71875 38.757812 95.667969 38.691406 95.5625 C 38.46875 95.210938 38.492188 95.199219 38.164062 95.378906 L 38.402344 94.257812 L 40.40625 92.574219 C 40.421875 92.878906 40.507812 93.4375 40.453125 93.449219 C 39.777344 93.625 40.148438 94.027344 40.140625 94.46875 L 41.628906 93.621094 L 41.695312 93.71875 L 41.089844 94.421875 L 41.9375 94.203125 C 41.730469 94.609375 41.917969 94.804688 42.496094 94.789062 L 43.285156 93.445312 C 43.140625 92.773438 42.722656 93.023438 42.289062 93.207031 C 41.691406 93.464844 41.476562 93.304688 41.460938 92.601562 L 42.195312 92.738281 L 41.9375 91.957031 L 41.355469 92.429688 L 40.734375 92.09375 C 41.289062 91.570312 41.222656 90.53125 42.167969 90.328125 L 42.167969 89.398438 L 40.921875 90.164062 L 40.742188 89.863281 L 41.691406 89.355469 C 41.707031 88.996094 40.671875 88.730469 41.4375 88.296875 C 41.757812 88.117188 42.324219 88.382812 42.761719 88.445312 C 42.769531 87.875 43.335938 87.503906 44.636719 87.222656 L 42.320312 86.785156 L 42.429688 87.429688 L 41.011719 87.945312 C 40.539062 87.28125 41.695312 87.046875 41.546875 86.445312 C 42.386719 86.652344 42.902344 86.355469 42.910156 85.691406 L 42.152344 85.945312 C 42.046875 85.636719 42.035156 85.351562 41.90625 85.285156 C 41.726562 85.1875 41.464844 85.257812 41.273438 85.257812 L 41.359375 86.257812 C 41.183594 86.214844 40.875 86.101562 40.855469 86.136719 C 40.644531 86.539062 40.402344 86.949219 40.335938 87.386719 C 40.300781 87.613281 40.585938 87.894531 40.644531 88.003906 L 40.644531 89.617188 L 39.699219 89.292969 L 39.699219 88.628906 L 38.90625 89.664062 L 38.171875 89.664062 L 38.46875 90.207031 L 37.90625 90.546875 C 38.640625 91.179688 37.34375 91.011719 37.679688 91.648438 C 38.027344 91.460938 38.464844 91.328125 38.71875 91.035156 C 38.824219 90.910156 38.777344 90.601562 39.078125 90.609375 C 39.160156 90.609375 39.3125 90.734375 39.308594 90.789062 C 39.28125 91.0625 39.300781 91.414062 39.140625 91.585938 C 38.882812 91.855469 38.492188 91.992188 38.175781 92.214844 C 38.117188 92.253906 38.144531 92.414062 38.105469 92.800781 L 40.136719 91.332031 L 39.664062 92.71875 C 39.046875 92.617188 38.597656 92.957031 38.472656 93.753906 L 38.289062 93.648438 L 38.402344 92.949219 C 37.421875 93.144531 38.570312 94.242188 37.976562 94.390625 L 36.890625 94.011719 C 37.007812 93.886719 36.683594 93.25 37.410156 93.542969 C 37.460938 93.5625 37.613281 93.417969 37.65625 93.324219 C 37.683594 93.265625 37.621094 93.117188 37.554688 93.070312 C 37.3125 92.898438 37.054688 92.75 36.8125 92.597656 L 37.292969 92.070312 C 36.253906 92.332031 35.257812 92.71875 34.273438 91.910156 L 34.578125 91.4375 C 34.144531 91.4375 33.742188 91.367188 33.375 91.457031 C 32.972656 91.554688 33.019531 91.609375 32.898438 91.171875 C 32.863281 91.039062 32.585938 90.976562 32.332031 90.832031 L 33.289062 90.832031 C 33.007812 90.257812 32.796875 90.21875 31.496094 90.589844 L 31.144531 90.113281 C 32.191406 89.445312 33.265625 89.976562 34.222656 90.308594 C 34.71875 90.480469 34.945312 91.421875 35.355469 92.117188 L 36.503906 91.703125 C 35.765625 90.019531 36.152344 89.238281 38.261719 88.164062 L 37.695312 87.453125 C 38.085938 87.320312 38.382812 87.1875 38.695312 87.140625 C 38.777344 87.125 38.96875 87.359375 38.992188 87.5 C 39.042969 87.78125 39.007812 88.074219 39.007812 88.46875 L 40.082031 88.039062 L 39.625 87.476562 L 40.101562 86.945312 L 39.660156 86.09375 L 39.429688 86.1875 L 39.589844 85.308594 L 38.851562 86.128906 L 38.554688 85.867188 L 39.589844 84.964844 C 39.234375 84.90625 38.859375 84.941406 38.617188 84.777344 C 38.371094 84.609375 38.253906 84.25 38.09375 83.992188 L 40.054688 83.628906 C 40.15625 83.878906 40.25 84.121094 40.351562 84.359375 C 40.527344 84.765625 40.675781 84.757812 40.945312 84.390625 C 41.140625 84.125 41.480469 83.96875 41.753906 83.765625 L 41.300781 83.207031 L 40.910156 83.816406 L 39.867188 83.046875 C 39.792969 82.992188 39.667969 82.886719 39.65625 82.898438 C 39.519531 83.035156 39.394531 83.191406 39.203125 83.417969 C 38.941406 82.527344 39.4375 82.324219 40.035156 82.195312 C 40.035156 82.808594 40.558594 83.078125 41.175781 82.742188 C 41.464844 82.582031 41.710938 82.34375 41.972656 82.148438 L 41.007812 81.496094 C 42.324219 81.492188 42.554688 81.652344 42.789062 82.765625 C 42.8125 82.878906 42.582031 83.046875 42.421875 83.246094 C 42.625 83.890625 43.15625 84.074219 43.40625 83.476562 C 43.542969 83.152344 43.597656 82.792969 43.691406 82.449219 C 42.679688 82.195312 42.488281 81.839844 42.964844 80.996094 L 41.996094 81.226562 L 41.738281 80.167969 C 42.097656 80.351562 42.367188 80.546875 42.667969 80.625 C 42.945312 80.699219 43.257812 80.640625 43.679688 80.640625 C 43.234375 80.355469 43.226562 78.886719 43.585938 78.746094 C 43.765625 78.675781 44.054688 78.855469 44.277344 78.957031 C 44.324219 78.976562 44.296875 79.160156 44.296875 79.265625 C 44.296875 79.484375 44.292969 79.699219 44.292969 79.914062 L 44.105469 80.847656 L 44.273438 80.90625 L 45.691406 79.699219 L 44.46875 79.914062 L 44.800781 78.625 L 45.621094 77.898438 L 44.613281 77.449219 L 44.953125 76.535156 C 45.222656 76.503906 45.492188 76.496094 45.753906 76.441406 C 46.554688 76.269531 47.351562 76.078125 48.195312 75.882812 L 48.03125 76.429688 C 48.140625 76.386719 48.261719 76.359375 48.351562 76.292969 C 48.53125 76.164062 48.691406 76.015625 48.859375 75.867188 C 49.117188 75.644531 49.371094 75.417969 49.625 75.191406 L 49.453125 74.992188 L 48.523438 75.71875 L 47.871094 75.3125 L 47.871094 73.980469 L 46.90625 73.9375 C 46.839844 74.414062 46.136719 75.089844 47.425781 75.144531 L 45.089844 75.902344 L 44.945312 75.800781 L 45.445312 75.257812 L 44.449219 74.875 C 44.304688 75.203125 44.175781 75.605469 43.949219 75.945312 C 43.863281 76.074219 43.457031 76.171875 43.371094 76.089844 C 42.996094 75.753906 43.019531 75.730469 42.617188 75.917969 L 42.980469 76.992188 L 42.046875 76.820312 L 42.507812 75.414062 L 41.597656 75.765625 C 41.542969 75.40625 41.546875 75.027344 41.410156 74.703125 C 41.308594 74.449219 41.035156 74.269531 40.804688 74.023438 L 41.242188 73.855469 L 41.234375 73.679688 L 40.097656 73.773438 C 39.921875 73.601562 39.972656 73.0625 39.464844 73.410156 C 39.40625 73.449219 39.1875 73.359375 39.117188 73.269531 C 38.570312 72.546875 38.382812 73.136719 38.09375 73.511719 C 37.941406 73.710938 37.691406 73.835938 37.484375 73.996094 C 37.46875 73.738281 37.394531 73.46875 37.453125 73.234375 C 37.617188 72.609375 37.808594 71.988281 38.054688 71.394531 C 38.117188 71.242188 38.429688 71.191406 38.628906 71.101562 C 38.851562 71.003906 39.074219 70.917969 39.375 70.796875 L 38.542969 69.828125 C 38.695312 70.824219 38.242188 70.792969 37.636719 70.59375 L 37.636719 69.011719 L 37.269531 68.089844 L 37.964844 67.832031 L 37.945312 67.71875 L 37.058594 67.71875 L 37.003906 67.53125 C 37.367188 67.394531 37.726562 67.183594 38.097656 67.15625 C 38.261719 67.144531 38.449219 67.515625 38.804688 67.710938 C 38.746094 67.300781 38.667969 66.894531 38.628906 66.480469 C 38.582031 66.046875 38.554688 65.609375 38.542969 65.171875 C 38.53125 64.542969 38.539062 63.910156 38.539062 63.277344 L 38.234375 63.238281 L 37.980469 64.375 L 37.289062 64.597656 L 37.65625 63.195312 L 37.632812 63.21875 L 37.628906 63.191406 C 37.640625 63.191406 37.648438 63.195312 37.65625 63.195312 L 38.304688 62.519531 C 39.195312 63.109375 39.214844 63.117188 39.773438 62.839844 C 39.589844 62.597656 39.421875 62.339844 39.214844 62.121094 C 38.949219 61.847656 38.652344 61.605469 38.355469 61.359375 C 38.3125 61.324219 38.210938 61.363281 38.132812 61.367188 C 38.21875 60.691406 37.664062 60.890625 37.34375 60.769531 L 38.148438 59.890625 C 38.175781 61.019531 38.703125 61.351562 39.550781 61.132812 C 40.039062 61.007812 40.570312 61.070312 41.148438 61.042969 L 40.667969 62.671875 L 42.445312 62.183594 L 42.304688 62 L 43.199219 61.3125 L 41.765625 61.035156 L 41.679688 61.222656 L 42.125 61.753906 C 41.925781 61.753906 41.640625 61.816406 41.597656 61.742188 C 41.472656 61.535156 41.453125 61.265625 41.386719 61.015625 L 42.304688 60.769531 C 42.011719 60.578125 41.863281 60.460938 41.695312 60.382812 C 41.574219 60.324219 41.429688 60.308594 41.289062 60.285156 C 41.179688 60.265625 41.058594 60.226562 40.953125 60.25 C 40.265625 60.402344 39.578125 60.570312 38.75 60.769531 L 39.054688 60.050781 C 39.378906 60.101562 39.625 60.171875 39.863281 60.160156 C 40.0625 60.148438 40.253906 60.042969 40.449219 59.980469 C 40.324219 59.734375 40.214844 59.476562 40.070312 59.246094 C 40 59.136719 39.757812 59.054688 39.769531 58.988281 C 39.871094 58.378906 39.609375 57.96875 39.082031 57.71875 L 39.355469 56.828125 L 39.214844 56.753906 L 38.308594 57.855469 L 38.148438 57.746094 L 38.300781 57.25 L 36.226562 57.691406 L 36.1875 57.074219 C 36.679688 56.933594 37.109375 56.882812 37.46875 56.691406 C 37.855469 56.484375 38.171875 56.148438 38.519531 55.867188 L 38.691406 56.039062 L 38.527344 56.519531 L 39.398438 56.003906 L 39.730469 57.074219 C 40.496094 56.769531 40.628906 56.164062 40.554688 55.414062 C 41.289062 55.886719 42.25 56.082031 41.921875 57.210938 C 42.160156 57.023438 42.394531 56.832031 42.636719 56.648438 C 42.84375 56.492188 43.066406 56.351562 43.421875 56.105469 C 43.4375 55.679688 43.574219 55.554688 44.625 55.441406 L 43.8125 55.847656 L 44.085938 56.429688 L 45.328125 55.671875 L 43.664062 54.84375 L 42.8125 56.132812 L 41.511719 55.210938 L 41.65625 54.558594 L 41.527344 54.519531 L 41.089844 55.277344 L 40.839844 55.148438 C 40.949219 54.898438 41.09375 54.65625 41.160156 54.394531 C 41.183594 54.292969 41.039062 54.152344 40.964844 54.03125 L 40.882812 54.355469 C 40.097656 54.078125 40.078125 54.785156 39.828125 55.175781 L 40.421875 55.738281 L 39.976562 56.226562 C 39.878906 56.179688 39.808594 56.167969 39.796875 56.132812 C 39.59375 55.628906 39.335938 55.132812 39.21875 54.605469 C 39.125 54.167969 39.214844 53.707031 40.089844 53.90625 L 39.875 53.652344 L 38.722656 53.457031 L 38.359375 54.355469 L 38.785156 54.539062 L 37.722656 55.210938 C 38.355469 53.777344 38.445312 52.445312 37.359375 51.226562 L 38.039062 51.363281 L 38.394531 50.085938 C 37.40625 49.800781 37.65625 49.480469 36.488281 51.238281 C 36.417969 51.066406 36.390625 50.921875 36.308594 50.824219 C 36.253906 50.761719 36.117188 50.765625 36.117188 50.765625 L 36.625 49.0625 L 36.976562 49.808594 C 37.058594 49.78125 37.105469 49.777344 37.125 49.753906 C 37.429688 49.367188 37.710938 48.671875 38.035156 48.652344 C 39.167969 48.582031 39.238281 47.851562 39.296875 46.933594 L 41.535156 47.28125 L 41.867188 46.054688 C 41.824219 46.085938 41.785156 46.113281 41.746094 46.140625 L 42.304688 45.496094 L 42.667969 46.015625 C 42.8125 45.804688 42.847656 45.609375 42.777344 45.5625 C 42.203125 45.164062 42.695312 44.53125 42.449219 44.058594 C 42.441406 44.050781 42.761719 43.871094 42.925781 43.769531 C 43.074219 44.292969 43.273438 43.851562 43.34375 43.753906 C 43.464844 43.574219 43.511719 43.339844 43.636719 42.996094 L 43.203125 43.265625 C 43.007812 42.78125 42.742188 42.28125 43.625 41.988281 L 43.019531 41.457031 C 43.027344 41.632812 43.09375 41.835938 43.027344 41.976562 C 42.933594 42.171875 42.738281 42.316406 42.46875 42.613281 C 42.15625 41.539062 42.984375 41.34375 43.242188 41.03125 L 42.78125 39.890625 C 42.167969 40.699219 41.570312 39.894531 40.9375 39.933594 L 40.511719 40.53125 L 41.789062 41.433594 C 41.890625 41.265625 41.992188 41.089844 41.980469 41.113281 C 42.050781 41.878906 42.226562 42.78125 42.183594 43.671875 C 42.15625 44.191406 42.492188 44.820312 41.898438 45.285156 C 41.773438 45.382812 41.816406 45.699219 41.746094 46.140625 C 41.476562 46.332031 41.273438 46.488281 41.054688 46.597656 C 40.875 46.6875 40.652344 46.703125 40.449219 46.75 C 40.449219 46.5625 40.441406 46.375 40.449219 46.1875 C 40.464844 45.882812 40.492188 45.578125 40.515625 45.277344 L 40.285156 45.195312 L 39.546875 45.800781 L 39.625 45.949219 L 40.402344 45.824219 L 39.703125 46.628906 L 38.699219 46.230469 L 38.890625 45.816406 L 37.976562 45.816406 C 37.851562 44.871094 37.839844 44.871094 36.605469 44.96875 L 36.222656 44.570312 C 36.214844 44.566406 36.210938 44.5625 36.203125 44.558594 L 36.207031 44.550781 L 36.230469 44.574219 L 35.917969 43.863281 L 36.957031 43.863281 L 36.734375 44.292969 C 37.605469 44.710938 37.800781 44.152344 37.933594 43.542969 L 37.0625 43.765625 L 36.960938 43.402344 C 37.460938 43.292969 37.957031 43.1875 38.457031 43.078125 C 38.703125 43.019531 38.984375 43.007812 39.171875 42.871094 C 39.246094 42.8125 39.109375 42.472656 39.058594 42.210938 L 38.210938 42.589844 C 38.003906 42.25 38.179688 41.839844 38.683594 41.832031 C 39.253906 41.824219 39.792969 41.898438 40.167969 41.324219 C 40.214844 41.25 40.480469 41.3125 40.640625 41.3125 L 40.09375 40.140625 L 39.269531 40.753906 C 39.46875 40.90625 39.667969 41.058594 39.863281 41.210938 C 39.078125 41.445312 38.78125 41.199219 38.863281 40.402344 C 38.875 40.289062 38.8125 40.121094 38.726562 40.058594 C 38.640625 40 38.390625 39.996094 38.367188 40.042969 C 38.097656 40.613281 37.699219 40.734375 37.121094 40.503906 C 37.023438 40.464844 36.824219 40.6875 36.597656 40.839844 L 36.339844 39.75 L 37.667969 40.027344 L 37.765625 39.785156 L 37.527344 39.398438 L 38.128906 39.097656 L 39.199219 39.816406 L 40.9375 38.195312 L 41.195312 38.195312 L 41.519531 39.296875 C 41.855469 38.167969 42.339844 37.945312 43.085938 38.511719 C 43.128906 38.542969 43.304688 38.410156 43.410156 38.347656 C 43.476562 38.304688 43.550781 38.195312 43.59375 38.207031 C 44.09375 38.351562 44.589844 38.25 45.089844 38.195312 L 45.890625 38.195312 C 46.492188 38.289062 46.648438 38.441406 46.589844 39.101562 L 47.058594 38.953125 L 46.78125 38.207031 L 49.675781 38.515625 C 49.675781 38.449219 49.683594 38.417969 49.671875 38.398438 C 49.660156 38.378906 49.625 38.382812 49.601562 38.367188 C 49.558594 38.332031 49.515625 38.296875 49.410156 38.210938 L 51.050781 38.210938 L 50.308594 38.507812 C 50.339844 39.132812 50.871094 39.09375 51.003906 38.785156 C 51.320312 38.046875 51.914062 38.238281 52.410156 38.214844 C 52.585938 38.203125 52.757812 38.203125 52.933594 38.195312 L 55.386719 38.195312 C 55.640625 39.058594 56.390625 38.433594 56.796875 38.71875 L 56.601562 38.398438 C 56.742188 38.375 56.945312 38.28125 57.011719 38.339844 C 57.394531 38.675781 57.714844 38.90625 58.03125 38.253906 C 58.074219 38.167969 58.464844 38.246094 58.691406 38.269531 C 58.714844 38.273438 58.722656 38.414062 58.738281 38.492188 C 58.601562 38.511719 58.425781 38.480469 58.328125 38.558594 C 58.023438 38.789062 57.734375 39.050781 57.476562 39.332031 C 57.429688 39.386719 57.535156 39.65625 57.640625 39.730469 C 57.734375 39.796875 57.976562 39.789062 58.058594 39.714844 C 58.441406 39.363281 58.789062 38.976562 59.1875 38.566406 L 59.488281 39.183594 L 59.539062 38.753906 L 69.101562 68.304688 L 69.101562 38.238281 C 69.542969 38.269531 69.972656 38.273438 70.417969 38.214844 C 70.503906 38.207031 70.589844 38.203125 70.675781 38.195312 L 72.453125 38.195312 L 72.085938 38.632812 C 72.199219 38.652344 72.316406 38.703125 72.347656 38.671875 C 72.617188 38.386719 72.914062 38.253906 73.222656 38.195312 L 74.332031 38.195312 C 74.53125 38.214844 74.726562 38.230469 74.914062 38.226562 C 76.160156 38.199219 77.40625 38.402344 78.652344 38.433594 C 79.1875 38.449219 79.726562 38.246094 80.269531 38.214844 C 80.515625 38.199219 80.769531 38.386719 81.027344 38.433594 C 81.140625 38.453125 81.277344 38.328125 81.402344 38.324219 C 81.933594 38.316406 82.46875 38.289062 82.984375 38.378906 C 83.085938 38.398438 83.132812 38.902344 83.144531 39.1875 C 83.15625 39.363281 83.054688 39.542969 83.007812 39.722656 L 83.199219 39.804688 L 83.636719 39.277344 L 83.636719 40.382812 L 83.441406 41.042969 L 83.636719 40.976562 L 83.636719 52.3125 C 83.59375 52.472656 83.578125 52.605469 83.636719 52.652344 L 83.636719 92.554688 L 83.050781 93.039062 Z M 40.277344 42.996094 C 40.039062 43.023438 39.785156 43.019531 39.570312 43.101562 C 39.484375 43.136719 39.40625 43.394531 39.449219 43.503906 C 39.523438 43.691406 39.746094 44 39.8125 43.976562 C 40.78125 43.664062 40.652344 44.21875 40.519531 44.8125 C 40.496094 44.90625 40.546875 45.019531 40.582031 45.25 C 40.945312 44.832031 41.050781 44.375 41.570312 44.21875 C 41.785156 44.160156 41.835938 43.546875 41.953125 43.195312 C 41.117188 42.871094 40.996094 42.394531 41.449219 41.605469 C 40.066406 41.394531 41.074219 42.9375 40.277344 42.996094 Z M 38.375 88.726562 C 37.039062 89.019531 36.964844 89.078125 36.890625 89.804688 L 37.550781 89.671875 L 37.550781 90.25 Z M 42.71875 97.0625 C 42.589844 96.738281 42.519531 96.1875 42.320312 96.136719 C 41.894531 96.027344 41.402344 96.179688 40.941406 96.222656 L 40.96875 96.445312 C 41.769531 96.511719 42.355469 96.71875 42.71875 97.0625 Z M 69.304688 64.40625 C 69.320312 64.535156 69.484375 64.644531 69.683594 64.882812 L 69.644531 64.082031 L 70.320312 63.929688 C 70.011719 63.375 69.695312 63.476562 69.421875 63.816406 C 69.308594 63.957031 69.285156 64.210938 69.304688 64.40625 Z M 70.136719 70.34375 C 71.34375 70.847656 71.179688 69.875 71.558594 69.566406 C 71.460938 69.476562 71.289062 69.296875 71.277344 69.308594 C 70.910156 69.621094 70.558594 69.953125 70.136719 70.34375 Z M 58.824219 60.367188 L 59.707031 61.636719 L 60.3125 61.15625 L 59.972656 60.722656 L 59.742188 61.105469 L 59.53125 61.007812 L 59.769531 60.367188 Z M 54.621094 55.984375 L 55.53125 56.738281 L 55.90625 56.652344 C 54.679688 56.054688 55.726562 55.460938 55.695312 54.867188 L 55.410156 54.734375 Z M 46.855469 88.839844 C 47.136719 88.449219 47.484375 88.109375 48 88.683594 C 48.09375 88.539062 48.160156 88.480469 48.171875 88.410156 C 48.304688 87.648438 48.296875 87.664062 49.070312 87.820312 C 49.160156 87.835938 49.335938 87.550781 49.433594 87.382812 C 49.492188 87.277344 49.425781 87.078125 49.5 87.003906 C 50.042969 86.472656 49.957031 85.984375 49.484375 85.390625 L 50.570312 85.742188 L 50.570312 84.632812 L 50.058594 85.167969 L 49.476562 84.898438 L 49.988281 84.484375 L 49.824219 84.285156 C 49.660156 84.425781 49.421875 84.53125 49.347656 84.707031 C 49.085938 85.316406 48.6875 85.960938 49.628906 86.523438 L 48.855469 87.066406 L 48.628906 86.453125 C 48.414062 86.71875 48.121094 86.914062 48.109375 87.125 C 48.082031 87.734375 47.746094 87.917969 47.234375 88.089844 C 46.96875 88.175781 46.625 88.527344 46.609375 88.777344 C 46.5625 89.460938 46.78125 90.160156 46.355469 90.863281 L 47.679688 90.863281 L 47.683594 90.734375 C 47.476562 90.671875 47.265625 90.613281 47.289062 90.617188 Z M 47.515625 86.082031 L 47.40625 86.53125 L 47.621094 86.570312 C 47.734375 86.074219 48.429688 85.613281 47.707031 85.140625 L 46.777344 85.546875 Z M 45.644531 65.550781 L 44.9375 66.132812 L 45.882812 66.808594 C 46.058594 66.347656 46.628906 65.8125 45.644531 65.550781 Z M 44.878906 67.34375 C 45.273438 65.875 43.859375 67.148438 43.664062 66.558594 L 43.664062 67.09375 Z M 43.132812 67.113281 C 42.949219 67.765625 43.109375 68.226562 43.722656 68.390625 L 43.640625 67.113281 Z M 46.683594 64.25 C 46.78125 63.335938 46.28125 63.152344 45.59375 63.171875 L 45.6875 62.484375 L 44.363281 62.882812 L 44.554688 61.273438 C 43.914062 61.21875 43.699219 61.570312 43.984375 62.253906 L 43.230469 62.703125 C 43.597656 62.898438 43.839844 63.027344 44.082031 63.15625 L 44.082031 63.144531 L 45.628906 63.523438 L 45.582031 63.789062 L 44.820312 64.132812 L 44.820312 63.71875 L 44.320312 63.9375 L 44.847656 65.234375 L 45.648438 64.738281 L 45.570312 64.558594 L 45.132812 64.558594 L 45.097656 64.441406 L 46.1875 63.863281 Z M 46.601562 65.921875 L 47.609375 65.726562 L 47.703125 65.945312 C 47.535156 66.082031 47.371094 66.21875 47.203125 66.359375 L 48.019531 66.132812 C 47.878906 65.757812 47.777344 65.09375 47.582031 65.066406 C 47.097656 64.996094 46.617188 65.257812 46.601562 65.921875 Z M 46.660156 67.59375 C 47.265625 67.511719 47.894531 67.847656 48.074219 66.898438 C 47.414062 67.191406 47.195312 66.921875 47.15625 66.417969 Z M 46.710938 68.597656 L 48.445312 69.117188 L 48.46875 68.855469 C 48.21875 68.695312 47.863281 68.589844 47.746094 68.363281 C 47.503906 67.898438 47.558594 67.878906 47.234375 68.183594 C 47.082031 68.328125 46.90625 68.445312 46.710938 68.597656 Z M 48.472656 63.070312 L 47.414062 62.304688 L 46.75 63.070312 Z M 47.847656 55.289062 C 47.796875 54.796875 47.871094 54.355469 47.695312 54.058594 C 47.292969 53.363281 47.03125 54.546875 46.527344 54.304688 Z M 47.0625 55.4375 C 46.539062 55.457031 46.019531 55.5 45.496094 55.539062 L 45.511719 55.972656 L 46.695312 55.863281 L 46.816406 56.375 C 47.019531 56.058594 47.167969 55.839844 47.300781 55.605469 C 47.304688 55.59375 47.144531 55.433594 47.0625 55.4375 Z M 49.195312 59.019531 L 48.550781 58.121094 L 47.921875 58.597656 C 48.277344 58.933594 48.398438 59.875 49.195312 59.019531 Z M 48.554688 56.464844 L 49.238281 55.332031 L 48.195312 55.417969 Z M 49.769531 55.351562 C 49.84375 54.878906 49.6875 54.367188 49.632812 53.871094 C 49.324219 53.90625 49.105469 54.515625 49.238281 55.332031 C 49.21875 55.488281 49.21875 55.648438 49.179688 55.800781 C 49.117188 56.050781 49.027344 56.292969 48.953125 56.539062 L 49.175781 56.609375 C 49.382812 56.191406 49.699219 55.792969 49.769531 55.351562 Z M 50.097656 51.625 L 49.773438 50.941406 L 49.257812 51.140625 C 49.25 50.699219 49.710938 50.132812 48.867188 50.121094 L 49.347656 51.914062 Z M 52.730469 59.914062 C 52.964844 60.15625 53.402344 59.863281 54.042969 59.035156 L 53.453125 59.035156 L 53.230469 58.335938 C 52.695312 58.828125 53.925781 59.683594 52.730469 59.914062 Z M 54.535156 52.445312 C 54.554688 52.457031 54.878906 52.105469 54.84375 52.007812 C 54.601562 51.398438 54.117188 51.410156 53.511719 51.785156 C 53.851562 52.011719 54.183594 52.246094 54.535156 52.445312 Z M 52.957031 80.066406 C 52.417969 79.605469 52.148438 79.710938 52.050781 80.332031 C 52.035156 80.449219 51.984375 80.640625 51.910156 80.660156 C 51.152344 80.863281 51.644531 81.269531 51.703125 81.433594 L 50.945312 82.570312 L 51.175781 82.765625 C 51.378906 82.171875 52.488281 82.441406 52.273438 81.589844 C 52.078125 80.824219 52.410156 80.445312 52.957031 80.066406 Z M 52.671875 70.234375 C 52.066406 70.929688 50.664062 70.347656 50.539062 71.519531 L 51.386719 72.617188 L 51.917969 71.339844 C 52.046875 71.5 52.167969 71.664062 52.289062 71.820312 L 53.265625 69.703125 C 52.5 69.429688 52.128906 69.601562 52.207031 70.324219 Z M 52.671875 73.070312 L 51.355469 73.523438 L 52.242188 74.09375 L 52.804688 73.28125 Z M 51.074219 77.414062 C 51.144531 77.988281 51.5625 78.207031 52.320312 78.070312 Z M 53.097656 78.714844 L 53.722656 76.105469 C 53.3125 76.574219 52.90625 77.003906 52.546875 77.46875 C 52.421875 77.625 52.398438 77.863281 52.332031 78.066406 C 52.835938 77.6875 52.957031 78.082031 53.097656 78.714844 Z M 51.972656 64.664062 L 52.152344 66.109375 L 52.972656 65.019531 Z M 51.941406 59.644531 C 51.683594 59.816406 51.433594 59.996094 51.167969 60.152344 C 51.015625 60.238281 50.839844 60.277344 50.675781 60.339844 L 51.058594 61.042969 L 52.132812 59.757812 Z M 51.964844 48.78125 L 52.269531 48.539062 C 52.152344 48.371094 52.070312 48.101562 51.914062 48.046875 C 51.480469 47.898438 51.015625 47.835938 50.605469 47.75 L 50.859375 49.585938 C 51.539062 49.597656 50.96875 48.335938 51.609375 48.351562 Z M 50.605469 63.457031 C 50.425781 63.460938 50.148438 63.574219 50 63.753906 L 51.570312 63.898438 L 51.621094 63.667969 L 51.183594 63.265625 L 51.433594 62.671875 L 51.285156 62.535156 C 51.082031 62.734375 50.835938 62.910156 50.699219 63.148438 C 50.640625 63.25 50.710938 63.453125 50.605469 63.457031 Z M 49.953125 69.695312 L 50.835938 70.15625 C 51.078125 69.335938 50.957031 68.746094 50.46875 68.382812 L 50.363281 69.457031 L 50.1875 69.421875 C 50.171875 69.371094 50.167969 69.304688 50.132812 69.28125 C 50.101562 69.257812 49.992188 69.273438 49.992188 69.28125 C 49.964844 69.496094 49.949219 69.714844 49.953125 69.695312 Z M 49.878906 79.707031 C 49.992188 79.929688 51.039062 80.675781 51.066406 80.726562 L 51.300781 80.703125 C 51.246094 80.371094 51.277344 79.820312 51.109375 79.75 C 50.753906 79.601562 50.292969 79.707031 49.878906 79.707031 Z M 49.117188 80.667969 C 49.972656 81.269531 50.574219 81.0625 50.578125 80.386719 Z M 50.878906 88.351562 L 50.757812 87.738281 C 50.441406 87.875 50.078125 87.941406 49.855469 88.152344 C 49.625 88.367188 49.527344 88.726562 49.371094 89.023438 L 49.644531 89.273438 C 49.539062 88.054688 50.570312 88.847656 50.878906 88.351562 Z M 49.960938 93.890625 L 49.246094 94.992188 C 49.554688 95.046875 49.933594 95.144531 49.945312 95.109375 C 50.078125 94.753906 50.144531 94.378906 50.234375 94.007812 Z M 50.585938 89.554688 L 51.789062 89.910156 L 51.714844 89.042969 L 50.648438 89.320312 Z M 51.855469 86.519531 C 52.441406 86.238281 52.90625 85.238281 52.785156 84.574219 L 53.976562 84.976562 L 54.074219 84.742188 L 52.59375 83.929688 C 52.597656 83.945312 52.566406 83.773438 52.535156 83.578125 L 52.023438 83.730469 C 52.410156 84.042969 52.664062 84.273438 52.101562 84.675781 C 51.777344 84.914062 51.621094 85.351562 52.226562 85.714844 C 51.992188 85.808594 51.78125 85.839844 51.667969 85.957031 C 51.566406 86.058594 51.554688 86.265625 51.546875 86.425781 C 51.546875 86.457031 51.78125 86.554688 51.855469 86.519531 Z M 53.25 86.914062 C 53.214844 87.308594 52.847656 87.675781 52.621094 88.054688 L 52.773438 88.25 C 53.175781 87.644531 53.636719 87.671875 54.191406 87.9375 L 53.984375 87.34375 L 53.511719 87.484375 L 53.414062 87.324219 L 54.183594 86.664062 L 53.855469 86.042969 L 52.710938 86.042969 C 52.871094 86.285156 53.277344 86.617188 53.25 86.914062 Z M 54.503906 78.257812 C 54.902344 78.140625 55.246094 77.828125 55.730469 77.515625 L 53.738281 77.515625 C 54.078125 77.863281 54.359375 78.300781 54.503906 78.257812 Z M 55.78125 67.660156 L 55.734375 67.53125 L 54.761719 67.632812 L 54.355469 68.707031 Z M 54.765625 41.988281 C 54.589844 42.128906 54.417969 42.277344 54.226562 42.398438 C 54.191406 42.421875 54.066406 42.332031 54 42.273438 C 53.90625 42.191406 53.828125 42.09375 53.742188 42.003906 C 53.703125 42.136719 53.59375 42.300781 53.636719 42.394531 C 53.773438 42.667969 53.96875 42.917969 54.234375 43.316406 L 54.933594 42.097656 Z M 52.9375 41.332031 C 53.289062 41.496094 53.636719 41.679688 54 41.808594 C 54.128906 41.855469 54.304688 41.769531 54.457031 41.742188 C 54.394531 41.59375 54.359375 41.351562 54.261719 41.324219 C 53.839844 41.203125 53.398438 41.144531 52.964844 41.066406 Z M 52.050781 45.738281 L 51.617188 46.257812 L 51.863281 46.488281 L 53.382812 44.996094 C 53.085938 44.652344 52.621094 44.292969 52.074219 44.691406 C 51.917969 44.808594 52.050781 45.320312 52.050781 45.738281 Z M 50.894531 43.1875 L 51.46875 41.554688 C 51.070312 41.984375 50.046875 42.164062 50.894531 43.1875 Z M 50.164062 53.601562 C 50.648438 53.394531 51.710938 53.589844 50.941406 52.394531 L 51.699219 52.230469 C 51.191406 51.742188 50.777344 51.8125 50.554688 52.234375 C 50.335938 52.640625 50.285156 53.140625 50.164062 53.601562 Z M 49.390625 39.542969 L 48.152344 40.25 L 48.277344 40.472656 L 50.183594 39.71875 L 49.300781 39.363281 Z M 45.972656 42.394531 C 45.292969 42.554688 45.789062 43.410156 45.742188 43.957031 C 45.234375 44.042969 45.003906 44.445312 45.046875 45.164062 L 44.167969 45.066406 C 45.097656 45.527344 45.46875 45.429688 45.726562 44.515625 C 45.953125 43.710938 46.632812 44.042969 47.050781 43.898438 C 47.5 43.742188 48.109375 44.050781 48.71875 44.167969 C 48.671875 43.832031 48.679688 43.605469 48.601562 43.421875 C 48.5625 43.332031 48.238281 43.308594 48.242188 43.273438 C 48.273438 42.976562 48.394531 42.679688 48.386719 42.386719 C 48.382812 42.277344 48.101562 42.175781 47.949219 42.070312 C 48.128906 41.886719 48.3125 41.707031 48.484375 41.515625 C 48.511719 41.488281 48.488281 41.417969 48.488281 41.320312 C 48.359375 41.308594 48.230469 41.289062 48.105469 41.292969 C 48.054688 41.296875 47.992188 41.351562 47.960938 41.402344 C 47.808594 41.621094 47.671875 41.847656 47.527344 42.074219 L 47.546875 42.097656 L 47.539062 42.089844 C 46.925781 41.554688 46.457031 42.28125 45.972656 42.394531 Z M 45.164062 46.113281 L 45.871094 45.90625 L 46.324219 45.070312 C 45.714844 44.808594 45.347656 45.144531 45.164062 46.113281 Z M 44.417969 42.238281 C 44.550781 42.175781 44.6875 42.078125 44.765625 41.957031 C 44.894531 41.753906 44.96875 41.515625 45.082031 41.296875 C 45.210938 41.050781 45.351562 40.816406 45.488281 40.574219 L 45.246094 40.445312 C 44.945312 40.882812 44.636719 41.316406 44.339844 41.761719 C 44.265625 41.875 44.214844 42.003906 44.15625 42.128906 C 44.246094 42.167969 44.359375 42.261719 44.417969 42.238281 Z M 43.660156 40.070312 L 44.46875 39.675781 L 45.914062 39.675781 L 45.941406 39.386719 L 44.957031 38.992188 L 44.476562 38.398438 L 43.421875 39.828125 Z M 42.148438 46.539062 L 42.300781 46.714844 L 44.265625 47.0625 L 44.375 46.875 L 43.148438 46.070312 Z M 41.15625 47.601562 L 40.367188 48.824219 L 40.046875 48.777344 L 40.445312 50.171875 L 41.871094 48.976562 C 41.996094 49.332031 42.066406 49.6875 42.242188 49.984375 C 42.402344 50.25 42.675781 50.445312 42.898438 50.675781 L 43.265625 50.136719 L 42.324219 49.949219 L 42.859375 49.058594 C 43.539062 49.242188 44.191406 49.453125 44.078125 50.449219 L 45.519531 49.347656 C 44.496094 48.121094 46.394531 48.625 46.175781 47.796875 C 45.816406 47.984375 45.472656 48.199219 45.105469 48.34375 C 44.730469 48.488281 44.332031 48.566406 43.917969 48.679688 L 43.589844 47.375 C 43.390625 47.601562 43.390625 47.859375 43.304688 48.089844 C 43.179688 48.429688 42.996094 48.75 42.835938 49.082031 C 42.855469 48.078125 41.980469 48.777344 41.765625 48.507812 L 40.921875 49.445312 L 40.824219 49.304688 L 41.320312 47.671875 Z M 39.335938 48.570312 L 40.496094 48.230469 L 39.589844 47.542969 Z M 38.675781 49.734375 L 38.628906 50.28125 L 39.574219 50.148438 L 39.574219 49.375 C 39.304688 49.167969 38.671875 49.847656 38.773438 48.761719 L 37.835938 49.574219 L 37.949219 49.734375 Z M 39.425781 51.921875 L 39.160156 52.460938 L 39.753906 52.648438 L 40.332031 51.964844 L 39.625 51.765625 L 39.8125 51.621094 C 39.566406 51.292969 39.347656 50.933594 39.0625 50.648438 C 38.972656 50.558594 38.699219 50.65625 38.351562 50.679688 C 39.601562 51.375 38.148438 51.324219 38.230469 51.496094 L 38.757812 52.132812 L 39.3125 51.796875 Z M 44.5625 54.039062 C 44.554688 53.8125 44.5 53.570312 44.394531 53.371094 C 44.347656 53.285156 44.039062 53.222656 44.023438 53.253906 C 43.722656 53.734375 43.59375 53.316406 43.371094 53.175781 C 43.097656 53.003906 42.765625 52.914062 42.410156 52.773438 L 42.300781 53.589844 C 41.914062 53.460938 41.582031 53.34375 41.242188 53.242188 C 41.144531 53.214844 41.027344 53.226562 40.921875 53.222656 C 40.9375 53.09375 40.902344 52.90625 40.972656 52.851562 C 41.433594 52.488281 41.914062 52.15625 42.5 51.730469 C 42.035156 51.574219 41.582031 51.359375 41.113281 51.300781 C 40.9375 51.277344 40.714844 51.613281 40.511719 51.785156 L 40.59375 51.890625 L 41.316406 51.65625 L 41.414062 51.863281 C 41.042969 52.09375 40.972656 52.757812 40.246094 52.503906 C 40.121094 52.460938 39.933594 52.589844 39.769531 52.65625 C 39.894531 52.761719 40.019531 52.878906 40.152344 52.972656 C 40.28125 53.0625 40.421875 53.128906 40.554688 53.207031 L 40.105469 53.511719 L 40.964844 54.023438 C 41.425781 53.589844 41.742188 53.664062 42.039062 54.25 C 42.113281 54.394531 42.265625 54.496094 42.382812 54.617188 L 42.507812 54.460938 L 42.1875 54.0625 L 43.148438 53.75 L 42.960938 54.683594 C 43.402344 54.523438 43.800781 54.382812 44.195312 54.230469 C 44.332031 54.179688 44.566406 54.097656 44.5625 54.039062 Z M 45.914062 53.191406 C 45.929688 53.160156 45.996094 52.96875 46.113281 52.8125 C 46.238281 52.640625 46.410156 52.503906 46.5625 52.347656 L 46.003906 52.070312 C 46.003906 51.988281 46.007812 51.917969 46.003906 51.84375 C 45.988281 51.492188 45.628906 50.902344 46.488281 51.148438 C 46.5 51.152344 46.683594 50.804688 46.632812 50.734375 C 46.132812 50.054688 46.605469 49.613281 47.160156 48.945312 L 46.175781 49.03125 L 46.21875 48.402344 C 45.636719 49.203125 45.652344 49.964844 46.214844 50.5 L 44.785156 51.703125 C 44.230469 51.75 43.953125 51.511719 43.945312 50.921875 C 43.890625 51.242188 43.988281 51.507812 44 51.773438 C 44.007812 52.082031 43.941406 52.394531 43.890625 52.832031 L 44.792969 52.832031 Z M 43.289062 59.910156 L 43.222656 60.050781 L 43.984375 61.023438 C 44.214844 61.003906 44.574219 60.871094 44.828125 60.980469 C 45.410156 61.226562 45.578125 60.980469 45.660156 60.507812 L 45.039062 60.609375 C 45.042969 60.496094 45.015625 60.363281 45.0625 60.265625 C 45.234375 59.878906 45.433594 59.507812 45.566406 59.242188 C 45.773438 59.289062 46.082031 59.332031 46.375 59.429688 C 46.523438 59.480469 46.699219 59.601562 46.75 59.734375 C 47.042969 60.523438 47.265625 60.65625 47.644531 60.394531 L 47.097656 59.21875 L 46.363281 59.101562 C 46.765625 58.882812 46.796875 58.46875 46.464844 57.859375 C 46.097656 58.089844 45.769531 58.476562 45.46875 58.453125 C 44.714844 58.394531 44.472656 58.773438 44.242188 59.414062 L 43.964844 58.753906 L 43.492188 59.28125 L 44.4375 60.179688 L 44.363281 60.3125 Z M 40.929688 57.496094 C 40.695312 57.960938 40.398438 58.28125 40.460938 58.503906 C 40.527344 58.75 40.921875 58.910156 41.273438 59.191406 C 41.820312 58.476562 41.011719 58.179688 40.929688 57.496094 Z M 43.230469 57.871094 L 43.1875 57.589844 L 41.78125 57.757812 L 41.890625 57.238281 L 41.601562 56.960938 L 41.386719 57.007812 C 41.484375 57.390625 41.554688 58.089844 41.683594 58.101562 C 42.1875 58.140625 42.710938 57.964844 43.230469 57.871094 Z M 42.410156 63.070312 C 42.621094 63.308594 42.429688 64.203125 42.886719 63.738281 C 43.445312 63.175781 43.605469 63.5 44.082031 64.027344 L 44.082031 63.167969 Z M 39.039062 64.558594 L 39.898438 65.160156 L 39.121094 65.632812 L 40.207031 65.785156 C 40.203125 65.78125 40.203125 65.773438 40.199219 65.769531 L 41.390625 65.585938 L 40.558594 64.371094 C 40.511719 64.257812 40.386719 64.113281 40.421875 64.039062 C 40.730469 63.351562 40.265625 63.101562 39.789062 62.851562 Z M 40.8125 68.882812 L 40.667969 67.960938 L 39.859375 67.851562 C 39.929688 67.445312 39.871094 66.976562 40.078125 66.757812 C 40.410156 66.410156 40.34375 66.132812 40.210938 65.796875 L 39.125 66.621094 C 39.914062 66.957031 39.058594 67.335938 39.128906 67.722656 L 39.703125 68.027344 L 38.058594 68.511719 L 38.425781 69.296875 Z M 41.179688 72.285156 L 40.199219 71.1875 L 41.042969 71.042969 C 40.75 70.890625 40.605469 70.8125 40.457031 70.734375 C 40.460938 70.738281 40.464844 70.746094 40.46875 70.75 C 39.933594 70.945312 39.699219 71.246094 39.996094 71.835938 C 40.078125 72 39.976562 72.277344 39.917969 72.488281 C 39.894531 72.570312 39.742188 72.613281 39.527344 72.757812 C 40.257812 72.792969 40.960938 73.320312 41.179688 72.285156 Z M 41.464844 69.910156 L 40.492188 70.117188 L 40.429688 69.9375 L 41.175781 69.246094 L 39.644531 69.632812 L 40.453125 70.726562 L 41.351562 70.214844 L 41.351562 71.1875 C 42.175781 70.714844 41.335938 70.304688 41.464844 69.910156 Z M 41.761719 68.136719 C 41.914062 68.046875 42.089844 67.992188 42.140625 67.96875 C 42.359375 68.351562 42.542969 68.6875 42.753906 69.007812 C 42.765625 69.019531 43.039062 68.859375 43.039062 68.859375 L 42.351562 67.429688 C 42.125 67.496094 41.878906 67.648438 41.671875 67.605469 C 41.496094 67.566406 41.371094 67.300781 41.214844 67.144531 C 41.097656 67.027344 40.964844 66.925781 40.839844 66.816406 L 40.742188 66.941406 C 40.886719 67.28125 41.039062 67.617188 41.164062 67.960938 C 41.226562 68.136719 41.234375 68.328125 41.265625 68.511719 C 41.429688 68.386719 41.585938 68.246094 41.761719 68.136719 Z M 43.09375 71.203125 L 42.046875 70.816406 L 42.15625 71.960938 Z M 44.484375 71.109375 C 44.082031 71.457031 43.277344 70.71875 43.152344 71.761719 L 43.761719 71.558594 L 43.84375 71.75 L 42.941406 72.125 L 43.472656 73.191406 L 44.203125 72.527344 C 43.519531 71.929688 44.429688 71.65625 44.484375 71.109375 Z M 45.949219 66.824219 C 45.921875 66.828125 45.894531 66.832031 45.871094 66.835938 L 45.878906 66.824219 L 44.878906 67.34375 L 45.023438 69.421875 C 43.882812 69.066406 43.738281 69.148438 43.71875 70.039062 C 43.921875 69.949219 44.121094 69.785156 44.300781 69.804688 C 45.175781 69.894531 45.5 69.125 45.800781 68.644531 C 46.085938 68.183594 45.917969 67.441406 45.949219 66.824219 Z M 47.027344 73.386719 L 46.183594 73.203125 L 46.035156 74.28125 L 46.890625 73.921875 Z M 47.144531 68.945312 L 46.398438 69.171875 L 46.421875 69.3125 L 46.910156 69.421875 L 46.355469 70.351562 C 47.230469 69.992188 47.460938 69.449219 47.144531 68.945312 Z M 49 71.632812 L 47.546875 71.800781 L 47.925781 72.800781 C 48.410156 72.839844 48.503906 72.167969 49 71.632812 Z M 49.613281 69.820312 C 49.625 69.164062 49.511719 68.652344 48.742188 68.566406 L 48.609375 69.367188 C 49.535156 69.019531 48.789062 69.777344 48.988281 69.957031 Z M 49.824219 58.84375 C 49.585938 59.378906 48.804688 59.601562 48.914062 60.324219 C 49.023438 59.703125 50.234375 59.761719 49.824219 58.84375 Z M 49.160156 78.355469 L 50 77.300781 L 48.949219 77.488281 L 48.894531 77.367188 L 50.179688 76.613281 L 50.015625 76.253906 C 49.578125 76.386719 48.898438 76.402344 48.757812 76.679688 C 48.515625 77.171875 48.375 77.878906 49.160156 78.355469 Z M 48.152344 79.460938 C 48.304688 79.617188 48.453125 79.773438 48.605469 79.917969 C 48.695312 80.003906 48.792969 80.121094 48.894531 80.136719 C 48.988281 80.148438 49.179688 80.046875 49.1875 79.980469 C 49.203125 79.824219 49.191406 79.609375 49.097656 79.507812 C 48.949219 79.34375 48.722656 79.253906 48.523438 79.140625 C 48.429688 79.085938 48.324219 79.054688 48.226562 79.015625 Z M 48.4375 83.652344 L 48.6875 81.046875 L 48.472656 81.085938 C 48.277344 81.566406 47.839844 82.128906 47.960938 82.507812 C 48.070312 82.847656 47.410156 83.683594 48.4375 83.652344 Z M 47.722656 83.472656 C 47.273438 83.394531 46.894531 83.222656 46.5625 83.292969 C 45.828125 83.441406 45.757812 83.601562 45.875 84.269531 C 46.316406 83.804688 46.757812 83.484375 47.167969 84.519531 Z M 46.648438 80.285156 L 45.898438 80.332031 L 46.3125 81.183594 L 47.339844 79.578125 C 46.816406 79.6875 46.863281 78.660156 46.308594 79.316406 C 46.210938 79.429688 46.488281 79.859375 46.648438 80.285156 Z M 45.234375 82.769531 L 45.320312 82.953125 L 46.84375 82.769531 L 47.054688 81.875 Z M 45.273438 85.914062 L 45.015625 85.96875 L 44.613281 84.980469 L 44.445312 84.96875 L 44.199219 86.683594 L 44.476562 86.765625 Z M 43.964844 88.785156 L 44.882812 89.65625 L 44.742188 87.589844 Z M 43.289062 90.03125 L 43.074219 89.738281 L 43.699219 89.082031 L 43.546875 88.960938 L 42.65625 89.089844 C 42.828125 89.652344 42.835938 90.136719 42.191406 90.335938 L 42.191406 91.121094 Z M 43.558594 92.582031 L 42.761719 92.203125 C 43.238281 92.011719 43.503906 91.863281 43.78125 91.828125 C 43.855469 91.816406 43.972656 92.160156 44.097656 92.386719 L 44.722656 91.9375 L 44.195312 91.648438 L 44.109375 90.34375 L 42.578125 91.976562 L 42.417969 91.679688 L 42.226562 91.738281 L 42.585938 92.878906 Z M 44.058594 95.148438 L 43.5 94.238281 L 42.953125 95.382812 Z M 44.824219 93.339844 L 46.601562 92.851562 L 46.605469 92.703125 L 44.691406 92.515625 C 44.234375 92.863281 44.976562 93.839844 43.785156 93.820312 L 44.714844 94.164062 Z M 45.628906 94.203125 L 46.414062 93.363281 C 45.90625 93.261719 45.359375 93.179688 45.128906 93.882812 Z M 43.5 101.058594 L 42.480469 101.777344 L 42.839844 102.492188 C 42.902344 102.417969 42.972656 102.34375 43.03125 102.265625 C 43.175781 102.0625 43.316406 101.855469 43.460938 101.648438 L 43.617188 101.742188 L 43.585938 102.011719 L 44.503906 102.40625 C 45.011719 101.324219 43.457031 101.773438 43.5 101.058594 Z M 45.535156 102.503906 C 44.605469 102.890625 44.59375 102.898438 44.632812 103.636719 C 45.515625 103.738281 45.433594 103.085938 45.535156 102.503906 Z M 46.121094 100.933594 L 45.457031 100.835938 L 45.859375 100.191406 L 44.816406 99.945312 L 44.816406 99.816406 L 43.691406 100 L 43.671875 100.15625 L 44.808594 100.347656 C 44.605469 100.441406 44.417969 100.464844 44.339844 100.570312 C 44.207031 100.753906 44.140625 100.988281 44.046875 101.199219 L 44.253906 101.292969 L 44.351562 100.75 L 44.554688 100.644531 L 45.148438 101.609375 L 45.265625 101.242188 C 45.546875 101.3125 45.75 101.394531 45.949219 101.394531 C 46 101.394531 46.050781 101.132812 46.121094 100.933594 Z M 48.460938 99.046875 L 47.910156 98.316406 L 46.972656 98.855469 L 47.65625 99.101562 L 46.621094 99.488281 C 46.480469 98.859375 45.558594 98.125 44.976562 98.210938 L 44.976562 99.234375 L 45.796875 98.699219 L 45.628906 99.691406 L 46.542969 99.832031 L 46.011719 100.664062 C 46.757812 101.007812 46.804688 100.96875 46.8125 100.164062 C 46.8125 100.023438 46.960938 99.835938 47.09375 99.761719 C 47.515625 99.511719 47.964844 99.300781 48.460938 99.046875 Z M 50.703125 103.394531 L 49.738281 102.3125 L 49.113281 102.957031 Z M 51.140625 96.011719 L 50.371094 96.390625 C 50.453125 96.75 50.648438 97.054688 50 97.039062 C 49.765625 97.035156 49.472656 97.519531 49.292969 97.832031 C 49.175781 98.042969 49.304688 98.410156 49.167969 98.585938 C 48.578125 99.347656 47.933594 100.070312 47.308594 100.804688 L 47.367188 100.960938 L 49.300781 100.300781 L 49.640625 99.320312 L 49.527344 99.222656 L 48.671875 99.933594 C 48.710938 99.585938 48.777344 99.183594 48.988281 99.074219 C 49.726562 98.707031 50.050781 98.195312 49.785156 97.351562 L 50.472656 97.289062 Z M 51.207031 91.863281 L 51.722656 91.078125 L 52.398438 90.835938 C 51.339844 90.910156 50.945312 91.253906 51.207031 91.863281 Z M 52.6875 104.675781 L 51.421875 103.820312 C 51.371094 104.039062 51.25 104.332031 51.300781 104.367188 C 51.625 104.582031 51.976562 104.757812 52.339844 104.898438 C 52.414062 104.929688 52.570312 104.757812 52.6875 104.675781 Z M 53.167969 96.269531 L 52.597656 96.269531 L 52.480469 96.09375 L 52.820312 95.976562 L 52.144531 95.117188 C 52.078125 95.132812 51.894531 95.179688 51.722656 95.242188 C 51.65625 95.269531 51.582031 95.339844 51.558594 95.40625 C 51.53125 95.480469 51.558594 95.574219 51.558594 95.660156 C 52.242188 95.449219 52.117188 96.195312 52.441406 96.394531 C 52.617188 96.503906 52.875 96.492188 53.097656 96.523438 C 53.109375 96.523438 53.132812 96.402344 53.167969 96.269531 Z M 53.765625 93.578125 L 52.59375 92.621094 L 52.117188 93.359375 Z M 55.25 98.371094 C 55.167969 98.191406 54.730469 98.054688 54.488281 98.097656 C 54.121094 98.160156 53.679688 98.324219 53.984375 98.976562 L 54.632812 98.269531 L 54.882812 99.1875 L 55.089844 99.214844 C 55.15625 98.929688 55.347656 98.585938 55.25 98.371094 Z M 55.46875 89.261719 L 56.59375 90.089844 L 57.167969 89.332031 L 56.773438 88.816406 L 56.476562 89.171875 C 55.992188 89.121094 55.601562 88.984375 55.273438 89.078125 C 54.921875 89.175781 54.632812 89.488281 54.265625 89.742188 C 54.773438 90.21875 55.171875 90.074219 55.46875 89.261719 Z M 57.414062 95.226562 L 57.347656 95.078125 L 56.53125 94.929688 L 56.933594 94.371094 L 56.847656 94.152344 L 55.664062 94.664062 L 55.582031 94.925781 C 56.472656 94.507812 56.414062 95.027344 56.324219 95.65625 Z M 57.085938 86.757812 C 56.933594 86.863281 56.78125 86.964844 56.636719 87.078125 C 56.445312 87.226562 56.261719 87.378906 56.066406 87.539062 C 56.71875 88.289062 57.101562 87.714844 57.53125 87.425781 L 56.734375 87.378906 L 57.277344 87.039062 Z M 58.347656 50.664062 L 57.929688 50.390625 L 57.023438 51.242188 L 57.996094 51.589844 L 57.765625 52.234375 L 58.011719 52.292969 Z M 58.75 55.867188 L 58.269531 56.679688 C 58.578125 56.679688 58.785156 56.679688 58.769531 56.679688 L 59.464844 55.214844 L 58.546875 55.515625 L 59.371094 54.554688 L 58.679688 54.632812 L 58.34375 55.664062 Z M 60.199219 62.617188 L 59.886719 62.632812 L 59.96875 63.941406 L 59.136719 64.175781 L 59.023438 63.632812 L 58.476562 64.058594 L 58.507812 64.335938 C 59.074219 64.308594 59.738281 64.464844 60.179688 64.214844 C 60.976562 63.769531 59.808594 63.183594 60.199219 62.617188 Z M 63.164062 61.753906 C 62.867188 61.589844 62.578125 61.316406 62.273438 61.300781 C 62.039062 61.285156 61.78125 61.585938 61.429688 61.820312 L 62.820312 62.046875 Z M 64.816406 76.078125 L 64.246094 76.761719 L 64.035156 76.019531 L 63.863281 76.089844 L 63.863281 77.074219 C 64.804688 76.71875 65.121094 76.386719 64.816406 76.078125 Z M 66.710938 67.332031 C 65.945312 66.910156 66.242188 66.417969 66.527344 65.875 C 66.242188 66.160156 66.066406 66.476562 65.941406 66.8125 C 65.871094 66.996094 65.804688 67.347656 65.871094 67.386719 C 66.078125 67.503906 66.351562 67.503906 66.597656 67.550781 Z M 66.726562 71.660156 L 68.597656 71.570312 L 68.59375 71.382812 L 68.070312 71.382812 L 68.695312 70.386719 L 68.015625 70.386719 C 68.058594 70.988281 67.980469 71.46875 67.175781 71.292969 C 67.042969 71.261719 66.832031 71.570312 66.726562 71.660156 Z M 68.753906 83.121094 L 69.042969 82.96875 L 68.710938 81.734375 L 68.550781 81.707031 L 68.257812 82.59375 Z M 70.039062 104.164062 C 70.003906 104.054688 69.96875 103.941406 69.9375 103.832031 C 69.894531 103.667969 69.863281 103.5 69.804688 103.34375 C 69.796875 103.328125 69.570312 103.347656 69.546875 103.398438 C 69.453125 103.605469 69.316406 103.84375 69.347656 104.042969 C 69.398438 104.347656 69.578125 104.628906 69.742188 105.019531 C 70.246094 104.941406 70.15625 104.558594 70.039062 104.164062 Z M 70.359375 101.730469 C 70.332031 101.652344 70.109375 101.601562 69.972656 101.597656 C 69.035156 101.578125 69.253906 102.539062 68.859375 103.011719 C 69.050781 102.914062 69.40625 102.824219 69.410156 102.71875 C 69.425781 102.253906 69.476562 102.03125 69.960938 102.402344 C 70.027344 102.453125 70.3125 102.371094 70.34375 102.285156 C 70.410156 102.121094 70.414062 101.902344 70.359375 101.730469 Z M 71.921875 94.664062 C 71.027344 94.257812 70.46875 94.25 70.242188 94.640625 C 70.621094 94.660156 71.132812 94.578125 71.191406 94.707031 C 71.542969 95.449219 71.679688 94.964844 71.921875 94.664062 Z M 71.972656 90.363281 L 71.417969 89.292969 L 70.730469 89.40625 C 70.933594 90.0625 71.132812 90.730469 71.972656 90.363281 Z M 73.066406 81.148438 L 72.128906 80.691406 C 71.972656 81.003906 71.894531 81.273438 71.726562 81.453125 C 71.554688 81.636719 71.292969 81.738281 71.066406 81.875 L 71.234375 82.121094 L 72.539062 81.175781 L 72.957031 81.386719 Z M 73.566406 41.613281 C 73.207031 41.578125 72.867188 41.640625 72.527344 41.703125 C 72.226562 41.757812 71.925781 41.828125 71.621094 41.859375 C 71.472656 41.871094 71.320312 41.804688 71.171875 41.777344 C 71.234375 41.964844 71.277344 42.171875 71.371094 42.34375 C 71.4375 42.464844 71.578125 42.546875 71.699219 42.660156 C 71.917969 42.464844 72.214844 42.082031 72.316406 42.128906 C 72.929688 42.410156 73.171875 41.851562 73.566406 41.613281 Z M 77.195312 81.539062 L 75.832031 80.605469 L 75.832031 81.539062 Z M 77.308594 66.050781 L 76.601562 65.679688 L 76.601562 64.953125 L 76.484375 64.914062 L 76.039062 66.324219 Z M 79.804688 65.6875 L 78.714844 65.484375 L 78.53125 65.933594 C 79.453125 65.734375 79.199219 66.277344 79.164062 66.75 Z M 80.53125 64.429688 L 79.292969 64.429688 L 79.175781 64.671875 C 79.429688 64.832031 79.675781 65.089844 79.945312 65.113281 C 80.09375 65.125 80.273438 64.746094 80.53125 64.429688 Z M 81.273438 91.1875 L 80.511719 90.171875 L 80.769531 91.898438 L 81.011719 91.886719 Z M 32.371094 51.253906 L 31.988281 50.011719 L 30.804688 50.679688 Z M 31.671875 43.867188 L 31.730469 44.851562 C 32.332031 44.746094 33.171875 45.066406 33.289062 43.796875 C 32.667969 44.390625 32.179688 44.558594 31.671875 43.867188 Z M 32.6875 81.695312 C 32.527344 81.566406 32.292969 81.53125 32.089844 81.457031 L 32.007812 81.671875 L 32.574219 82.140625 L 31.683594 82.195312 L 31.996094 82.960938 L 32.828125 82.0625 C 32.804688 82 32.796875 81.78125 32.6875 81.695312 Z M 34.261719 82.304688 L 33.824219 81.722656 L 33.824219 82.863281 L 35.398438 82.152344 L 35.308594 81.941406 Z M 32.183594 91.726562 C 31.683594 91.710938 31.183594 91.714844 30.679688 91.714844 L 30.679688 91.964844 L 31.640625 92.292969 L 30.933594 93.328125 L 31.296875 94.199219 L 31.425781 94.132812 L 31.464844 93.535156 C 31.78125 93.550781 32.105469 93.589844 32.109375 93.566406 C 32.214844 93.019531 32.292969 92.46875 32.351562 91.917969 C 32.359375 91.859375 32.246094 91.726562 32.183594 91.726562 Z M 36.214844 85.992188 L 36.234375 86.015625 C 36.238281 86.007812 36.242188 86 36.242188 85.992188 L 36.234375 85.992188 C 36.234375 86 36.234375 86.007812 36.234375 86.015625 Z M 36.480469 84.449219 C 37.375 85.074219 36.828125 83.785156 37.3125 83.695312 L 35.9375 83.277344 C 35.78125 83.785156 36.136719 84.210938 36.480469 84.449219 Z M 36.621094 86.566406 L 36.828125 86.652344 L 37.1875 85.792969 L 37.863281 85.902344 L 37.347656 86.347656 L 37.414062 86.496094 L 38.046875 86.398438 L 38.046875 84.996094 C 37.769531 85.066406 37.46875 85.253906 37.269531 85.175781 C 36.390625 84.832031 36.386719 85.484375 36.242188 85.992188 C 36.554688 85.96875 36.570312 86.003906 36.621094 86.566406 Z M 35.960938 86.410156 L 36.214844 85.992188 L 36.234375 85.992188 L 36.113281 84.546875 L 35.117188 86.035156 C 35.785156 85.402344 35.570312 86.46875 35.960938 86.410156 Z M 36.453125 77.9375 C 36.261719 78.265625 36.367188 78.761719 36.347656 79.191406 L 36.507812 79.25 L 37.109375 78.140625 C 37.34375 78.277344 37.535156 78.421875 37.75 78.5 C 37.839844 78.53125 37.980469 78.417969 38.097656 78.371094 C 37.894531 78.136719 37.71875 77.753906 37.472656 77.703125 C 37.144531 77.636719 36.574219 77.722656 36.453125 77.9375 Z M 33.691406 75.984375 C 33.695312 75.992188 33.699219 76.003906 33.703125 76.015625 L 33.710938 76.011719 C 33.707031 76 33.695312 75.992188 33.691406 75.984375 Z M 35.550781 76.113281 C 35.433594 75.773438 35.273438 75.460938 35.019531 75.332031 C 34.753906 75.195312 34.394531 75.242188 34.078125 75.207031 L 35.171875 74.523438 C 34.917969 74.425781 34.695312 74.28125 34.460938 74.269531 C 34.191406 74.253906 33.914062 74.355469 33.703125 74.394531 L 33.507812 73.742188 L 33.214844 73.816406 L 33.414062 74.71875 L 32.984375 75.046875 L 33.691406 75.984375 C 34.320312 75.632812 34.902344 75.835938 35.550781 76.113281 Z M 32.914062 75.300781 L 32.046875 76.824219 L 33.980469 76.46875 L 33.703125 76.015625 C 33.539062 76.074219 33.375 76.128906 33.234375 76.179688 Z M 35.054688 83.949219 C 34.921875 84.261719 34.777344 84.566406 34.667969 84.882812 C 34.570312 85.160156 34.503906 85.175781 34.140625 85.007812 C 34.050781 84.964844 33.902344 85.042969 33.78125 85.0625 C 33.804688 85.179688 33.792969 85.324219 33.855469 85.414062 C 33.980469 85.578125 34.152344 85.710938 34.300781 85.859375 L 35.472656 84.542969 L 35.253906 83.984375 Z M 31.785156 87.308594 L 31.492188 86.792969 L 30.886719 86.929688 L 30.765625 86.226562 C 30.425781 86.433594 30.085938 86.640625 29.644531 86.90625 Z M 29.601562 53.441406 L 29.738281 53.464844 L 29.976562 52.53125 L 30.769531 52.90625 L 30.890625 52.683594 L 29.601562 51.96875 Z M 36.980469 87.640625 L 36.503906 87.515625 L 36.882812 87.097656 L 36.691406 86.847656 L 35.089844 87.675781 C 34.773438 87.445312 35.414062 86.527344 34.53125 86.660156 C 34.390625 86.683594 34.355469 87.390625 34.257812 87.847656 C 35.09375 87.867188 35.597656 88.046875 35.5 88.824219 Z M 34.296875 85.863281 L 34.308594 85.867188 L 34.300781 85.859375 Z M 30.761719 86.195312 L 30.765625 86.226562 L 30.78125 86.214844 C 30.78125 86.199219 30.785156 86.183594 30.789062 86.171875 Z M 32.613281 86.039062 L 33.765625 86.292969 L 34.296875 85.863281 L 32.644531 85.734375 Z M 34.496094 52.839844 L 34.15625 53.597656 L 35.796875 53 C 35.878906 53.019531 36.140625 53.046875 36.367188 53.148438 C 36.609375 53.257812 36.820312 53.4375 37.027344 53.578125 L 37.570312 52.484375 L 36.371094 51.453125 L 36.371094 52.300781 L 37.003906 52.207031 C 36.90625 53.242188 36.300781 52.726562 35.878906 52.695312 C 35.714844 52.683594 35.480469 52.550781 35.40625 52.617188 C 34.96875 53.003906 34.753906 52.972656 34.5625 52.421875 C 34.367188 51.84375 34.175781 51.261719 33.949219 50.589844 C 33.394531 51.554688 33.640625 52.417969 34.496094 52.839844 Z M 32.636719 38.878906 C 33.570312 38.230469 33.148438 39.289062 33.378906 39.507812 L 34.421875 38.710938 C 33.832031 38.035156 32.902344 38.136719 32.636719 38.878906 Z M 36.382812 54.976562 C 36.292969 55.09375 36.527344 55.464844 36.644531 55.800781 L 37.558594 54.457031 L 37.324219 54.238281 C 37 54.476562 36.621094 54.671875 36.382812 54.976562 Z M 35.917969 47.386719 C 35.710938 47.558594 35.503906 47.785156 35.253906 47.914062 C 35.035156 48.027344 34.761719 48.027344 34.511719 48.078125 C 35.570312 48.128906 36.039062 47.898438 35.917969 47.386719 Z M 38.429688 38.207031 C 38.242188 38.222656 38.0625 38.335938 37.890625 38.425781 C 37.875 38.433594 37.933594 38.683594 37.980469 38.691406 C 38.175781 38.722656 38.382812 38.707031 38.601562 38.707031 L 38.542969 39.113281 C 39.476562 39.492188 39.527344 38.863281 39.554688 38.195312 L 38.78125 38.195312 C 38.664062 38.199219 38.546875 38.195312 38.429688 38.207031 Z M 36.148438 38.632812 L 36.546875 39.339844 C 36.890625 39.195312 37.175781 39.082031 37.449219 38.949219 C 37.554688 38.902344 37.632812 38.804688 37.722656 38.730469 C 37.613281 38.640625 37.488281 38.5625 37.394531 38.457031 C 36.875 37.855469 36.59375 38.5625 36.148438 38.632812 Z M 35.976562 43.402344 L 36.15625 42.660156 C 36.25 42.613281 36.523438 42.542969 36.527344 42.464844 C 36.53125 42.136719 36.457031 41.808594 36.386719 41.308594 C 36.234375 41.734375 36.222656 42.011719 36.082031 42.113281 C 35.570312 42.472656 35.671875 42.90625 35.976562 43.402344 Z M 35.589844 69.195312 C 35.597656 69.3125 35.585938 69.445312 35.640625 69.53125 C 35.734375 69.679688 35.886719 69.789062 36.011719 69.917969 L 36.828125 69.222656 L 36.234375 68.507812 C 36.511719 69.320312 36.085938 69.296875 35.589844 69.195312 Z M 34.421875 67.824219 L 34.421875 68.382812 C 34.65625 68.582031 34.855469 68.671875 34.871094 68.785156 C 34.890625 68.917969 34.753906 69.074219 34.605469 69.382812 L 35.550781 69.175781 L 34.621094 67.714844 Z M 35.585938 69.167969 C 35.574219 69.171875 35.5625 69.171875 35.550781 69.175781 L 35.5625 69.191406 C 35.570312 69.195312 35.578125 69.195312 35.589844 69.195312 C 35.585938 69.1875 35.585938 69.179688 35.585938 69.167969 Z M 33.476562 44.433594 C 33.371094 45.285156 33.457031 45.847656 33.730469 46.121094 C 34.214844 44.742188 34.210938 44.71875 33.476562 44.433594 Z M 35.417969 75.125 L 36.234375 74.078125 L 36.828125 74.34375 L 36.828125 73.011719 L 35.117188 74.859375 Z M 34.269531 55.335938 L 34.851562 55.585938 L 34.367188 56.546875 L 34.566406 56.644531 C 34.660156 56.164062 35.875 56.203125 35.117188 55.324219 C 35.269531 55.230469 35.425781 55.050781 35.570312 55.0625 C 35.757812 55.070312 35.933594 55.230469 35.984375 55.253906 L 36.746094 54 C 36.125 53.785156 35.875 54.214844 35.726562 54.851562 L 35.539062 54.394531 C 34.804688 55.09375 33.40625 54.902344 33.078125 56.292969 Z M 35.128906 63.5 C 35.050781 63.5 34.804688 63.425781 34.636719 63.511719 C 33.871094 63.90625 33.546875 65.089844 33.96875 65.941406 L 34.421875 65.460938 L 34.550781 65.527344 L 34.160156 67.027344 C 34.804688 66.996094 34.925781 66.878906 34.972656 66.242188 C 34.976562 66.191406 35.082031 66.113281 35.136719 66.117188 C 35.214844 66.117188 35.296875 66.171875 35.367188 66.21875 C 35.550781 66.335938 35.730469 66.460938 35.925781 66.589844 L 35.1875 64.859375 C 34.261719 64.90625 34.132812 64.851562 34.261719 64.558594 C 34.441406 64.164062 34.820312 63.859375 35.128906 63.5 Z M 34.308594 85.867188 L 34.300781 85.859375 Z M 28.902344 99.523438 L 27.386719 99.269531 L 27.375 99.535156 C 27.835938 99.738281 28.257812 100.363281 28.902344 99.523438 Z M 29.476562 103.59375 C 29.273438 103.582031 29.066406 103.589844 28.867188 103.554688 C 28.726562 103.527344 28.515625 103.46875 28.484375 103.371094 C 28.324219 102.910156 28.34375 102.902344 28.144531 102.894531 L 27.859375 104.027344 L 29.484375 103.867188 Z M 30.132812 102.109375 L 29.886719 100.929688 L 28.980469 101.707031 C 29.144531 101.84375 29.335938 102.066406 29.582031 102.183594 C 29.722656 102.25 29.945312 102.136719 30.132812 102.109375 Z M 29.839844 98.617188 L 29.222656 99.367188 C 29.371094 99.488281 29.492188 99.585938 29.453125 99.554688 L 29.03125 100.636719 L 29.226562 100.738281 L 30.214844 99.523438 Z M 29.992188 95.632812 C 30.496094 95.625 30.882812 95.554688 30.570312 94.902344 C 30.546875 94.851562 30.585938 94.769531 30.597656 94.703125 C 30.484375 94.707031 30.320312 94.664062 30.269531 94.722656 C 29.855469 95.195312 29.457031 95.683594 29.054688 96.171875 C 29.605469 96.3125 30.1875 96.71875 30.613281 95.988281 L 29.707031 95.988281 C 29.785156 95.746094 29.886719 95.632812 29.992188 95.632812 Z M 29.042969 96.1875 L 29.023438 96.160156 C 29.027344 96.171875 29.039062 96.175781 29.042969 96.1875 Z M 32.011719 85.898438 C 31.925781 85.226562 31.265625 84.777344 30.035156 84.550781 L 30.238281 85.390625 L 30.992188 85.148438 L 30.789062 86.171875 L 31.464844 85.539062 Z M 29.042969 96.1875 L 29.054688 96.171875 C 29.046875 96.167969 29.035156 96.164062 29.023438 96.160156 Z M 26.644531 45.144531 L 26.164062 47.191406 C 27.046875 46.71875 26.957031 46.042969 26.644531 45.144531 Z M 25.675781 53.199219 C 26.300781 52.609375 26.371094 52.976562 26.476562 53.460938 C 26.734375 53.125 26.960938 52.917969 27.054688 52.660156 C 27.089844 52.5625 26.765625 52.199219 26.695312 52.222656 C 26.359375 52.335938 26.050781 52.542969 25.734375 52.714844 Z M 29.640625 45.15625 L 29.703125 46.328125 L 31.011719 45.949219 L 30.945312 45.703125 C 30.769531 45.703125 30.585938 45.691406 30.410156 45.707031 C 30.242188 45.71875 30.074219 45.761719 29.90625 45.792969 L 30.398438 45.15625 Z M 23.730469 102.460938 C 23.960938 102.035156 24.007812 101.929688 24.492188 101.972656 L 24.492188 100.714844 L 22.910156 102.75 L 23.035156 102.90625 C 23.277344 102.761719 23.617188 102.671875 23.730469 102.460938 Z M 23.632812 94.75 L 23.449219 94.574219 L 22.640625 94.820312 L 22.640625 95.773438 L 22.863281 95.847656 Z M 22.609375 81.644531 L 22.710938 83.644531 C 23.207031 81.878906 23.175781 81.6875 22.609375 81.644531 Z M 27.800781 96.886719 C 27.539062 96.953125 27.300781 97.105469 27.050781 97.222656 L 27.03125 97.597656 C 28.148438 96.476562 28.355469 97.847656 28.984375 98.042969 L 28.941406 98.726562 C 29.109375 97.941406 29.128906 97.152344 29.140625 96.363281 C 29.140625 96.304688 29.085938 96.246094 29.042969 96.1875 L 28.628906 96.875 C 28.273438 96.875 28.023438 96.828125 27.800781 96.886719 Z M 37.066406 100.890625 C 37.367188 100.894531 37.726562 100.992188 37.996094 100.648438 C 38.261719 100.304688 38.613281 100.023438 38.871094 99.769531 L 36.421875 100.019531 L 36.472656 100.070312 L 35.265625 100.496094 L 35.53125 101.648438 C 35.78125 100.878906 36.398438 100.886719 37.066406 100.890625 Z M 35.355469 95.125 C 35.246094 95.195312 35.15625 95.296875 35.058594 95.382812 C 35.191406 95.414062 35.339844 95.5 35.460938 95.46875 C 35.878906 95.359375 36.289062 95.214844 36.695312 95.085938 L 36.558594 94.375 C 36.144531 94.628906 35.746094 94.871094 35.355469 95.125 Z M 35.242188 100.507812 L 35.261719 100.484375 Z M 38.871094 96.875 C 38.742188 96.929688 38.554688 96.949219 38.511719 97.039062 C 38.363281 97.359375 38.261719 97.703125 38.136719 98.0625 L 38.648438 98.167969 L 37.71875 98.8125 L 37.800781 98.230469 L 37.601562 98.160156 C 37.523438 98.355469 37.332031 98.648438 37.398438 98.726562 C 37.542969 98.898438 37.988281 99.082031 38.011719 99.050781 C 38.398438 98.488281 39.460938 98.527344 39.375 97.546875 C 38.5625 97.8125 38.925781 97.179688 38.871094 96.875 Z M 37.019531 94.9375 L 36.828125 96.191406 L 36.132812 95.628906 C 36.070312 95.976562 35.902344 96.320312 36.007812 96.460938 C 36.1875 96.703125 36.535156 96.820312 36.8125 96.992188 C 36.78125 97.128906 36.800781 97.332031 36.714844 97.390625 C 36.265625 97.691406 36.257812 97.679688 36.441406 98.117188 L 37.132812 98 L 36.972656 97.800781 C 37.089844 97.636719 37.179688 97.4375 37.328125 97.316406 C 37.625 97.074219 37.957031 96.875 38.375 96.585938 L 37 96.316406 C 37.140625 96.269531 37.273438 96.210938 37.417969 96.179688 C 37.753906 96.101562 38.089844 96.035156 38.429688 95.964844 L 38.355469 95.695312 L 37.230469 96.007812 L 37.230469 94.9375 Z M 34.15625 96.808594 L 34.882812 96.140625 L 34.402344 95.507812 L 34.9375 94.292969 L 33.878906 94.539062 L 34.214844 95.691406 L 33.761719 96.046875 Z M 30.796875 98.992188 C 31.328125 98.355469 31.257812 99.210938 31.535156 99.269531 L 31.957031 98.609375 L 31.09375 98.054688 Z M 35.539062 101.699219 C 35.539062 101.679688 35.53125 101.664062 35.53125 101.648438 C 35.527344 101.65625 35.519531 101.664062 35.519531 101.675781 Z M 33.757812 101.359375 C 34.75 101.839844 34.9375 101.742188 35.054688 100.882812 C 35.074219 100.75 35.175781 100.628906 35.25 100.503906 L 35.242188 100.507812 C 35.136719 100.433594 34.964844 100.273438 34.941406 100.292969 C 34.554688 100.621094 34.183594 100.964844 33.757812 101.359375 Z M 33.390625 96.550781 L 33.113281 97.789062 L 32.21875 97.46875 L 31.984375 98.628906 L 31.960938 98.605469 L 31.984375 98.628906 L 31.960938 98.613281 C 32.078125 99.09375 32.0625 99.679688 32.820312 99.738281 L 32.230469 98.699219 C 34.101562 98.410156 34.527344 98.261719 34.765625 97.878906 C 34.425781 97.179688 34.121094 97.46875 33.90625 97.839844 L 33.535156 96.546875 Z M 34.507812 102.511719 C 34.660156 102.78125 34.769531 103.101562 34.984375 103.3125 C 35.175781 103.507812 35.484375 103.589844 35.695312 103.695312 C 35.832031 103.253906 35.957031 102.957031 36.011719 102.648438 C 36.054688 102.421875 36.007812 102.179688 36.003906 102.007812 L 35.148438 102.953125 L 34.890625 102.726562 C 35.054688 102.539062 35.242188 102.367188 35.375 102.164062 C 35.457031 102.039062 35.472656 101.871094 35.507812 101.71875 L 34.1875 102.574219 Z M 35.539062 101.699219 L 35.519531 101.675781 C 35.515625 101.691406 35.511719 101.703125 35.507812 101.71875 C 35.519531 101.710938 35.53125 101.707031 35.539062 101.699219 Z M 35.539062 101.699219 " fill-opacity="1" fill-rule="nonzero"/></g><g transform="matrix(1, 0, 0, 1, 0, -0.000000000000008916)"><g clip-path="url(#f4d7e96a90)"><g fill="#2884ff" fill-opacity="1"><g transform="translate(83.636313, 104.86085)"><g><path d="M 1.015625 -18.171875 C 1.015625 -23.421875 2.800781 -27.863281 6.375 -31.5 C 9.957031 -35.132812 14.269531 -36.953125 19.3125 -36.953125 C 24.382812 -36.953125 28.695312 -35.140625 32.25 -31.515625 C 35.800781 -27.898438 37.578125 -23.453125 37.578125 -18.171875 C 37.578125 -12.859375 35.832031 -8.390625 32.34375 -4.765625 C 28.851562 -1.148438 24.507812 0.65625 19.3125 0.65625 C 14.007812 0.65625 9.632812 -1.140625 6.1875 -4.734375 C 2.738281 -8.328125 1.015625 -12.804688 1.015625 -18.171875 Z M 9.9375 -18.171875 C 9.9375 -16.265625 10.226562 -14.523438 10.8125 -12.953125 C 11.40625 -11.390625 12.4375 -10.0625 13.90625 -8.96875 C 15.375 -7.882812 17.175781 -7.34375 19.3125 -7.34375 C 22.394531 -7.34375 24.71875 -8.398438 26.28125 -10.515625 C 27.851562 -12.628906 28.640625 -15.179688 28.640625 -18.171875 C 28.640625 -21.128906 27.835938 -23.671875 26.234375 -25.796875 C 24.640625 -27.929688 22.332031 -29 19.3125 -29 C 16.320312 -29 14.007812 -27.929688 12.375 -25.796875 C 10.75 -23.671875 9.9375 -21.128906 9.9375 -18.171875 Z M 9.9375 -18.171875 "/></g></g></g><g fill="#2884ff" fill-opacity="1"><g transform="translate(122.182433, 104.86085)"><g><path d="M 2.640625 -36.296875 L 15.625 -36.296875 C 19.113281 -36.296875 21.957031 -35.363281 24.15625 -33.5 C 26.351562 -31.644531 27.453125 -28.984375 27.453125 -25.515625 C 27.453125 -22.847656 26.785156 -20.613281 25.453125 -18.8125 C 24.117188 -17.007812 22.304688 -15.738281 20.015625 -15 L 32.515625 0 L 22 0 L 10.90625 -14.34375 L 10.90625 0 L 2.640625 0 Z M 10.90625 -20.203125 L 11.875 -20.203125 C 12.644531 -20.203125 13.289062 -20.210938 13.8125 -20.234375 C 14.34375 -20.265625 14.941406 -20.367188 15.609375 -20.546875 C 16.285156 -20.722656 16.828125 -20.972656 17.234375 -21.296875 C 17.648438 -21.617188 18.003906 -22.085938 18.296875 -22.703125 C 18.597656 -23.316406 18.75 -24.0625 18.75 -24.9375 C 18.75 -25.820312 18.597656 -26.570312 18.296875 -27.1875 C 18.003906 -27.800781 17.648438 -28.269531 17.234375 -28.59375 C 16.828125 -28.914062 16.285156 -29.164062 15.609375 -29.34375 C 14.941406 -29.519531 14.34375 -29.625 13.8125 -29.65625 C 13.289062 -29.6875 12.644531 -29.703125 11.875 -29.703125 L 10.90625 -29.703125 Z M 10.90625 -20.203125 "/></g></g></g><g fill="#2884ff" fill-opacity="1"><g transform="translate(153.652255, 104.86085)"><g><path d="M -1.3125 -36.296875 L 8.625 -36.296875 L 16.1875 -24.6875 L 23.765625 -36.296875 L 33.703125 -36.296875 L 20.328125 -16.28125 L 20.328125 0 L 12.0625 0 L 12.0625 -16.28125 Z M -1.3125 -36.296875 "/></g></g></g><g fill="#2884ff" fill-opacity="1"><g transform="translate(186.001146, 104.86085)"><g><path d="M 36.609375 0 L 25.921875 0 L 17.34375 -12.359375 L 8.75 0 L -1.5 0 L 12.234375 -19.53125 L 0.796875 -36.296875 L 10.640625 -36.296875 L 17.34375 -26.40625 L 24.03125 -36.296875 L 34.3125 -36.296875 L 22.4375 -19.53125 Z M 36.609375 0 "/></g></g></g><g transform="matrix(1, 0, 0, 1, 0, -0.000000000000008916)"><g clip-path="url(#0176ca166f)"><g mask="url(#fe279447e3)"><g transform="matrix(1, 0, 0, 1, 0, -0.000000000000008916)"><g clip-path="url(#b9a55f9de8)"><g clip-path="url(#9b68ca7327)"><path fill="url(#67d20af3b2)" d="M 134.71875 0 L 134.71875 144 L 252 144 L 252 0 Z M 134.71875 0 " fill-rule="nonzero"/></g></g></g></g></g></g></g></g></svg>
